<svg version="1.1" xmlns="http://www.w3.org/2000/svg" viewBox="0 0 1905.9268204282223 737.9625929571812" width="1905.9268204282223" height="737.9625929571812" filter="invert(93%) hue-rotate(180deg)" class="excalidraw-svg">
  <!-- svg-source:excalidraw -->
  
  <defs>
    <style class="style-fonts">
      @font-face {
        font-family: "Virgil";
        src: url("https://excalidraw.com/Virgil.woff2");
      }
      @font-face {
        font-family: "Cascadia";
        src: url("https://excalidraw.com/Cascadia.woff2");
      }
      @font-face {
        font-family: "Assistant";
        src: url("https://excalidraw.com/Assistant-Regular.woff2");
      }
    </style>
    
  </defs>
  <g stroke-linecap="round" transform="translate(419.2016813806865 10) rotate(0 69.75 69.75)"><path d="M39.34 6.32 C47.17 1.17, 58.25 -1.02, 68.29 -0.83 C78.33 -0.64, 90.35 3.02, 99.59 7.46 C108.83 11.9, 117.49 18.06, 123.76 25.8 C130.03 33.54, 134.94 43.92, 137.22 53.89 C139.51 63.85, 139.55 75.67, 137.45 85.58 C135.35 95.5, 130.9 105.65, 124.62 113.37 C118.35 121.08, 108.97 127.38, 99.8 131.89 C90.63 136.39, 79.66 140.4, 69.58 140.41 C59.49 140.41, 48.38 136.53, 39.27 131.92 C30.16 127.32, 21.09 120.31, 14.91 112.78 C8.73 105.25, 4.56 96.28, 2.18 86.76 C-0.2 77.23, -1.55 65.68, 0.64 55.64 C2.84 45.6, 8.39 34.67, 15.35 26.52 C22.31 18.36, 37.5 9.97, 42.39 6.72 C47.28 3.47, 44.24 5.93, 44.7 7.01 M64.16 -0.47 C73.69 -2.51, 85.23 0.69, 94.71 4.13 C104.2 7.56, 114.23 12.87, 121.09 20.15 C127.94 27.42, 133.08 38.24, 135.83 47.8 C138.58 57.36, 138.68 67.53, 137.58 77.49 C136.48 87.45, 134.65 98.68, 129.21 107.56 C123.76 116.44, 113.56 125.33, 104.92 130.76 C96.29 136.19, 87.24 139.25, 77.39 140.13 C67.54 141.01, 55.5 139.5, 45.85 136.04 C36.19 132.57, 26.58 126.78, 19.47 119.34 C12.36 111.91, 6.4 101.1, 3.19 91.43 C-0.03 81.76, -1.01 71.08, 0.16 61.3 C1.32 51.52, 4.69 41.15, 10.19 32.75 C15.68 24.35, 24.43 16.14, 33.11 10.89 C41.79 5.63, 57.07 2.73, 62.25 1.23 C67.42 -0.27, 63.87 1.14, 64.15 1.9" stroke="#1e1e1e" stroke-width="2" fill="none"/></g><g transform="translate(480.2016813806865 106.5) rotate(0 2 -29.5)" stroke="none"><path fill="#1c1c1c" d="M 0.00,0.00 Q 0.00,0.00 -0.78,0.77 -1.58,1.53 -2.63,1.12 -3.69,0.70 -4.63,-2.51 -5.57,-5.73 -6.07,-7.46 -6.56,-9.19 -7.58,-15.25 -8.59,-21.31 -8.85,-25.87 -9.11,-30.43 -9.11,-34.96 -9.11,-39.5 -9.11,-44.00 -9.11,-48.50 -8.34,-51.87 -7.58,-55.25 -6.98,-56.89 -6.39,-58.54 -4.16,-59.77 -1.94,-61.00 0.02,-61.06 2.00,-61.11 3.83,-60.85 5.67,-60.59 6.84,-60.03 8.02,-59.47 10.18,-57.10 12.34,-54.72 13.69,-51.56 15.03,-48.39 15.06,-46.91 15.09,-45.42 14.00,-43.40 12.91,-41.39 7.98,-38.46 3.05,-35.53 1.45,-34.98 -0.14,-34.44 -2.45,-33.92 -4.76,-33.41 -6.67,-33.54 -8.57,-33.67 -9.29,-35.58 -10.01,-37.5 -10.00,-37.5 -10,-37.5 -9.99,-37.5 -9.99,-37.5 -9.20,-36.41 -8.42,-35.32 -6.82,-35.45 -5.23,-35.58 -3.04,-36.07 -0.85,-36.55 0.54,-37.01 1.94,-37.46 6.51,-40.03 11.08,-42.60 11.99,-44.09 12.90,-45.57 12.93,-46.58 12.96,-47.60 11.80,-50.43 10.65,-53.27 8.81,-55.39 6.97,-57.52 6.15,-57.96 5.32,-58.40 3.66,-58.64 1.99,-58.88 0.47,-58.93 -1.05,-58.99 -2.83,-58.22 -4.60,-57.45 -5.01,-56.10 -5.41,-54.74 -6.15,-51.62 -6.88,-48.49 -6.88,-43.99 -6.88,-39.5 -6.88,-35.03 -6.88,-30.56 -6.64,-26.12 -6.40,-21.68 -5.41,-15.74 -4.43,-9.80 -3.92,-8.03 -3.42,-6.26 -2.86,-3.48 -2.30,-0.70 -1.86,-0.12 -1.41,0.46 -0.71,0.22 -0.00,-0.00 0,0 L 0.00,0.00 Z"/></g><g stroke-linecap="round" transform="translate(234.20168138068652 236.5) rotate(0 84 84)"><path d="M168 84 C168 86.93, 167.85 89.87, 167.54 92.78 C167.23 95.69, 166.77 98.6, 166.16 101.46 C165.56 104.33, 164.79 107.17, 163.89 109.96 C162.98 112.74, 161.93 115.49, 160.74 118.17 C159.55 120.84, 158.21 123.47, 156.75 126 C155.28 128.53, 153.68 131.01, 151.96 133.37 C150.24 135.74, 148.38 138.03, 146.42 140.21 C144.47 142.38, 142.38 144.47, 140.21 146.42 C138.03 148.38, 135.74 150.24, 133.37 151.96 C131.01 153.68, 128.53 155.28, 126 156.75 C123.47 158.21, 120.84 159.55, 118.17 160.74 C115.49 161.93, 112.74 162.98, 109.96 163.89 C107.17 164.79, 104.33 165.56, 101.46 166.16 C98.6 166.77, 95.69 167.23, 92.78 167.54 C89.87 167.85, 86.93 168, 84 168 C81.07 168, 78.13 167.85, 75.22 167.54 C72.31 167.23, 69.4 166.77, 66.54 166.16 C63.67 165.56, 60.83 164.79, 58.04 163.89 C55.26 162.98, 52.51 161.93, 49.83 160.74 C47.16 159.55, 44.53 158.21, 42 156.75 C39.47 155.28, 36.99 153.68, 34.63 151.96 C32.26 150.24, 29.97 148.38, 27.79 146.42 C25.62 144.47, 23.53 142.38, 21.58 140.21 C19.62 138.03, 17.76 135.74, 16.04 133.37 C14.32 131.01, 12.72 128.53, 11.25 126 C9.79 123.47, 8.45 120.84, 7.26 118.17 C6.07 115.49, 5.02 112.74, 4.11 109.96 C3.21 107.17, 2.44 104.33, 1.84 101.46 C1.23 98.6, 0.77 95.69, 0.46 92.78 C0.15 89.87, 0 86.93, 0 84 C0 81.07, 0.15 78.13, 0.46 75.22 C0.77 72.31, 1.23 69.4, 1.84 66.54 C2.44 63.67, 3.21 60.83, 4.11 58.04 C5.02 55.26, 6.07 52.51, 7.26 49.83 C8.45 47.16, 9.79 44.53, 11.25 42 C12.72 39.47, 14.32 36.99, 16.04 34.63 C17.76 32.26, 19.62 29.97, 21.58 27.79 C23.53 25.62, 25.62 23.53, 27.79 21.58 C29.97 19.62, 32.26 17.76, 34.63 16.04 C36.99 14.32, 39.47 12.72, 42 11.25 C44.53 9.79, 47.16 8.45, 49.83 7.26 C52.51 6.07, 55.26 5.02, 58.04 4.11 C60.83 3.21, 63.67 2.44, 66.54 1.84 C69.4 1.23, 72.31 0.77, 75.22 0.46 C78.13 0.15, 81.07 0, 84 0 C86.93 0, 89.87 0.15, 92.78 0.46 C95.69 0.77, 98.6 1.23, 101.46 1.84 C104.33 2.44, 107.17 3.21, 109.96 4.11 C112.74 5.02, 115.49 6.07, 118.17 7.26 C120.84 8.45, 123.47 9.79, 126 11.25 C128.53 12.72, 131.01 14.32, 133.37 16.04 C135.74 17.76, 138.03 19.62, 140.21 21.58 C142.38 23.53, 144.47 25.62, 146.42 27.79 C148.38 29.97, 150.24 32.26, 151.96 34.63 C153.68 36.99, 155.28 39.47, 156.75 42 C158.21 44.53, 159.55 47.16, 160.74 49.83 C161.93 52.51, 162.98 55.26, 163.89 58.04 C164.79 60.83, 165.56 63.67, 166.16 66.54 C166.77 69.4, 167.23 72.31, 167.54 75.22 C167.85 78.13, 167.92 82.54, 168 84 C168.08 85.46, 168.08 82.54, 168 84" stroke="#1c1c1c" stroke-width="0.5" fill="none"/></g><g transform="translate(286.7016813806865 293) rotate(0 27 34.5)" stroke="none"><path fill="#1c1c1c" d="M 0.00,-0.00 Q 0.00,-0.00 1.98,2.47 3.97,4.96 5.65,6.86 7.33,8.76 9.33,11.01 11.33,13.26 14.09,16.52 16.84,19.78 22.07,25.25 27.30,30.73 29.33,33.26 31.37,35.80 36.38,42.57 41.39,49.33 44.39,53.33 47.39,57.33 49.41,60.35 51.42,63.38 52.01,64.75 52.61,66.13 53.30,67.56 54.00,68.99 54.00,68.99 54,69 53.99,69.00 53.99,69.00 52.69,67.93 51.38,66.86 50.48,65.74 49.57,64.61 47.58,61.64 45.60,58.66 42.60,54.66 39.60,50.66 34.61,43.92 29.62,37.19 27.66,34.73 25.69,32.26 20.42,26.74 15.15,21.21 12.40,17.97 9.66,14.73 7.66,12.48 5.66,10.23 3.84,8.13 2.02,6.03 1.01,3.02 -0.00,0.00 0,0 L 0.00,-0.00 Z"/></g><g transform="translate(289.7016813806865 370.5) rotate(0 26.75 -47.5)" stroke="none"><path fill="#1c1c1c" d="M -0.00,-0.00 Q -0.00,-0.00 0.23,-1.97 0.48,-3.93 1.46,-6.65 2.45,-9.37 4.19,-15.34 5.93,-21.31 7.44,-25.59 8.95,-29.87 13.72,-39.43 18.50,-48.99 22.52,-55.54 26.55,-62.08 31.08,-67.88 35.62,-73.68 40.12,-79.43 44.62,-85.18 49.05,-90.09 53.49,-95.00 53.49,-95.00 53.5,-95 53.50,-94.99 53.50,-94.99 49.94,-89.40 46.37,-83.81 41.87,-78.06 37.37,-72.31 32.91,-66.61 28.44,-60.91 24.47,-54.45 20.49,-48.00 15.77,-38.56 11.04,-29.12 9.55,-24.90 8.06,-20.68 6.30,-14.65 4.54,-8.62 3.53,-5.84 2.51,-3.06 1.26,-1.52 0.00,0.00 0,0 L -0.00,-0.00 Z"/></g><g transform="translate(411.7016813806865 234.5) rotate(0 -3.75 -26.25)" stroke="none"><path fill="#ff0000" d="M 0.27,0.69 Q 0.27,0.69 -0.98,1.18 -2.25,1.67 -2.88,1.75 -3.51,1.84 -4.39,1.59 -5.28,1.35 -6.77,0.82 -8.26,0.29 -9.99,-0.22 -11.71,-0.74 -13.78,-1.79 -15.85,-2.84 -18.20,-5.69 -20.56,-8.54 -21.84,-10.85 -23.12,-13.16 -23.65,-16.02 -24.18,-18.87 -24.43,-24.17 -24.68,-29.47 -23.91,-32.81 -23.15,-36.15 -22.14,-39.42 -21.13,-42.69 -19.59,-45.52 -18.05,-48.35 -14.19,-50.71 -10.32,-53.07 -7.72,-53.61 -5.12,-54.14 -2.55,-54.15 0.02,-54.15 2.90,-52.87 5.78,-51.58 9.13,-48.01 12.49,-44.43 14.30,-40.09 16.10,-35.74 16.63,-32.16 17.15,-28.58 16.64,-25.97 16.14,-23.36 13.82,-21.05 11.5,-18.74 11.38,-18.76 11.26,-18.78 11.15,-18.84 11.04,-18.90 10.96,-18.99 10.87,-19.07 10.82,-19.18 10.77,-19.29 10.76,-19.41 10.75,-19.54 10.77,-19.65 10.80,-19.77 10.86,-19.88 10.92,-19.98 11.02,-20.06 11.11,-20.14 11.22,-20.18 11.33,-20.23 11.45,-20.23 11.58,-20.24 11.69,-20.21 11.81,-20.18 11.91,-20.11 12.01,-20.04 12.08,-19.94 12.16,-19.85 12.20,-19.73 12.24,-19.62 12.24,-19.49 12.24,-19.37 12.20,-19.26 12.16,-19.14 12.08,-19.05 12.01,-18.95 11.91,-18.88 11.81,-18.81 11.69,-18.78 11.58,-18.75 11.45,-18.76 11.33,-18.76 11.22,-18.81 11.11,-18.85 11.02,-18.93 10.92,-19.01 10.86,-19.11 10.80,-19.22 10.77,-19.34 10.75,-19.45 10.76,-19.58 10.77,-19.70 10.82,-19.81 10.87,-19.92 10.96,-20.00 11.04,-20.09 11.15,-20.15 11.26,-20.21 11.38,-20.23 11.50,-20.25 11.50,-20.25 11.5,-20.25 13.17,-21.94 14.85,-23.63 15.35,-26.02 15.84,-28.41 15.36,-31.83 14.89,-35.25 13.19,-39.40 11.50,-43.56 8.36,-46.98 5.21,-50.41 2.59,-51.62 -0.02,-52.84 -2.44,-52.84 -4.87,-52.85 -7.27,-52.38 -9.67,-51.92 -13.30,-49.78 -16.94,-47.64 -18.40,-44.97 -19.86,-42.30 -20.85,-39.07 -21.84,-35.84 -22.58,-32.68 -23.31,-29.52 -23.06,-24.32 -22.81,-19.12 -22.34,-16.47 -21.87,-13.83 -20.65,-11.64 -19.43,-9.45 -17.29,-6.80 -15.14,-4.15 -13.21,-3.20 -11.28,-2.25 -9.50,-1.77 -7.73,-1.29 -6.22,-0.82 -4.71,-0.35 -3.73,-0.01 -2.74,0.32 -1.51,-0.18 -0.27,-0.69 -0.19,-0.71 -0.10,-0.74 -0.01,-0.74 0.07,-0.74 0.16,-0.72 0.25,-0.70 0.33,-0.66 0.41,-0.62 0.48,-0.56 0.55,-0.50 0.60,-0.43 0.65,-0.35 0.68,-0.27 0.72,-0.19 0.73,-0.10 0.74,-0.01 0.73,0.07 0.72,0.16 0.69,0.25 0.66,0.33 0.61,0.41 0.56,0.48 0.50,0.54 0.43,0.60 0.35,0.65 0.27,0.69 0.27,0.69 L 0.27,0.69 Z"/></g><g transform="translate(414.2016813806865 215) rotate(0 10.75 4.5)" stroke="none"><path fill="#ff0000" d="M 0.56,-0.72 Q 0.56,-0.72 2.79,1.05 5.02,2.82 6.76,4.36 8.51,5.89 10.02,7.42 11.53,8.96 12.55,10.25 13.57,11.54 14.58,13.07 15.59,14.60 16.11,15.34 16.63,16.07 16.67,16.15 16.71,16.24 16.73,16.33 16.76,16.42 16.75,16.51 16.75,16.60 16.73,16.69 16.71,16.78 16.66,16.86 16.62,16.94 16.55,17.01 16.49,17.08 16.42,17.13 16.34,17.18 16.25,17.21 16.17,17.24 16.07,17.25 15.98,17.26 15.89,17.25 15.80,17.23 15.71,17.20 15.63,17.17 15.55,17.11 15.48,17.06 15.42,16.99 15.36,16.92 15.26,16.21 15.16,15.5 15.13,14.75 15.09,14.01 14.84,13.39 14.59,12.78 14.59,11.64 14.59,10.49 14.88,9.16 15.18,7.83 15.44,5.62 15.71,3.40 16.25,1.83 16.78,0.26 17.81,-1.78 18.85,-3.82 19.88,-5.35 20.91,-6.89 21.50,-7.51 22.09,-8.14 22.63,-8.23 23.18,-8.31 23.73,-7.90 24.27,-7.49 23.88,-6.19 23.5,-4.88 22.66,-5.44 21.83,-6 22.41,-5.64 23,-5.28 21.50,-5.33 20.00,-5.39 19.12,-5.20 18.24,-5.02 16.96,-4.81 15.69,-4.60 14.05,-3.68 12.41,-2.76 9.88,-1.52 7.35,-0.29 5.31,0.45 3.26,1.20 1.30,2.17 -0.66,3.14 -1.14,3.69 -1.62,4.24 -1.72,4.27 -1.81,4.30 -1.91,4.31 -2.01,4.32 -2.11,4.31 -2.21,4.30 -2.30,4.26 -2.40,4.22 -2.48,4.16 -2.56,4.11 -2.62,4.03 -2.69,3.95 -2.73,3.86 -2.78,3.77 -2.80,3.68 -2.82,3.58 -2.82,3.48 -2.82,3.38 -2.79,3.28 -2.77,3.19 -2.72,3.10 -2.67,3.01 -2.60,2.94 -2.53,2.86 -2.45,2.81 -2.37,2.75 -1.64,1.37 -0.91,0 -0.90,-0.11 -0.89,-0.22 -0.85,-0.32 -0.81,-0.42 -0.75,-0.51 -0.68,-0.60 -0.60,-0.68 -0.52,-0.75 -0.42,-0.80 -0.32,-0.85 -0.21,-0.88 -0.11,-0.91 0.00,-0.91 0.11,-0.91 0.21,-0.88 0.32,-0.85 0.42,-0.80 0.52,-0.75 0.60,-0.68 0.68,-0.60 0.75,-0.51 0.81,-0.42 0.85,-0.32 0.89,-0.21 0.90,-0.10 0.91,0.00 0.78,0.32 0.64,0.65 0.52,0.73 0.40,0.82 0.26,0.86 0.12,0.91 -0.02,0.90 -0.17,0.90 -0.31,0.85 -0.45,0.79 -0.57,0.70 -0.68,0.61 -0.76,0.48 -0.84,0.36 -0.88,0.21 -0.91,0.07 -0.90,-0.07 -0.89,-0.22 -0.83,-0.36 -0.77,-0.49 -0.67,-0.60 -0.57,-0.71 -0.44,-0.79 -0.31,-0.86 -0.16,-0.89 -0.02,-0.91 0.12,-0.89 0.27,-0.87 0.40,-0.81 0.53,-0.74 0.64,-0.63 0.74,-0.53 0.81,-0.40 0.87,-0.26 0.89,-0.11 0.91,0.02 0.89,0.17 0.86,0.32 0.78,0.44 0.71,0.57 0.60,0.67 0.49,0.77 0.35,0.83 0.21,0.89 0.07,0.90 -0.07,0.91 -0.22,0.87 -0.36,0.84 -0.49,0.76 -0.61,0.68 -0.70,0.56 -0.80,0.44 -0.85,0.30 -0.90,0.17 -0.90,0.02 -0.91,-0.12 -0.86,-0.26 -0.82,-0.41 -0.87,-0.20 -0.91,0.00 -0.90,-0.10 -0.89,-0.21 -0.85,-0.32 -0.81,-0.42 -0.75,-0.51 -0.68,-0.60 -0.60,-0.68 -0.52,-0.75 -0.42,-0.80 -0.32,-0.85 -0.21,-0.88 -0.11,-0.91 -0.00,-0.91 0.11,-0.91 0.21,-0.88 0.32,-0.85 0.42,-0.80 0.52,-0.75 0.60,-0.68 0.68,-0.60 0.75,-0.51 0.81,-0.42 0.85,-0.32 0.89,-0.22 0.90,-0.11 0.91,0 -0.13,1.51 -1.19,3.03 -1.41,3.64 -1.62,4.24 -1.72,4.27 -1.81,4.30 -1.91,4.31 -2.01,4.32 -2.11,4.31 -2.21,4.30 -2.30,4.26 -2.40,4.22 -2.48,4.16 -2.56,4.11 -2.62,4.03 -2.69,3.95 -2.73,3.86 -2.78,3.77 -2.80,3.68 -2.82,3.58 -2.82,3.48 -2.82,3.38 -2.79,3.28 -2.77,3.19 -2.72,3.10 -2.67,3.01 -2.60,2.94 -2.53,2.86 -2.45,2.81 -2.37,2.75 -1.85,2.30 -1.33,1.85 0.69,0.82 2.73,-0.20 4.68,-0.95 6.64,-1.70 9.11,-2.97 11.58,-4.23 13.44,-5.31 15.30,-6.39 16.53,-6.68 17.75,-6.97 18.87,-7.29 19.99,-7.60 21.49,-7.66 23,-7.71 23.58,-6.85 24.16,-6 23.53,-6.42 22.90,-6.85 22.49,-6.48 22.08,-6.10 21.11,-4.64 20.14,-3.17 19.18,-1.21 18.21,0.73 17.74,2.16 17.28,3.59 17.05,5.87 16.81,8.16 16.61,9.33 16.40,10.50 16.40,11.35 16.40,12.21 16.65,13.10 16.90,13.98 16.76,15.03 16.63,16.07 16.67,16.15 16.71,16.24 16.73,16.33 16.76,16.42 16.75,16.51 16.75,16.60 16.73,16.69 16.71,16.78 16.66,16.86 16.62,16.94 16.55,17.01 16.49,17.08 16.42,17.13 16.34,17.18 16.25,17.21 16.17,17.24 16.07,17.25 15.98,17.26 15.89,17.25 15.80,17.23 15.71,17.20 15.63,17.17 15.55,17.11 15.48,17.06 15.42,16.99 15.36,16.92 14.88,16.15 14.40,15.39 13.41,13.92 12.42,12.45 11.44,11.24 10.46,10.03 8.97,8.57 7.48,7.10 5.73,5.63 3.97,4.17 1.70,2.44 -0.56,0.72 -0.64,0.64 -0.72,0.56 -0.77,0.47 -0.83,0.38 -0.87,0.27 -0.90,0.16 -0.91,0.05 -0.91,-0.05 -0.89,-0.16 -0.87,-0.27 -0.83,-0.37 -0.78,-0.47 -0.72,-0.56 -0.65,-0.64 -0.56,-0.71 -0.47,-0.78 -0.37,-0.83 -0.27,-0.87 -0.16,-0.89 -0.05,-0.91 0.05,-0.91 0.16,-0.90 0.26,-0.87 0.37,-0.84 0.46,-0.78 0.56,-0.72 0.56,-0.72 L 0.56,-0.72 Z"/></g><g stroke-linecap="round"><g transform="translate(368.76167994803654 387.57273657909616) rotate(0 85.29434553025436 85.29434553025436)"><path d="M0 0 C28.43 28.43, 142.16 142.16, 170.59 170.59 M0 0 C28.43 28.43, 142.16 142.16, 170.59 170.59" stroke="#1c1c1c" stroke-width="0.5" fill="none"/></g></g><mask/><g stroke-linecap="round"><g transform="translate(80.12849380768216 573.9966647844623) rotate(0 6.837943312552056 61.181598059676105)"><path d="M0 0 C-11.4 19.07, -82.06 94.05, -68.38 114.45 C-54.7 134.84, 70.66 141.44, 82.06 122.36 C93.45 103.29, 13.68 20.39, 0 0 M0 0 C-11.4 19.07, -82.06 94.05, -68.38 114.45 C-54.7 134.84, 70.66 141.44, 82.06 122.36 C93.45 103.29, 13.68 20.39, 0 0" stroke="#1c1c1c" stroke-width="0.5" fill="none"/></g></g><mask/><g stroke-linecap="round"><g transform="translate(546.2843394825475 565.201547530778) rotate(0 -0.719783506584406 72.33824241173471)"><path d="M0 0 C-13.32 24.11, -92.97 120.56, -79.9 144.68 C-66.82 168.79, 65.14 168.79, 78.46 144.68 C91.77 120.56, 13.08 24.11, 0 0 M0 0 C-13.32 24.11, -92.97 120.56, -79.9 144.68 C-66.82 168.79, 65.14 168.79, 78.46 144.68 C91.77 120.56, 13.08 24.11, 0 0" stroke="#1c1c1c" stroke-width="0.5" fill="none"/></g></g><mask/><g transform="translate(56.015746337104076 684.4834330451713) rotate(0 22.673180457409387 -19.79404643107165)" stroke="none"><path fill="#1c1c1c" d="M 0.96,0.32 Q 0.96,0.32 0.63,1.59 0.30,2.86 0.16,3.19 0.01,3.52 -0.04,3.66 -0.11,3.79 -0.21,3.91 -0.30,4.03 -0.42,4.12 -0.54,4.21 -0.68,4.27 -0.82,4.33 -0.97,4.35 -1.12,4.38 -1.27,4.37 -1.43,4.35 -1.57,4.31 -1.71,4.26 -1.84,4.18 -1.97,4.10 -2.08,3.99 -2.18,3.88 -2.26,3.75 -2.33,3.61 -2.38,3.47 -2.42,3.32 -2.42,3.17 -2.43,3.02 -2.40,2.87 -2.37,2.72 -2.26,1.93 -2.15,1.14 -2.10,-1.22 -2.05,-3.60 -1.83,-7.76 -1.61,-11.93 -1.52,-17.19 -1.44,-22.45 -0.58,-28.91 0.27,-35.37 1.73,-39.30 3.18,-43.22 5.28,-45.09 7.38,-46.97 9.82,-47.13 12.26,-47.29 15.12,-45.36 17.97,-43.42 20.80,-40.50 23.64,-37.59 26.52,-33.84 29.40,-30.10 32.10,-25.34 34.80,-20.59 37.40,-15.03 40.00,-9.48 41.73,-5.02 43.47,-0.57 44.39,1.69 45.32,3.97 46.07,5.74 46.81,7.52 46.86,7.62 46.90,7.71 46.91,7.82 46.93,7.92 46.90,8.03 46.88,8.13 46.83,8.22 46.77,8.31 46.69,8.38 46.61,8.45 46.52,8.49 46.42,8.53 46.31,8.54 46.20,8.54 46.10,8.52 46.00,8.49 45.91,8.43 45.82,8.37 45.76,8.29 45.69,8.20 45.66,8.10 45.62,8.00 45.62,7.90 45.62,7.79 45.66,7.69 45.69,7.59 45.75,7.50 45.82,7.42 45.90,7.36 45.99,7.30 46.09,7.27 46.20,7.24 46.30,7.24 46.41,7.25 46.51,7.29 46.61,7.33 46.69,7.39 46.77,7.46 46.82,7.55 46.88,7.64 46.90,7.75 46.93,7.85 46.92,7.96 46.91,8.06 46.86,8.16 46.82,8.26 46.74,8.33 46.67,8.41 46.58,8.46 46.48,8.51 46.38,8.53 46.28,8.55 46.17,8.53 46.07,8.52 45.97,8.47 45.88,8.42 45.80,8.34 45.73,8.26 45.73,8.26 45.73,8.26 44.16,6.68 42.60,5.10 41.65,2.79 40.71,0.49 39.01,-3.86 37.32,-8.23 34.77,-13.68 32.23,-19.13 29.64,-23.73 27.06,-28.32 24.31,-31.97 21.56,-35.61 18.95,-38.40 16.33,-41.18 14.15,-42.92 11.98,-44.67 10.38,-44.72 8.77,-44.76 7.19,-43.45 5.61,-42.14 4.26,-38.57 2.91,-35.00 2.03,-28.70 1.15,-22.40 1.04,-17.09 0.93,-11.79 0.69,-7.67 0.45,-3.54 0.38,-1.01 0.32,1.50 0.17,2.51 0.01,3.52 -0.04,3.66 -0.11,3.79 -0.21,3.91 -0.30,4.03 -0.42,4.12 -0.54,4.21 -0.68,4.27 -0.82,4.33 -0.97,4.35 -1.12,4.38 -1.27,4.37 -1.43,4.35 -1.57,4.31 -1.71,4.26 -1.84,4.18 -1.97,4.10 -2.08,3.99 -2.18,3.88 -2.26,3.75 -2.33,3.61 -2.38,3.47 -2.42,3.32 -2.42,3.17 -2.43,3.02 -2.40,2.87 -2.37,2.72 -2.16,2.41 -1.96,2.10 -1.46,0.88 -0.96,-0.32 -0.91,-0.43 -0.85,-0.54 -0.78,-0.63 -0.70,-0.73 -0.60,-0.80 -0.50,-0.88 -0.39,-0.92 -0.28,-0.97 -0.16,-0.99 -0.04,-1.01 0.08,-1.00 0.20,-0.99 0.31,-0.95 0.43,-0.91 0.53,-0.85 0.64,-0.78 0.72,-0.69 0.81,-0.61 0.87,-0.50 0.93,-0.39 0.96,-0.28 1.00,-0.16 1.00,-0.04 1.01,0.08 0.98,0.20 0.96,0.32 0.96,0.32 L 0.96,0.32 Z"/></g><g transform="translate(46.65856075150657 675.8460309661582) rotate(0 28.071556756792575 -12.596211365227418)" stroke="none"><path fill="#1c1c1c" d="M -0.50,-1.12 Q -0.50,-1.12 5.46,-3.89 11.42,-6.66 16.24,-8.85 21.06,-11.04 25.39,-13.00 29.71,-14.96 37.17,-18.22 44.63,-21.47 47.92,-22.59 51.20,-23.70 51.31,-23.73 51.41,-23.76 51.52,-23.75 51.62,-23.74 51.72,-23.70 51.82,-23.66 51.90,-23.59 51.98,-23.52 52.03,-23.43 52.09,-23.34 52.11,-23.23 52.13,-23.13 52.12,-23.03 52.10,-22.92 52.06,-22.82 52.01,-22.73 51.94,-22.65 51.86,-22.58 51.77,-22.53 51.67,-22.48 51.57,-22.46 51.46,-22.45 51.36,-22.47 51.25,-22.48 51.16,-22.54 51.07,-22.59 51.00,-22.66 50.92,-22.74 50.88,-22.84 50.84,-22.94 50.83,-23.04 50.82,-23.15 50.84,-23.25 50.87,-23.36 50.92,-23.45 50.98,-23.54 51.06,-23.60 51.14,-23.67 51.24,-23.71 51.34,-23.75 51.45,-23.75 51.55,-23.76 51.65,-23.73 51.76,-23.70 51.84,-23.64 51.93,-23.57 51.99,-23.49 52.06,-23.40 52.09,-23.30 52.12,-23.20 52.12,-23.10 52.12,-22.99 52.08,-22.89 52.05,-22.79 51.98,-22.70 51.92,-22.62 51.83,-22.56 51.74,-22.50 51.74,-22.50 51.74,-22.50 48.71,-20.80 45.69,-19.10 38.30,-15.72 30.90,-12.34 26.57,-10.38 22.24,-8.42 17.41,-6.26 12.57,-4.09 6.54,-1.48 0.50,1.12 0.36,1.16 0.22,1.21 0.07,1.22 -0.07,1.23 -0.22,1.20 -0.36,1.17 -0.50,1.11 -0.63,1.05 -0.75,0.96 -0.87,0.87 -0.96,0.75 -1.05,0.63 -1.11,0.50 -1.17,0.36 -1.20,0.21 -1.23,0.07 -1.22,-0.07 -1.21,-0.22 -1.16,-0.36 -1.12,-0.50 -1.04,-0.63 -0.96,-0.76 -0.86,-0.86 -0.75,-0.97 -0.63,-1.04 -0.50,-1.12 -0.50,-1.12 L -0.50,-1.12 Z"/></g><g transform="translate(546.2226494693268 674.214413630089) rotate(0 7.917618572428694 -17.274804158026143)" stroke="none"><path fill="#1c1c1c" d="M 0,0.86 Q 0,0.86 -0.84,1.00 -1.68,1.13 -2.50,0.88 -3.33,0.63 -4.64,-1.31 -5.95,-3.25 -7.66,-6.51 -9.38,-9.77 -10.56,-13.08 -11.75,-16.40 -12.28,-19.53 -12.82,-22.66 -13.05,-25.67 -13.27,-28.68 -12.51,-31.79 -11.76,-34.90 -11.00,-36.84 -10.25,-38.78 -9.24,-40.22 -8.24,-41.67 -6.28,-41.93 -4.32,-42.19 -2.89,-41.31 -1.47,-40.43 -0.08,-38.99 1.29,-37.54 2.90,-35.68 4.51,-33.82 5.52,-30.94 6.53,-28.07 6.52,-25.63 6.51,-23.20 5.51,-21.48 4.52,-19.76 1.19,-18.33 -2.14,-16.90 -3.68,-16.38 -5.21,-15.87 -6.71,-15.43 -8.20,-14.98 -9.24,-14.59 -10.27,-14.20 -10.46,-14.17 -10.64,-14.14 -10.82,-14.16 -11.01,-14.17 -11.19,-14.23 -11.36,-14.29 -11.52,-14.39 -11.67,-14.49 -11.80,-14.63 -11.93,-14.76 -12.02,-14.92 -12.11,-15.08 -12.17,-15.26 -12.22,-15.44 -12.22,-15.62 -12.23,-15.81 -12.19,-15.99 -12.16,-16.17 -12.08,-16.34 -12.00,-16.51 -11.88,-16.65 -11.76,-16.79 -11.61,-16.90 -11.46,-17.01 -11.29,-17.09 -11.12,-17.16 -10.37,-16.89 -9.61,-16.61 -6.41,-16.90 -3.21,-17.18 -0.43,-17.24 2.35,-17.30 5.65,-17.11 8.96,-16.93 11.24,-16.64 13.52,-16.34 17.19,-14.48 20.86,-12.61 23.36,-10.02 25.86,-7.42 26.57,-4.95 27.27,-2.47 26.42,-0.34 25.57,1.78 23.60,3.57 21.62,5.36 18.79,6.56 15.96,7.76 12.60,8.26 9.23,8.75 5.91,8.71 2.58,8.67 -0.22,8.40 -3.04,8.13 -3.20,8.11 -3.36,8.09 -3.51,8.04 -3.66,7.98 -3.80,7.89 -3.93,7.79 -4.04,7.67 -4.14,7.55 -4.22,7.40 -4.29,7.26 -4.33,7.10 -4.37,6.94 -4.37,6.78 -4.37,6.62 -4.33,6.46 -4.29,6.30 -4.21,6.16 -4.14,6.02 -4.03,5.90 -3.92,5.77 -3.79,5.68 -3.65,5.59 -3.50,5.53 -3.35,5.48 -3.19,5.46 -3.03,5.44 -2.46,4.03 -1.88,2.61 -1.83,2.52 -1.77,2.44 -1.68,2.37 -1.60,2.31 -1.50,2.27 -1.40,2.24 -1.29,2.23 -1.19,2.23 -1.09,2.26 -0.99,2.30 -0.90,2.36 -0.81,2.42 -0.75,2.51 -0.69,2.60 -0.66,2.70 -0.63,2.80 -0.64,2.91 -0.64,3.01 -0.68,3.11 -0.72,3.21 -0.79,3.29 -0.85,3.38 -0.94,3.43 -1.03,3.49 -1.14,3.51 -1.24,3.54 -1.35,3.53 -1.45,3.52 -1.55,3.47 -1.65,3.43 -1.72,3.36 -1.80,3.29 -1.85,3.19 -1.90,3.10 -1.92,2.99 -1.94,2.89 -1.93,2.79 -1.91,2.68 -1.86,2.59 -1.81,2.49 -1.74,2.42 -1.66,2.34 -1.56,2.30 -1.47,2.25 -1.36,2.24 -1.26,2.23 -1.15,2.25 -1.05,2.27 -0.96,2.32 -0.87,2.38 -0.80,2.46 -0.73,2.54 -0.69,2.63 -0.65,2.73 -0.64,2.84 -0.63,2.94 -0.66,3.05 -0.69,3.15 -0.69,3.15 -0.69,3.15 -1.86,5.64 -3.04,8.13 -3.20,8.11 -3.36,8.09 -3.51,8.04 -3.66,7.98 -3.80,7.89 -3.93,7.79 -4.04,7.67 -4.14,7.55 -4.22,7.40 -4.29,7.26 -4.33,7.10 -4.37,6.94 -4.37,6.78 -4.37,6.62 -4.33,6.46 -4.29,6.30 -4.21,6.16 -4.14,6.02 -4.03,5.90 -3.92,5.77 -3.79,5.68 -3.65,5.59 -3.50,5.53 -3.35,5.48 -3.19,5.46 -3.03,5.44 -0.21,5.59 2.60,5.75 5.70,5.74 8.81,5.73 11.81,5.31 14.81,4.89 17.23,3.94 19.64,3.00 21.24,1.69 22.84,0.38 23.59,-0.89 24.34,-2.17 23.93,-3.81 23.53,-5.46 21.46,-7.68 19.39,-9.90 16.23,-11.59 13.06,-13.28 10.92,-13.56 8.78,-13.83 5.60,-14.01 2.41,-14.19 -0.33,-14.13 -3.09,-14.08 -6.68,-14.14 -10.27,-14.20 -10.46,-14.17 -10.64,-14.14 -10.82,-14.16 -11.01,-14.17 -11.18,-14.23 -11.36,-14.29 -11.52,-14.39 -11.67,-14.49 -11.80,-14.63 -11.93,-14.76 -12.02,-14.92 -12.11,-15.08 -12.17,-15.26 -12.22,-15.44 -12.22,-15.62 -12.23,-15.81 -12.19,-15.99 -12.16,-16.17 -12.08,-16.34 -12.00,-16.51 -11.88,-16.65 -11.76,-16.79 -11.61,-16.90 -11.46,-17.01 -11.29,-17.09 -11.12,-17.16 -10.08,-17.54 -9.05,-17.92 -7.61,-18.32 -6.17,-18.72 -4.70,-19.21 -3.23,-19.71 -0.47,-20.65 2.29,-21.59 2.98,-22.53 3.68,-23.47 3.75,-25.35 3.81,-27.22 3.07,-29.62 2.32,-32.03 0.77,-33.81 -0.77,-35.60 -1.95,-36.89 -3.13,-38.18 -3.85,-38.87 -4.57,-39.56 -5.71,-39.63 -6.85,-39.70 -7.29,-38.74 -7.73,-37.78 -8.43,-36.01 -9.13,-34.23 -9.86,-31.53 -10.59,-28.83 -10.40,-25.95 -10.22,-23.08 -9.79,-20.15 -9.36,-17.22 -8.28,-14.07 -7.20,-10.92 -5.52,-7.73 -3.85,-4.54 -2.74,-2.83 -1.63,-1.13 -0.81,-1.00 0,-0.86 0.10,-0.85 0.20,-0.84 0.30,-0.80 0.40,-0.76 0.48,-0.70 0.57,-0.64 0.64,-0.57 0.71,-0.49 0.76,-0.39 0.81,-0.30 0.83,-0.20 0.86,-0.10 0.86,0.00 0.86,0.10 0.83,0.20 0.81,0.30 0.76,0.39 0.71,0.49 0.64,0.57 0.57,0.64 0.48,0.70 0.40,0.76 0.30,0.80 0.20,0.84 0.10,0.85 -0.00,0.86 -0.00,0.86 L 0,0.86 Z"/></g><g transform="translate(644.7986547231637 276.36618481180244) rotate(0 -4.678592792798838 32.75014954959133)" stroke="none"><path fill="#1c1c1c" d="M 0.75,0.37 Q 0.75,0.37 0.44,1.26 0.14,2.14 -0.45,3.03 -1.05,3.92 -2.53,5.59 -4.01,7.25 -8.22,10.33 -12.44,13.41 -16.86,16.73 -21.29,20.06 -25.80,24.31 -30.31,28.57 -33.36,33.34 -36.41,38.12 -37.06,42.68 -37.70,47.24 -34.64,51.38 -31.58,55.52 -25.96,57.85 -20.34,60.19 -13.29,61.01 -6.23,61.84 -0.97,61.80 4.28,61.76 10.40,60.93 16.51,60.11 21.27,59.81 26.03,59.51 28.06,59.77 30.10,60.03 30.20,60.04 30.31,60.05 30.41,60.09 30.50,60.13 30.58,60.20 30.66,60.27 30.71,60.37 30.76,60.46 30.78,60.56 30.80,60.67 30.79,60.77 30.77,60.88 30.72,60.97 30.68,61.07 30.60,61.14 30.53,61.22 30.43,61.26 30.34,61.31 30.23,61.32 30.12,61.34 30.02,61.32 29.92,61.30 29.82,61.24 29.73,61.19 29.66,61.11 29.59,61.03 29.55,60.93 29.51,60.84 29.50,60.73 29.49,60.63 29.52,60.52 29.54,60.42 29.60,60.33 29.66,60.24 29.74,60.17 29.83,60.11 29.93,60.07 30.03,60.04 30.13,60.03 30.24,60.03 30.34,60.06 30.44,60.10 30.53,60.16 30.61,60.22 30.67,60.31 30.74,60.39 30.77,60.50 30.80,60.60 30.79,60.70 30.79,60.81 30.75,60.91 30.72,61.01 30.65,61.09 30.58,61.17 30.49,61.23 30.40,61.29 30.30,61.31 30.20,61.34 30.20,61.34 30.20,61.34 28.23,61.90 26.25,62.46 21.60,62.88 16.94,63.30 10.62,64.16 4.31,65.02 -1.15,65.05 -6.63,65.09 -14.12,64.13 -21.61,63.18 -27.82,60.36 -34.03,57.54 -37.38,52.46 -40.73,47.39 -39.91,41.96 -39.09,36.53 -35.76,31.44 -32.43,26.34 -27.77,21.98 -23.11,17.62 -18.63,14.31 -14.15,10.99 -10.06,8.19 -5.96,5.38 -4.46,3.91 -2.96,2.45 -2.38,1.80 -1.80,1.16 -1.27,0.39 -0.75,-0.37 -0.69,-0.45 -0.63,-0.54 -0.56,-0.61 -0.49,-0.68 -0.40,-0.73 -0.31,-0.77 -0.21,-0.80 -0.11,-0.83 -0.01,-0.83 0.08,-0.83 0.18,-0.81 0.28,-0.79 0.37,-0.74 0.46,-0.70 0.54,-0.63 0.61,-0.56 0.67,-0.48 0.73,-0.40 0.77,-0.31 0.81,-0.21 0.82,-0.11 0.83,-0.01 0.82,0.08 0.81,0.18 0.78,0.28 0.75,0.37 0.75,0.37 L 0.75,0.37 Z"/></g><g stroke-linecap="round"><g transform="translate(367.2016813806865 247.5) rotate(0 49.125 -49.12499999999999)"><path d="M0 0 C16.38 -16.37, 81.88 -81.87, 98.25 -98.25 M0 0 C16.38 -16.37, 81.88 -81.87, 98.25 -98.25" stroke="#1c1c1c" stroke-width="0.5" fill="none"/></g></g><mask/><g transform="translate(384.2016813806865 237) rotate(0 0.00005000000000165983 0.00004999999999988347)" stroke="none"><path fill="#ff0000" d="M 0.57,-0.57 Q 0.57,-0.57 0.65,-0.46 0.72,-0.36 0.76,-0.23 0.80,-0.10 0.80,0.02 0.79,0.15 0.75,0.27 0.70,0.40 0.62,0.50 0.54,0.60 0.43,0.67 0.32,0.74 0.19,0.78 0.06,0.81 -0.06,0.80 -0.19,0.79 -0.31,0.73 -0.43,0.68 -0.53,0.59 -0.63,0.51 -0.69,0.39 -0.76,0.28 -0.78,0.15 -0.81,0.02 -0.79,-0.10 -0.77,-0.23 -0.71,-0.35 -0.66,-0.47 -0.56,-0.56 -0.47,-0.66 -0.35,-0.71 -0.23,-0.77 -0.10,-0.79 0.02,-0.81 0.15,-0.78 0.28,-0.76 0.39,-0.69 0.51,-0.63 0.59,-0.53 0.68,-0.43 0.73,-0.31 0.79,-0.19 0.80,-0.06 0.81,0.06 0.78,0.19 0.74,0.32 0.67,0.43 0.60,0.54 0.50,0.62 0.40,0.70 0.27,0.75 0.15,0.80 0.02,0.80 -0.11,0.80 -0.23,0.76 -0.36,0.72 -0.46,0.65 -0.57,0.57 -0.57,0.57 -0.57,0.57 -0.63,0.49 -0.69,0.42 -0.73,0.33 -0.77,0.24 -0.79,0.14 -0.81,0.04 -0.80,-0.04 -0.80,-0.14 -0.77,-0.24 -0.74,-0.33 -0.69,-0.41 -0.64,-0.50 -0.57,-0.57 -0.50,-0.64 -0.41,-0.69 -0.33,-0.74 -0.24,-0.77 -0.14,-0.80 -0.04,-0.80 0.04,-0.81 0.14,-0.79 0.24,-0.77 0.33,-0.73 0.42,-0.69 0.49,-0.63 0.57,-0.57 0.57,-0.57 L 0.57,-0.57 Z"/></g><g stroke-linecap="round"><g transform="translate(249.99740136160642 397.64970567127807) rotate(0 -82.95504913385503 82.955049133855)"><path d="M0 0 C-27.65 27.65, -138.26 138.26, -165.91 165.91 M0 0 C-27.65 27.65, -138.26 138.26, -165.91 165.91" stroke="#1c1c1c" stroke-width="0.5" fill="none"/></g></g><mask/><g stroke-linecap="round"><g transform="translate(653.4025601320565 223.77700236197785) rotate(0 -0.719783506584406 72.33824241173471)"><path d="M0 0 C-13.32 24.11, -92.97 120.56, -79.9 144.68 C-66.82 168.79, 65.14 168.79, 78.46 144.68 C91.77 120.56, 13.08 24.11, 0 0 M0 0 C-13.32 24.11, -92.97 120.56, -79.9 144.68 C-66.82 168.79, 65.14 168.79, 78.46 144.68 C91.77 120.56, 13.08 24.11, 0 0" stroke="#1c1c1c" stroke-width="0.5" fill="none"/></g></g><mask/><g stroke-linecap="round"><g transform="translate(533.2322112025778 133.1292670015019) rotate(0 60.82170630638393 45.346360914818774)"><path d="M0 0 C20.27 15.12, 101.37 75.58, 121.64 90.69 M0 0 C20.27 15.12, 101.37 75.58, 121.64 90.69" stroke="#1c1c1c" stroke-width="0.5" fill="none"/></g></g><mask/><g stroke-linecap="round"><g transform="translate(780.1179539610356 410.24591703650555) rotate(0 134.5995157312875 2.879134026337681)"><path d="M0 0 C44.87 0.96, 224.33 4.8, 269.2 5.76 M0 0 C44.87 0.96, 224.33 4.8, 269.2 5.76" stroke="#0400ff" stroke-width="0.5" fill="none"/></g><g transform="translate(780.1179539610356 410.24591703650555) rotate(0 134.5995157312875 2.879134026337681)"><path d="M240.8 15.41 C248.63 12.75, 256.47 10.09, 269.2 5.76 M240.8 15.41 C251.56 11.75, 262.32 8.1, 269.2 5.76" stroke="#0400ff" stroke-width="0.5" fill="none"/></g><g transform="translate(780.1179539610356 410.24591703650555) rotate(0 134.5995157312875 2.879134026337681)"><path d="M241.23 -5.1 C248.95 -2.11, 256.67 0.89, 269.2 5.76 M241.23 -5.1 C251.83 -0.99, 262.43 3.13, 269.2 5.76" stroke="#0400ff" stroke-width="0.5" fill="none"/></g></g><mask/><g stroke-linecap="round" transform="translate(1288.4226522228587 18.527745903339905) rotate(0 73.99078984516234 73.99078984516234)"><path d="M147.98 73.99 C147.98 76.75, 147.83 79.53, 147.52 82.28 C147.21 85.02, 146.74 87.76, 146.13 90.46 C145.51 93.15, 144.74 95.82, 143.83 98.43 C142.92 101.03, 141.85 103.61, 140.65 106.09 C139.46 108.58, 138.11 111.02, 136.64 113.36 C135.17 115.69, 133.56 117.96, 131.84 120.12 C130.12 122.28, 128.26 124.36, 126.31 126.31 C124.36 128.26, 122.28 130.12, 120.12 131.84 C117.96 133.56, 115.69 135.17, 113.36 136.64 C111.02 138.11, 108.58 139.46, 106.09 140.65 C103.61 141.85, 101.03 142.92, 98.43 143.83 C95.82 144.74, 93.15 145.51, 90.46 146.13 C87.76 146.74, 85.02 147.21, 82.28 147.52 C79.53 147.83, 76.75 147.98, 73.99 147.98 C71.23 147.98, 68.45 147.83, 65.71 147.52 C62.96 147.21, 60.22 146.74, 57.53 146.13 C54.83 145.51, 52.16 144.74, 49.55 143.83 C46.95 142.92, 44.38 141.85, 41.89 140.65 C39.4 139.46, 36.96 138.11, 34.63 136.64 C32.29 135.17, 30.02 133.56, 27.86 131.84 C25.7 130.12, 23.62 128.26, 21.67 126.31 C19.72 124.36, 17.86 122.28, 16.14 120.12 C14.42 117.96, 12.81 115.69, 11.34 113.36 C9.87 111.02, 8.53 108.58, 7.33 106.09 C6.13 103.61, 5.06 101.03, 4.15 98.43 C3.24 95.82, 2.47 93.15, 1.86 90.46 C1.24 87.76, 0.77 85.02, 0.47 82.28 C0.16 79.53, 0 76.75, 0 73.99 C0 71.23, 0.16 68.45, 0.47 65.71 C0.77 62.96, 1.24 60.22, 1.86 57.53 C2.47 54.83, 3.24 52.16, 4.15 49.55 C5.06 46.95, 6.13 44.38, 7.33 41.89 C8.53 39.4, 9.87 36.96, 11.34 34.63 C12.81 32.29, 14.42 30.02, 16.14 27.86 C17.86 25.7, 19.72 23.62, 21.67 21.67 C23.62 19.72, 25.7 17.86, 27.86 16.14 C30.02 14.42, 32.29 12.81, 34.63 11.34 C36.96 9.87, 39.4 8.53, 41.89 7.33 C44.38 6.13, 46.95 5.06, 49.55 4.15 C52.16 3.24, 54.83 2.47, 57.53 1.86 C60.22 1.24, 62.96 0.77, 65.71 0.47 C68.45 0.16, 71.23 0, 73.99 0 C76.75 0, 79.53 0.16, 82.28 0.47 C85.02 0.77, 87.76 1.24, 90.46 1.86 C93.15 2.47, 95.82 3.24, 98.43 4.15 C101.03 5.06, 103.61 6.13, 106.09 7.33 C108.58 8.53, 111.02 9.87, 113.36 11.34 C115.69 12.81, 117.96 14.42, 120.12 16.14 C122.28 17.86, 124.36 19.72, 126.31 21.67 C128.26 23.62, 130.12 25.7, 131.84 27.86 C133.56 30.02, 135.17 32.29, 136.64 34.63 C138.11 36.96, 139.46 39.4, 140.65 41.89 C141.85 44.38, 142.92 46.95, 143.83 49.55 C144.74 52.16, 145.51 54.83, 146.13 57.53 C146.74 60.22, 147.21 62.96, 147.52 65.71 C147.83 68.45, 147.9 72.61, 147.98 73.99 C148.06 75.37, 148.06 72.61, 147.98 73.99" stroke="#1c1c1c" stroke-width="0.5" fill="none"/></g><g stroke-linecap="round" transform="translate(1557.642152623329 295.77034399786396) rotate(0 90.92844053260922 90.92844053260922)"><path d="M181.86 90.93 C181.86 93.9, 181.71 96.88, 181.42 99.84 C181.13 102.8, 180.69 105.75, 180.11 108.67 C179.53 111.58, 178.8 114.48, 177.94 117.32 C177.08 120.17, 176.07 122.98, 174.94 125.73 C173.8 128.47, 172.52 131.17, 171.12 133.79 C169.72 136.41, 168.18 138.98, 166.53 141.45 C164.88 143.92, 163.1 146.32, 161.22 148.61 C159.33 150.91, 157.33 153.12, 155.22 155.22 C153.12 157.33, 150.91 159.33, 148.61 161.22 C146.32 163.1, 143.92 164.88, 141.45 166.53 C138.98 168.18, 136.41 169.72, 133.79 171.12 C131.17 172.52, 128.47 173.8, 125.73 174.94 C122.98 176.07, 120.17 177.08, 117.32 177.94 C114.48 178.8, 111.58 179.53, 108.67 180.11 C105.75 180.69, 102.8 181.13, 99.84 181.42 C96.88 181.71, 93.9 181.86, 90.93 181.86 C87.96 181.86, 84.97 181.71, 82.02 181.42 C79.06 181.13, 76.1 180.69, 73.19 180.11 C70.28 179.53, 67.38 178.8, 64.53 177.94 C61.69 177.08, 58.88 176.07, 56.13 174.94 C53.39 173.8, 50.69 172.52, 48.07 171.12 C45.45 169.72, 42.88 168.18, 40.41 166.53 C37.94 164.88, 35.54 163.1, 33.24 161.22 C30.95 159.33, 28.73 157.33, 26.63 155.22 C24.53 153.12, 22.52 150.91, 20.64 148.61 C18.76 146.32, 16.97 143.92, 15.32 141.45 C13.67 138.98, 12.14 136.41, 10.74 133.79 C9.34 131.17, 8.06 128.47, 6.92 125.73 C5.78 122.98, 4.78 120.17, 3.92 117.32 C3.05 114.48, 2.33 111.58, 1.75 108.67 C1.17 105.75, 0.73 102.8, 0.44 99.84 C0.15 96.88, 0 93.9, 0 90.93 C0 87.96, 0.15 84.97, 0.44 82.02 C0.73 79.06, 1.17 76.1, 1.75 73.19 C2.33 70.28, 3.05 67.38, 3.92 64.53 C4.78 61.69, 5.78 58.88, 6.92 56.13 C8.06 53.39, 9.34 50.69, 10.74 48.07 C12.14 45.45, 13.67 42.88, 15.32 40.41 C16.97 37.94, 18.76 35.54, 20.64 33.24 C22.52 30.95, 24.53 28.73, 26.63 26.63 C28.73 24.53, 30.95 22.52, 33.24 20.64 C35.54 18.76, 37.94 16.97, 40.41 15.32 C42.88 13.67, 45.45 12.14, 48.07 10.74 C50.69 9.34, 53.39 8.06, 56.13 6.92 C58.88 5.78, 61.69 4.78, 64.53 3.92 C67.38 3.05, 70.28 2.33, 73.19 1.75 C76.1 1.17, 79.06 0.73, 82.02 0.44 C84.97 0.15, 87.96 0, 90.93 0 C93.9 0, 96.88 0.15, 99.84 0.44 C102.8 0.73, 105.75 1.17, 108.67 1.75 C111.58 2.33, 114.48 3.05, 117.32 3.92 C120.17 4.78, 122.98 5.78, 125.73 6.92 C128.47 8.06, 131.17 9.34, 133.79 10.74 C136.41 12.14, 138.98 13.67, 141.45 15.32 C143.92 16.97, 146.32 18.76, 148.61 20.64 C150.91 22.52, 153.12 24.53, 155.22 26.63 C157.33 28.73, 159.33 30.95, 161.22 33.24 C163.1 35.54, 164.88 37.94, 166.53 40.41 C168.18 42.88, 169.72 45.45, 171.12 48.07 C172.52 50.69, 173.8 53.39, 174.94 56.13 C176.07 58.88, 177.08 61.69, 177.94 64.53 C178.8 67.38, 179.53 70.28, 180.11 73.19 C180.69 76.1, 181.13 79.06, 181.42 82.02 C181.71 84.97, 181.78 89.44, 181.86 90.93 C181.93 92.41, 181.93 89.44, 181.86 90.93" stroke="#1c1c1c" stroke-width="0.5" fill="none"/></g><g stroke-linecap="round"><g transform="translate(1421.2494918244151 138.87421131414618) rotate(0 82.16177655236356 86.72616864220728)"><path d="M0 0 C27.39 28.91, 136.94 144.54, 164.32 173.45 M0 0 C27.39 28.91, 136.94 144.54, 164.32 173.45" stroke="#1c1c1c" stroke-width="0.5" fill="none"/></g></g><mask/><g transform="translate(1327.6466853937882 59.53468967294799) rotate(0 25.4064760311702 24.069293082161266)" stroke="none"><path fill="#1c1c1c" d="M 0.00,-0.00 Q 0.00,-0.00 22.22,20.54 44.45,41.09 47.63,44.61 50.81,48.13 50.81,48.13 50.81,48.13 50.80,48.14 50.80,48.14 46.85,45.42 42.91,42.70 21.45,21.35 -0.00,0.00 0,0 L 0.00,-0.00 Z"/></g><g transform="translate(1343.6928807818956 116.58782883066357) rotate(0 13.371829490089567 -24.069293082161266)" stroke="none"><path fill="#1c1c1c" d="M -0.00,-0.00 Q -0.00,-0.00 2.26,-3.05 4.54,-6.10 5.32,-8.16 6.09,-10.21 9.67,-17.82 13.25,-25.43 18.79,-35.61 24.32,-45.79 25.53,-46.96 26.73,-48.14 26.73,-48.14 26.74,-48.13 26.74,-48.13 26.75,-48.13 26.17,-46.63 25.59,-45.13 20.43,-34.80 15.27,-24.48 11.71,-16.93 8.16,-9.39 7.15,-6.99 6.15,-4.59 3.08,-2.29 0.00,0.00 0,0 L -0.00,-0.00 Z"/></g><g transform="translate(1630.7414871691522 416.1168094086703) rotate(0 13.817557139759174 -30.309480177536386)" stroke="none"><path fill="#1c1c1c" d="M -0.00,0.00 Q -0.00,0.00 -2.33,0.05 -4.66,0.09 -5.75,-0.39 -6.83,-0.88 -8.37,-3.76 -9.91,-6.63 -11.27,-10.72 -12.64,-14.81 -13.11,-22.10 -13.58,-29.38 -10.87,-36.74 -8.16,-44.09 -4.94,-47.82 -1.73,-51.54 1.44,-54.71 4.61,-57.87 10.62,-59.78 16.64,-61.68 21.74,-61.26 26.85,-60.83 30.57,-59.45 34.30,-58.07 36.72,-55.70 39.14,-53.33 40.16,-50.42 41.17,-47.51 40.25,-43.17 39.32,-38.83 35.15,-35.46 30.98,-32.09 25.05,-29.79 19.12,-27.48 11.04,-25.23 2.97,-22.99 0.23,-22.53 -2.50,-22.07 -6.06,-22.54 -9.62,-23.01 -9.75,-23.00 -9.88,-23.00 -10.01,-23.02 -10.14,-23.05 -10.25,-23.10 -10.37,-23.16 -10.47,-23.24 -10.57,-23.32 -10.65,-23.42 -10.73,-23.53 -10.78,-23.64 -10.83,-23.76 -10.85,-23.89 -10.87,-24.02 -10.86,-24.15 -10.85,-24.27 -10.81,-24.40 -10.77,-24.52 -10.70,-24.63 -10.63,-24.74 -10.54,-24.83 -10.45,-24.92 -10.34,-24.98 -10.22,-25.05 -10.10,-25.08 -9.98,-25.12 -9.00,-26.82 -8.03,-28.53 -8.02,-28.52 -8.02,-28.52 -8.01,-28.52 -8.01,-28.52 -8.82,-25.76 -9.62,-23.01 -9.75,-23.00 -9.88,-23.00 -10.01,-23.02 -10.14,-23.05 -10.25,-23.10 -10.37,-23.16 -10.47,-23.24 -10.57,-23.32 -10.65,-23.42 -10.73,-23.52 -10.78,-23.64 -10.83,-23.76 -10.85,-23.89 -10.87,-24.02 -10.86,-24.15 -10.85,-24.27 -10.81,-24.40 -10.77,-24.52 -10.70,-24.63 -10.63,-24.74 -10.54,-24.83 -10.45,-24.92 -10.34,-24.98 -10.22,-25.05 -10.10,-25.08 -9.98,-25.12 -6.41,-24.70 -2.84,-24.27 -0.23,-24.71 2.37,-25.14 10.34,-27.35 18.32,-29.56 23.97,-31.71 29.63,-33.87 33.48,-36.74 37.33,-39.61 38.19,-43.29 39.05,-46.97 38.28,-49.41 37.51,-51.85 35.48,-53.94 33.44,-56.03 30.04,-57.32 26.63,-58.61 21.93,-59.08 17.23,-59.54 11.65,-57.89 6.08,-56.23 3.01,-53.15 -0.05,-50.07 -3.07,-46.67 -6.10,-43.26 -8.73,-36.35 -11.37,-29.44 -10.95,-22.47 -10.53,-15.49 -9.22,-11.56 -7.91,-7.62 -6.78,-5.15 -5.64,-2.67 -4.94,-2.27 -4.24,-1.88 -2.12,-0.94 0.00,-0.00 0,0 L -0.00,0.00 Z"/></g><g transform="translate(1166.293276213374 303.7934416919178) rotate(0 27.18938662984874 -19.16628893579508)" stroke="none"><path fill="#1c1c1c" d="M 0.00,0.00 Q 0.00,0.00 -0.27,0.61 -0.55,1.22 -0.60,1.26 -0.64,1.29 -0.69,1.32 -0.74,1.34 -0.80,1.35 -0.86,1.36 -0.91,1.36 -0.97,1.35 -1.03,1.34 -1.08,1.32 -1.13,1.29 -1.18,1.26 -1.22,1.22 -1.26,1.18 -1.29,1.13 -1.32,1.08 -1.34,1.03 -1.35,0.97 -1.36,0.91 -1.36,0.86 -1.35,0.80 -1.34,0.74 -1.32,0.69 -1.29,0.64 -1.26,0.60 -1.22,0.55 -1.59,-0.61 -1.96,-1.78 -1.53,-4.98 -1.10,-8.18 -0.65,-12.61 -0.21,-17.05 1.59,-22.52 3.39,-27.98 6.53,-36.04 9.66,-44.09 12.49,-47.84 15.32,-51.59 17.99,-52.14 20.65,-52.69 24.52,-49.48 28.39,-46.27 31.64,-39.41 34.88,-32.56 37.14,-24.45 39.40,-16.34 42.95,-7.03 46.50,2.27 48.68,5.74 50.86,9.21 51.03,10.79 51.20,12.37 52.18,12.05 53.15,11.73 54.20,10.76 55.26,9.80 55.26,9.80 55.27,9.80 55.27,9.80 55.27,9.80 54.54,11.51 53.81,13.22 53.01,13.79 52.20,14.36 50.58,12.38 48.97,10.39 46.69,6.73 44.42,3.07 40.84,-6.33 37.25,-15.74 35.06,-23.68 32.86,-31.62 29.87,-38.13 26.87,-44.65 23.61,-47.68 20.34,-50.71 18.55,-50.37 16.76,-50.03 14.24,-46.65 11.73,-43.26 8.62,-35.27 5.51,-27.28 3.75,-22.05 1.99,-16.82 1.55,-12.34 1.10,-7.86 0.64,-4.82 0.18,-1.78 -0.18,-0.27 -0.55,1.22 -0.60,1.26 -0.64,1.29 -0.69,1.32 -0.74,1.34 -0.80,1.35 -0.86,1.36 -0.91,1.36 -0.97,1.35 -1.03,1.34 -1.08,1.32 -1.13,1.29 -1.18,1.26 -1.22,1.22 -1.26,1.18 -1.29,1.13 -1.32,1.08 -1.34,1.03 -1.35,0.97 -1.36,0.91 -1.36,0.86 -1.35,0.80 -1.34,0.74 -1.32,0.69 -1.29,0.64 -1.26,0.60 -1.22,0.55 -0.61,0.27 -0.00,-0.00 0,0 L 0.00,0.00 Z"/></g><g transform="translate(1163.6189103153558 282.3985145077744) rotate(0 22.732110133152332 2.674365898017925)" stroke="none"><path fill="#1c1c1c" d="M 0.00,-0.00 Q 0.00,-0.00 7.75,2.59 15.50,5.20 22.37,4.28 29.24,3.36 31.27,2.09 33.30,0.82 35.61,-0.10 37.92,-1.03 41.69,-0.96 45.46,-0.90 45.46,-0.89 45.46,-0.89 45.46,-0.88 45.46,-0.88 42.10,0.07 38.73,1.03 36.59,1.88 34.44,2.73 32.01,4.14 29.59,5.54 22.19,6.41 14.80,7.27 7.40,3.64 -0.00,0.00 0,0 L 0.00,-0.00 Z"/></g><g transform="translate(1496.1317369689168 664.8328379243366) rotate(0 15.154740088768335 -13.81755713975923)" stroke="none"><path fill="#1c1c1c" d="M -0.00,0.00 Q -0.00,0.00 -1.22,-0.67 -2.44,-1.36 -2.67,-4.24 -2.89,-7.13 -2.89,-12.48 -2.89,-17.82 -2.44,-22.34 -2.00,-26.85 -1.09,-30.93 -0.19,-35.00 0.24,-37.22 0.68,-39.44 1.51,-41.10 2.33,-42.77 4.29,-42.89 6.24,-43.01 8.17,-42.54 10.10,-42.07 12.07,-40.64 14.04,-39.22 16.33,-36.94 18.61,-34.66 20.88,-31.94 23.14,-29.23 25.00,-25.53 26.86,-21.84 26.90,-20.25 26.95,-18.66 26.43,-17.52 25.90,-16.38 24.39,-15.30 22.88,-14.21 20.91,-13.69 18.95,-13.18 16.06,-13.61 13.18,-14.05 11.85,-14.50 10.51,-14.94 10.38,-14.98 10.25,-15.02 10.14,-15.08 10.02,-15.15 9.92,-15.25 9.83,-15.34 9.75,-15.45 9.68,-15.57 9.64,-15.69 9.60,-15.82 9.59,-15.96 9.58,-16.09 9.60,-16.22 9.62,-16.36 9.68,-16.48 9.73,-16.60 9.81,-16.71 9.89,-16.82 10.00,-16.90 10.10,-16.99 10.22,-17.04 10.34,-17.10 10.48,-17.13 10.61,-17.15 10.74,-17.15 10.88,-17.14 11.62,-16.54 12.37,-15.93 13.26,-15.04 14.15,-14.15 14.60,-13.70 15.04,-13.26 18.13,-10.61 21.22,-7.96 24.86,-3.44 28.50,1.08 29.80,2.38 31.10,3.67 32.98,6.94 34.86,10.21 34.53,12.25 34.21,14.28 31.45,14.82 28.70,15.36 27.27,15.36 25.85,15.37 19.16,15.37 12.47,15.37 8.34,14.47 4.21,13.56 2.41,13.11 0.60,12.66 -1.95,10.69 -4.52,8.71 -2.26,4.35 -0.00,-0.00 -0.00,-0.00 0,0 0.00,0.00 0.00,0.00 -1.29,4.55 -2.60,9.11 -0.71,9.81 1.17,10.51 2.93,10.95 4.69,11.39 8.59,12.27 12.48,13.14 19.16,13.14 25.85,13.14 27.09,13.15 28.34,13.16 30.94,12.80 33.53,12.45 33.21,11.81 32.89,11.17 31.20,8.20 29.51,5.23 28.14,3.85 26.76,2.47 23.27,-1.90 19.78,-6.29 16.63,-8.99 13.48,-11.69 13.03,-12.14 12.58,-12.58 11.55,-13.76 10.51,-14.94 10.38,-14.98 10.25,-15.02 10.14,-15.08 10.02,-15.15 9.92,-15.25 9.83,-15.34 9.75,-15.45 9.68,-15.57 9.64,-15.69 9.60,-15.82 9.59,-15.96 9.58,-16.09 9.60,-16.22 9.62,-16.36 9.68,-16.48 9.73,-16.60 9.81,-16.71 9.89,-16.82 10.00,-16.90 10.10,-16.99 10.22,-17.04 10.34,-17.10 10.48,-17.13 10.61,-17.15 10.74,-17.15 10.88,-17.14 12.21,-16.70 13.55,-16.25 16.02,-15.80 18.48,-15.34 20.08,-15.71 21.68,-16.09 22.85,-16.79 24.01,-17.49 24.38,-18.13 24.74,-18.77 24.79,-19.86 24.84,-20.94 23.13,-24.38 21.42,-27.81 19.23,-30.45 17.04,-33.08 14.87,-35.26 12.70,-37.44 11.10,-38.69 9.50,-39.93 7.86,-40.36 6.23,-40.78 4.62,-40.90 3.00,-41.02 2.94,-40.01 2.87,-39.00 2.42,-36.76 1.97,-34.52 1.09,-30.57 0.21,-26.63 -0.22,-22.23 -0.66,-17.82 -0.66,-12.48 -0.66,-7.13 -0.89,-4.66 -1.11,-2.20 -0.55,-1.10 0.00,-0.00 0,0 L -0.00,0.00 Z"/></g><g transform="translate(1839.34202721455 646.112276638211) rotate(0 -22.732110133152332 26.74365898017919)" stroke="none"><path fill="#1c1c1c" d="M 0,0.01 Q 0,0.01 -1.78,0.40 -3.56,0.79 -4.90,0.95 -6.23,1.11 -9.73,1.55 -13.23,1.99 -20.28,3.75 -27.32,5.52 -31.14,8.54 -34.96,11.56 -38.42,16.35 -41.87,21.13 -43.57,27.60 -45.27,34.08 -43.96,38.70 -42.64,43.32 -39.67,46.21 -36.70,49.09 -32.45,50.31 -28.21,51.52 -22.54,51.95 -16.88,52.37 -11.27,50.61 -5.67,48.85 -2.39,48.04 0.88,47.23 0.88,47.24 0.89,47.24 0.89,47.25 0.89,47.25 -2.06,49.12 -5.02,50.98 -11.00,52.79 -16.99,54.59 -22.91,54.13 -28.84,53.66 -33.50,52.20 -38.17,50.74 -41.44,47.39 -44.71,44.04 -46.07,38.85 -47.43,33.66 -45.56,26.76 -43.70,19.87 -40.02,14.84 -36.35,9.82 -32.14,6.60 -27.94,3.39 -20.72,1.58 -13.51,-0.21 -9.87,-0.66 -6.24,-1.11 -4.90,-0.95 -3.56,-0.79 -1.78,-0.40 0,-0.01 0,0 L 0,0.01 Z"/></g><g stroke-linecap="round"><g transform="translate(1586.1687222021867 458.906663776957) rotate(0 -39.45665834832181 61.43772872718776)"><path d="M0 0 C-13.15 20.48, -65.76 102.4, -78.91 122.88 M0 0 C-13.15 20.48, -65.76 102.4, -78.91 122.88" stroke="#1c1c1c" stroke-width="0.5" fill="none"/></g></g><mask/><g stroke-linecap="round"><g transform="translate(1673.5313415374387 474.0614038657252) rotate(0 71.17922818276497 70.26632535073372)"><path d="M0 0 C23.73 23.42, 118.63 117.11, 142.36 140.53 M0 0 C23.73 23.42, 118.63 117.11, 142.36 140.53" stroke="#1c1c1c" stroke-width="0.5" fill="none"/></g></g><mask/><g stroke-linecap="round"><g transform="translate(1305.5744120262875 139.57291347746116) rotate(0 -49.77560732492492 37.90828249582336)"><path d="M0 0 C-16.59 12.64, -82.96 63.18, -99.55 75.82 M0 0 C-16.59 12.64, -82.96 63.18, -99.55 75.82" stroke="#1c1c1c" stroke-width="0.5" fill="none"/></g></g><mask/><g stroke-linecap="round"><g transform="translate(1508.406942696792 586.1266811091527) rotate(0 -0.719783506584406 53.320529359162805)"><path d="M0 0 C-13.32 17.77, -92.97 88.87, -79.9 106.64 C-66.82 124.41, 65.14 124.41, 78.46 106.64 C91.77 88.87, 13.08 17.77, 0 0 M0 0 C-13.32 17.77, -92.97 88.87, -79.9 106.64 C-66.82 124.41, 65.14 124.41, 78.46 106.64 C91.77 88.87, 13.08 17.77, 0 0" stroke="#1c1c1c" stroke-width="0.5" fill="none"/></g></g><mask/><g stroke-linecap="round"><g transform="translate(1815.9590209688522 615.9087647267065) rotate(0 -0.7197835065843492 44.67661787687331)"><path d="M0 0 C-13.32 14.89, -92.97 74.46, -79.9 89.35 C-66.82 104.25, 65.14 104.25, 78.46 89.35 C91.77 74.46, 13.08 14.89, 0 0 M0 0 C-13.32 14.89, -92.97 74.46, -79.9 89.35 C-66.82 104.25, 65.14 104.25, 78.46 89.35 C91.77 74.46, 13.08 14.89, 0 0" stroke="#1c1c1c" stroke-width="0.5" fill="none"/></g></g><mask/><g stroke-linecap="round"><g transform="translate(1203.5292303227495 216.17273188334093) rotate(0 -0.719783506584406 52.52812464863906)"><path d="M0 0 C-13.32 17.51, -92.97 87.55, -79.9 105.06 C-66.82 122.57, 65.14 122.57, 78.46 105.06 C91.77 87.55, 13.08 17.51, 0 0 M0 0 C-13.32 17.51, -92.97 87.55, -79.9 105.06 C-66.82 122.57, 65.14 122.57, 78.46 105.06 C91.77 87.55, 13.08 17.51, 0 0" stroke="#1c1c1c" stroke-width="0.5" fill="none"/></g></g><mask/><g stroke-linecap="round"><g transform="translate(253.45703356671618 386.8467124326262) rotate(0 -84.78076324518315 91.62732086237062)"><path d="M0 0 C-28.26 30.54, -141.3 152.71, -169.56 183.25 M0 0 C-28.26 30.54, -141.3 152.71, -169.56 183.25" stroke="#1c1c1c" stroke-width="0.5" fill="none"/></g></g><mask/><g stroke-linecap="round"><g transform="translate(362.1195991789549 243.5782203067156) rotate(0 49.125 -49.12499999999999)"><path d="M0 0 C16.38 -16.37, 81.88 -81.87, 98.25 -98.25 M0 0 C16.38 -16.37, 81.88 -81.87, 98.25 -98.25" stroke="#1c1c1c" stroke-width="0.5" fill="none"/></g></g><mask/></svg>