<svg version="1.1" xmlns="http://www.w3.org/2000/svg" viewBox="0 0 902.6597190645152 357.17688357313676" width="902.6597190645152" height="357.17688357313676" filter="invert(93%) hue-rotate(180deg)" class="excalidraw-svg">
  <!-- svg-source:excalidraw -->
  
  <defs>
    <style class="style-fonts">
      @font-face {
        font-family: "Virgil";
        src: url("https://excalidraw.com/Virgil.woff2");
      }
      @font-face {
        font-family: "Cascadia";
        src: url("https://excalidraw.com/Cascadia.woff2");
      }
      @font-face {
        font-family: "Assistant";
        src: url("https://excalidraw.com/Assistant-Regular.woff2");
      }
    </style>
    
  </defs>
  <g stroke-linecap="round" transform="translate(155.82772509155103 13.942293685821824) rotate(0 26.75 26.75)"><path d="M53.5 26.75 C53.5 28.3, 53.36 29.87, 53.09 31.4 C52.82 32.92, 52.42 34.44, 51.89 35.9 C51.36 37.35, 50.69 38.78, 49.92 40.13 C49.14 41.47, 48.24 42.76, 47.24 43.94 C46.25 45.13, 45.13 46.25, 43.94 47.24 C42.76 48.24, 41.47 49.14, 40.13 49.92 C38.78 50.69, 37.35 51.36, 35.9 51.89 C34.44 52.42, 32.92 52.82, 31.4 53.09 C29.87 53.36, 28.3 53.5, 26.75 53.5 C25.2 53.5, 23.63 53.36, 22.1 53.09 C20.58 52.82, 19.06 52.42, 17.6 51.89 C16.15 51.36, 14.72 50.69, 13.38 49.92 C12.03 49.14, 10.74 48.24, 9.56 47.24 C8.37 46.25, 7.25 45.13, 6.26 43.94 C5.26 42.76, 4.36 41.47, 3.58 40.13 C2.81 38.78, 2.14 37.35, 1.61 35.9 C1.08 34.44, 0.68 32.92, 0.41 31.4 C0.14 29.87, 0 28.3, 0 26.75 C0 25.2, 0.14 23.63, 0.41 22.1 C0.68 20.58, 1.08 19.06, 1.61 17.6 C2.14 16.15, 2.81 14.72, 3.58 13.38 C4.36 12.03, 5.26 10.74, 6.26 9.56 C7.25 8.37, 8.37 7.25, 9.56 6.26 C10.74 5.26, 12.03 4.36, 13.37 3.58 C14.72 2.81, 16.15 2.14, 17.6 1.61 C19.06 1.08, 20.58 0.68, 22.1 0.41 C23.63 0.14, 25.2 0, 26.75 0 C28.3 0, 29.87 0.14, 31.4 0.41 C32.92 0.68, 34.44 1.08, 35.9 1.61 C37.35 2.14, 38.78 2.81, 40.12 3.58 C41.47 4.36, 42.76 5.26, 43.94 6.26 C45.13 7.25, 46.25 8.37, 47.24 9.56 C48.24 10.74, 49.14 12.03, 49.92 13.37 C50.69 14.72, 51.36 16.15, 51.89 17.6 C52.42 19.06, 52.82 20.58, 53.09 22.1 C53.36 23.63, 53.43 25.98, 53.5 26.75 C53.57 27.52, 53.57 25.98, 53.5 26.75" stroke="#1c1c1c" stroke-width="0.5" fill="none"/></g><g stroke-linecap="round" transform="translate(64.20105111583615 111.40017684036093) rotate(0 30.18543503799475 30.185435037994736)"><path d="M60.37 30.19 C60.37 31.93, 60.22 33.71, 59.91 35.43 C59.61 37.15, 59.15 38.87, 58.55 40.51 C57.95 42.15, 57.2 43.77, 56.33 45.28 C55.45 46.79, 54.43 48.25, 53.31 49.59 C52.19 50.93, 50.93 52.19, 49.59 53.31 C48.25 54.43, 46.79 55.45, 45.28 56.33 C43.77 57.2, 42.15 57.95, 40.51 58.55 C38.87 59.15, 37.15 59.61, 35.43 59.91 C33.71 60.22, 31.93 60.37, 30.19 60.37 C28.44 60.37, 26.66 60.22, 24.94 59.91 C23.22 59.61, 21.5 59.15, 19.86 58.55 C18.22 57.95, 16.61 57.2, 15.09 56.33 C13.58 55.45, 12.12 54.43, 10.78 53.31 C9.44 52.19, 8.19 50.93, 7.06 49.59 C5.94 48.25, 4.92 46.79, 4.04 45.28 C3.17 43.77, 2.42 42.15, 1.82 40.51 C1.22 38.87, 0.76 37.15, 0.46 35.43 C0.16 33.71, 0 31.93, 0 30.19 C0 28.44, 0.16 26.66, 0.46 24.94 C0.76 23.22, 1.22 21.5, 1.82 19.86 C2.42 18.22, 3.17 16.61, 4.04 15.09 C4.92 13.58, 5.94 12.12, 7.06 10.78 C8.19 9.44, 9.44 8.19, 10.78 7.06 C12.12 5.94, 13.58 4.92, 15.09 4.04 C16.61 3.17, 18.22 2.42, 19.86 1.82 C21.5 1.22, 23.22 0.76, 24.94 0.46 C26.66 0.16, 28.44 0, 30.19 0 C31.93 0, 33.71 0.16, 35.43 0.46 C37.15 0.76, 38.87 1.22, 40.51 1.82 C42.15 2.42, 43.77 3.17, 45.28 4.04 C46.79 4.92, 48.25 5.94, 49.59 7.06 C50.93 8.19, 52.19 9.44, 53.31 10.78 C54.43 12.12, 55.45 13.58, 56.33 15.09 C57.2 16.61, 57.95 18.22, 58.55 19.86 C59.15 21.5, 59.61 23.22, 59.91 24.94 C60.22 26.66, 60.29 29.31, 60.37 30.19 C60.45 31.06, 60.45 29.31, 60.37 30.19" stroke="#1c1c1c" stroke-width="0.5" fill="none"/></g><g stroke-linecap="round" transform="translate(156.96856150480045 199.52395605384734) rotate(0 30.185435037994736 30.185435037994736)"><path d="M60.37 30.19 C60.37 31.93, 60.22 33.71, 59.91 35.43 C59.61 37.15, 59.15 38.87, 58.55 40.51 C57.95 42.15, 57.2 43.77, 56.33 45.28 C55.45 46.79, 54.43 48.25, 53.31 49.59 C52.19 50.93, 50.93 52.19, 49.59 53.31 C48.25 54.43, 46.79 55.45, 45.28 56.33 C43.77 57.2, 42.15 57.95, 40.51 58.55 C38.87 59.15, 37.15 59.61, 35.43 59.91 C33.71 60.22, 31.93 60.37, 30.19 60.37 C28.44 60.37, 26.66 60.22, 24.94 59.91 C23.22 59.61, 21.5 59.15, 19.86 58.55 C18.22 57.95, 16.61 57.2, 15.09 56.33 C13.58 55.45, 12.12 54.43, 10.78 53.31 C9.44 52.19, 8.19 50.93, 7.06 49.59 C5.94 48.25, 4.92 46.79, 4.04 45.28 C3.17 43.77, 2.42 42.15, 1.82 40.51 C1.22 38.87, 0.76 37.15, 0.46 35.43 C0.16 33.71, 0 31.93, 0 30.19 C0 28.44, 0.16 26.66, 0.46 24.94 C0.76 23.22, 1.22 21.5, 1.82 19.86 C2.42 18.22, 3.17 16.61, 4.04 15.09 C4.92 13.58, 5.94 12.12, 7.06 10.78 C8.19 9.44, 9.44 8.19, 10.78 7.06 C12.12 5.94, 13.58 4.92, 15.09 4.04 C16.61 3.17, 18.22 2.42, 19.86 1.82 C21.5 1.22, 23.22 0.76, 24.94 0.46 C26.66 0.16, 28.44 0, 30.19 0 C31.93 0, 33.71 0.16, 35.43 0.46 C37.15 0.76, 38.87 1.22, 40.51 1.82 C42.15 2.42, 43.77 3.17, 45.28 4.04 C46.79 4.92, 48.25 5.94, 49.59 7.06 C50.93 8.19, 52.19 9.44, 53.31 10.78 C54.43 12.12, 55.45 13.58, 56.33 15.09 C57.2 16.61, 57.95 18.22, 58.55 19.86 C59.15 21.5, 59.61 23.22, 59.91 24.94 C60.22 26.66, 60.29 29.31, 60.37 30.19 C60.45 31.06, 60.45 29.31, 60.37 30.19" stroke="#1c1c1c" stroke-width="0.5" fill="none"/></g><g stroke-linecap="round"><g transform="translate(162.31614184378589 59.31868994698246) rotate(0 -24.614985935004995 29.57102337158318)"><path d="M0 0 C-8.2 9.86, -41.02 49.29, -49.23 59.14 M0 0 C-8.2 9.86, -41.02 49.29, -49.23 59.14" stroke="#1c1c1c" stroke-width="0.5" fill="none"/></g></g><mask/><g stroke-linecap="round"><g transform="translate(116.3901949314947 161.743463636265) rotate(0 26.10179716597844 22.79777220825966)"><path d="M0 0 C8.7 7.6, 43.5 38, 52.2 45.6 M0 0 C8.7 7.6, 43.5 38, 52.2 45.6" stroke="#1c1c1c" stroke-width="0.5" fill="none"/></g></g><mask/><g transform="translate(177.51465664929236 37.18172273026653) rotate(0 3.304024957718781 4.460433692920361)" stroke="none"><path fill="#1c1c1c" d="M -0.00,0.00 Q -0.00,0.00 -1.17,0.07 -2.34,0.13 -2.98,-0.73 -3.63,-1.61 -3.68,-2.12 -3.74,-2.64 -3.90,-3.89 -4.06,-5.15 -4.07,-6.21 -4.07,-7.28 -3.70,-8.46 -3.33,-9.64 -2.71,-10.33 -2.09,-11.02 -1.46,-11.43 -0.83,-11.84 0.08,-11.91 1.00,-11.99 1.67,-11.79 2.33,-11.60 3.34,-10.94 4.36,-10.28 4.70,-9.21 5.03,-8.13 5.04,-7.37 5.05,-6.60 4.87,-5.81 4.68,-5.02 4.52,-4.21 4.36,-3.41 3.82,-2.27 3.28,-1.14 2.90,-0.80 2.52,-0.45 2.09,-0.34 1.65,-0.23 0.99,-0.23 0.33,-0.23 -0.16,-0.24 -0.66,-0.24 -1.25,-0.40 -1.85,-0.57 -2.22,-1.03 -2.60,-1.48 -2.29,-2.76 -1.98,-4.04 -1.11,-3.50 -0.25,-2.97 -0.09,-2.47 0.06,-1.98 0.06,-1.81 0.06,-1.65 0.05,-1.52 0.03,-1.39 -0.00,-1.27 -0.05,-1.16 -0.12,-1.05 -0.19,-0.95 -0.29,-0.86 -0.39,-0.78 -0.50,-0.72 -0.61,-0.66 -0.73,-0.63 -0.86,-0.60 -0.99,-0.60 -1.11,-0.60 -1.24,-0.63 -1.36,-0.66 -1.47,-0.72 -1.59,-0.78 -1.68,-0.86 -1.78,-0.95 -1.85,-1.05 -1.92,-1.16 -1.97,-1.27 -2.01,-1.39 -2.03,-1.52 -2.04,-1.65 -1.72,-2.35 -1.40,-3.06 -0.82,-3.29 -0.24,-3.52 0.27,-3.38 0.80,-3.25 1.37,-2.87 1.93,-2.49 2.58,-1.52 3.23,-0.54 3.44,0.05 3.65,0.65 4.15,2.13 4.66,3.62 4.84,4.69 5.03,5.76 5.20,6.93 5.38,8.10 5.55,9.94 5.72,11.79 5.88,12.92 6.05,14.05 6.05,15.29 6.06,16.52 5.87,17.33 5.68,18.14 5.05,19.01 4.42,19.89 3.20,20.38 1.98,20.87 0.82,20.90 -0.33,20.92 -1.27,20.74 -2.21,20.56 -3.21,20.00 -4.20,19.44 -4.98,18.67 -5.76,17.91 -6.21,16.72 -6.66,15.53 -6.69,14.36 -6.72,13.20 -6.37,11.75 -6.03,10.30 -5.70,8.97 -5.36,7.64 -4.65,6.35 -3.93,5.05 -3.18,4.28 -2.42,3.50 -1.15,2.75 0.11,2.00 1.51,1.47 2.91,0.94 4.04,0.45 5.17,-0.03 6.63,-0.88 8.08,-1.74 10.15,-2.19 12.22,-2.65 12.22,-2.64 12.22,-2.64 12.22,-2.63 12.22,-2.63 10.65,-1.43 9.09,-0.23 7.57,0.88 6.05,2.01 4.87,2.51 3.69,3.02 2.45,3.48 1.21,3.93 0.16,4.51 -0.87,5.08 -1.44,5.63 -2.01,6.17 -2.61,7.19 -3.22,8.20 -3.55,9.52 -3.87,10.84 -4.19,12.03 -4.51,13.22 -4.53,14.04 -4.56,14.86 -4.35,15.65 -4.14,16.44 -3.60,17.00 -3.06,17.56 -2.40,17.99 -1.74,18.42 -1.03,18.56 -0.32,18.71 0.49,18.74 1.32,18.77 2.08,18.60 2.84,18.43 3.20,17.98 3.57,17.54 3.70,17.02 3.84,16.51 3.85,15.43 3.86,14.36 3.69,13.17 3.52,11.99 3.36,10.20 3.21,8.41 3.05,7.27 2.89,6.12 2.74,5.21 2.60,4.30 2.11,2.81 1.63,1.32 1.51,0.93 1.39,0.54 1.04,-0.13 0.70,-0.80 0.38,-1.22 0.06,-1.65 0.05,-1.52 0.03,-1.39 -0.00,-1.27 -0.05,-1.16 -0.12,-1.05 -0.19,-0.95 -0.29,-0.86 -0.39,-0.78 -0.50,-0.72 -0.61,-0.66 -0.73,-0.63 -0.86,-0.60 -0.99,-0.60 -1.11,-0.60 -1.24,-0.63 -1.36,-0.66 -1.47,-0.72 -1.59,-0.78 -1.68,-0.86 -1.78,-0.95 -1.85,-1.05 -1.92,-1.16 -1.97,-1.27 -2.01,-1.39 -2.03,-1.52 -2.04,-1.65 -1.94,-1.71 -1.83,-1.78 -2.10,-2.37 -2.38,-2.97 -2.18,-2.43 -1.98,-1.90 -1.32,-2.15 -0.66,-2.40 -0.16,-2.40 0.33,-2.40 0.83,-2.28 1.34,-2.15 1.79,-3.00 2.23,-3.85 2.40,-4.70 2.57,-5.55 2.72,-6.08 2.87,-6.61 2.88,-7.16 2.89,-7.71 2.89,-8.30 2.90,-8.88 1.93,-9.34 0.97,-9.81 0.57,-9.88 0.17,-9.95 -0.18,-9.71 -0.54,-9.46 -0.91,-9.15 -1.29,-8.85 -1.58,-8.05 -1.87,-7.25 -1.87,-6.33 -1.87,-5.42 -1.76,-3.88 -1.64,-2.34 -1.63,-1.57 -1.62,-0.79 -0.81,-0.40 0.00,-0.00 0,0 L -0.00,0.00 Z"/></g><g transform="translate(89.62759277397248 155.79621871237117) rotate(0 3.469226205604741 -15.198514805506449)" stroke="none"><path fill="#1c1c1c" d="M -0.01,0 Q -0.01,0 -0.48,-1.48 -0.95,-2.97 -0.86,-4.20 -0.77,-5.43 -0.93,-6.95 -1.10,-8.48 -1.11,-10.35 -1.11,-12.22 -1.11,-13.21 -1.11,-14.20 -1.27,-16.64 -1.44,-19.08 -1.44,-21.11 -1.44,-23.14 -1.24,-23.80 -1.05,-24.46 -0.87,-25.91 -0.70,-27.36 -0.08,-28.10 0.53,-28.85 1.34,-30.03 2.15,-31.22 3.06,-31.35 3.97,-31.49 4.83,-31.26 5.68,-31.03 6.91,-29.55 8.14,-28.08 8.67,-27.20 9.20,-26.33 9.57,-25.43 9.94,-24.52 10.12,-23.79 10.31,-23.06 10.49,-21.66 10.67,-20.26 10.49,-19.41 10.31,-18.56 10.14,-17.89 9.96,-17.21 9.37,-16.36 8.78,-15.51 7.81,-14.88 6.84,-14.25 5.29,-13.56 3.75,-12.86 2.69,-12.56 1.64,-12.25 0.96,-12.09 0.27,-11.93 -1.18,-12.40 -2.65,-12.88 -2.64,-12.88 -2.64,-12.88 -2.63,-12.88 -2.63,-12.89 -1.45,-13.03 -0.27,-13.17 0.36,-13.68 0.99,-14.18 1.92,-14.53 2.85,-14.88 4.28,-15.51 5.71,-16.13 6.39,-16.50 7.07,-16.86 7.47,-17.33 7.87,-17.80 8.03,-18.45 8.18,-19.09 8.33,-19.57 8.49,-20.04 8.33,-21.28 8.18,-22.53 8.04,-23.12 7.89,-23.71 7.60,-24.45 7.31,-25.20 6.85,-25.98 6.38,-26.76 5.63,-27.93 4.88,-29.09 4.42,-29.19 3.95,-29.30 3.54,-29.43 3.12,-29.57 2.88,-28.91 2.63,-28.25 2.37,-27.78 2.11,-27.31 1.73,-27.07 1.36,-26.82 1.07,-24.96 0.78,-23.11 0.78,-21.17 0.78,-19.23 0.94,-16.72 1.11,-14.20 1.11,-13.21 1.11,-12.22 1.11,-10.46 1.10,-8.70 1.27,-6.91 1.43,-5.13 1.19,-4.05 0.95,-2.97 0.48,-1.48 0.01,0 0,0 L -0.01,0 Z"/></g><g transform="translate(174.76500723564726 221.87671786674701) rotate(0 12.555294839331395 13.05089858298922)" stroke="none"><path fill="#1c1c1c" d="M -0.00,-0.00 Q -0.00,-0.00 0.85,-0.79 1.71,-1.58 2.67,-1.80 3.63,-2.01 4.62,-2.05 5.61,-2.09 6.74,-1.90 7.86,-1.71 9.59,-0.26 11.32,1.17 12.10,2.65 12.88,4.12 13.73,6.32 14.58,8.53 14.78,10.15 14.98,11.77 14.98,13.47 14.98,15.18 15.45,16.50 15.92,17.81 16.26,19.18 16.61,20.54 17.05,21.75 17.49,22.97 18.97,23.91 20.46,24.85 21.18,25.44 21.89,26.02 23.50,26.22 25.10,26.42 25.10,26.42 25.11,26.43 25.11,26.43 25.11,26.43 23.08,26.97 21.05,27.50 20.11,27.09 19.18,26.68 17.36,25.31 15.54,23.94 14.99,22.51 14.44,21.08 14.12,19.80 13.81,18.52 13.28,16.87 12.76,15.21 12.76,13.61 12.76,12.01 12.63,10.66 12.50,9.31 11.70,7.21 10.89,5.12 10.35,3.95 9.81,2.78 8.57,1.59 7.33,0.39 6.47,0.25 5.61,0.11 4.62,0.07 3.63,0.03 2.94,-0.18 2.24,-0.39 1.12,-0.19 0.00,0.00 0,0 L -0.00,-0.00 Z"/></g><g transform="translate(178.069032193366 246.98730754540986) rotate(0 12.224892343559532 -13.381301078761112)" stroke="none"><path fill="#1c1c1c" d="M -0.00,-0.00 Q -0.00,-0.00 0.64,-1.01 1.28,-2.01 2.56,-3.71 3.84,-5.40 6.32,-7.88 8.79,-10.36 11.60,-13.17 14.41,-15.98 16.68,-18.75 18.96,-21.52 21.70,-24.14 24.44,-26.76 24.44,-26.76 24.44,-26.76 24.45,-26.75 24.45,-26.75 22.56,-23.43 20.68,-20.10 18.33,-17.26 15.98,-14.41 13.17,-11.60 10.36,-8.79 7.88,-6.32 5.40,-3.84 3.71,-2.56 2.01,-1.28 1.01,-0.64 0.00,0.00 0,0 L -0.00,-0.00 Z"/></g><g stroke-linecap="round"><g transform="translate(206.9204787729896 52.71064003154484) rotate(0 33.86625581661761 24.780187182890955)"><path d="M0 0 C11.29 8.26, 56.44 41.3, 67.73 49.56 M0 0 C11.29 8.26, 56.44 41.3, 67.73 49.56" stroke="#1c1c1c" stroke-width="0.5" fill="none"/></g></g><mask/><g stroke-linecap="round"><g transform="translate(245.8502165453691 302.7477095220099) rotate(0 2.3707675446581504 21.971765968829956)"><path d="M0 0 C5.08 6.55, 30.39 31.99, 30.46 39.32 C30.52 46.64, 9.73 43.94, 0.36 43.94 C-9 43.94, -25.59 46.53, -25.71 39.32 C-25.84 32.1, -4.59 7.1, -0.36 0.66 M0 0 C5.08 6.55, 30.39 31.99, 30.46 39.32 C30.52 46.64, 9.73 43.94, 0.36 43.94 C-9 43.94, -25.59 46.53, -25.71 39.32 C-25.84 32.1, -4.59 7.1, -0.36 0.66" stroke="#1c1c1c" stroke-width="0.5" fill="none"/></g></g><mask/><g stroke-linecap="round"><g transform="translate(141.77343037722716 302.7477095220099) rotate(0 2.3707675446581504 21.971765968829956)"><path d="M0 0 C5.08 6.55, 30.39 31.99, 30.46 39.32 C30.52 46.64, 9.73 43.94, 0.36 43.94 C-9 43.94, -25.59 46.53, -25.71 39.32 C-25.84 32.1, -4.59 7.1, -0.36 0.66 M0 0 C5.08 6.55, 30.39 31.99, 30.46 39.32 C30.52 46.64, 9.73 43.94, 0.36 43.94 C-9 43.94, -25.59 46.53, -25.71 39.32 C-25.84 32.1, -4.59 7.1, -0.36 0.66" stroke="#1c1c1c" stroke-width="0.5" fill="none"/></g></g><mask/><g stroke-linecap="round"><g transform="translate(35.71422923445397 216.5126581255494) rotate(0 2.3707675446581504 21.971765968829956)"><path d="M0 0 C5.08 6.55, 30.39 31.99, 30.46 39.32 C30.52 46.64, 9.73 43.94, 0.36 43.94 C-9 43.94, -25.59 46.53, -25.71 39.32 C-25.84 32.1, -4.59 7.1, -0.36 0.66 M0 0 C5.08 6.55, 30.39 31.99, 30.46 39.32 C30.52 46.64, 9.73 43.94, 0.36 43.94 C-9 43.94, -25.59 46.53, -25.71 39.32 C-25.84 32.1, -4.59 7.1, -0.36 0.66" stroke="#1c1c1c" stroke-width="0.5" fill="none"/></g></g><mask/><g stroke-linecap="round"><g transform="translate(275.003998573849 107.21668027225029) rotate(0 2.3707675446581646 21.971765968829956)"><path d="M0 0 C5.08 6.55, 30.39 31.99, 30.46 39.32 C30.52 46.64, 9.73 43.94, 0.36 43.94 C-9 43.94, -25.59 46.53, -25.71 39.32 C-25.84 32.1, -4.59 7.1, -0.36 0.66 M0 0 C5.08 6.55, 30.39 31.99, 30.46 39.32 C30.52 46.64, 9.73 43.94, 0.36 43.94 C-9 43.94, -25.59 46.53, -25.71 39.32 C-25.84 32.1, -4.59 7.1, -0.36 0.66" stroke="#1c1c1c" stroke-width="0.5" fill="none"/></g></g><mask/><g stroke-linecap="round"><g transform="translate(72.77706548960663 163.3954761151244) rotate(0 -18.337338515339297 26.92780340540814)"><path d="M0 0 C-6.11 8.98, -30.56 44.88, -36.67 53.86 M0 0 C-6.11 8.98, -30.56 44.88, -36.67 53.86" stroke="#1c1c1c" stroke-width="0.5" fill="none"/></g></g><mask/><g stroke-linecap="round"><g transform="translate(172.22821671694226 258.8817973931975) rotate(0 -15.694118549164244 22.302168464601863)"><path d="M0 0 C-5.23 7.43, -26.16 37.17, -31.39 44.6 M0 0 C-5.23 7.43, -26.16 37.17, -31.39 44.6" stroke="#1c1c1c" stroke-width="0.5" fill="none"/></g></g><mask/><g stroke-linecap="round"><g transform="translate(204.93806379835831 250.9521374946724) rotate(0 20.980558481514322 25.771394670206575)"><path d="M0 0 C6.99 8.59, 34.97 42.95, 41.96 51.54 M0 0 C6.99 8.59, 34.97 42.95, 41.96 51.54" stroke="#1c1c1c" stroke-width="0.5" fill="none"/></g></g><mask/><g transform="translate(142.822394593245 202.713373111978) rotate(0 -1.9824149746312685 -20.650155985742444)" stroke="none"><path fill="#ff0000" d="M -0.30,-0.76 Q -0.30,-0.76 0.50,-1.10 1.30,-1.44 2.48,-2.85 3.65,-4.26 4.09,-4.89 4.53,-5.51 5.01,-6.29 5.49,-7.07 6.34,-8.53 7.19,-9.99 7.69,-10.82 8.20,-11.66 8.69,-12.49 9.19,-13.31 9.47,-13.96 9.75,-14.61 10.06,-15.28 10.36,-15.96 10.68,-16.75 10.99,-17.53 11.35,-18.49 11.70,-19.44 11.82,-20.08 11.94,-20.71 12.08,-21.38 12.22,-22.05 12.16,-22.74 12.11,-23.44 12.03,-24.26 11.95,-25.08 11.76,-26.25 11.57,-27.41 11.43,-27.92 11.28,-28.43 11.27,-29.24 11.25,-30.04 10.94,-31.25 10.64,-32.45 10.29,-32.93 9.94,-33.41 9.53,-34.00 9.11,-34.60 8.78,-35.08 8.46,-35.56 7.97,-35.93 7.47,-36.29 7.00,-36.59 6.53,-36.89 5.76,-37.42 4.99,-37.95 4.46,-38.28 3.93,-38.61 3.43,-38.93 2.93,-39.25 1.90,-39.45 0.88,-39.66 -0.04,-39.46 -0.97,-39.26 -1.74,-38.86 -2.51,-38.46 -3.55,-37.87 -4.60,-37.29 -5.08,-36.95 -5.57,-36.61 -6.22,-36.15 -6.86,-35.69 -7.53,-35.21 -8.20,-34.73 -8.87,-34.24 -9.54,-33.76 -9.97,-33.31 -10.39,-32.86 -11.21,-31.82 -12.03,-30.78 -12.31,-30.18 -12.58,-29.58 -12.90,-28.91 -13.22,-28.25 -13.75,-27.44 -14.29,-26.63 -14.38,-25.27 -14.47,-23.90 -14.84,-22.99 -15.21,-22.07 -15.55,-21.25 -15.89,-20.43 -16.02,-18.93 -16.15,-17.43 -16.22,-17.31 -16.28,-17.19 -16.37,-17.10 -16.46,-17.00 -16.57,-16.93 -16.68,-16.85 -16.81,-16.81 -16.93,-16.76 -17.06,-16.75 -17.20,-16.73 -17.33,-16.75 -17.46,-16.77 -17.58,-16.82 -17.71,-16.87 -17.81,-16.95 -17.92,-17.03 -18.01,-17.13 -18.09,-17.23 -18.15,-17.35 -18.21,-17.46 -18.24,-17.59 -18.27,-17.72 -18.27,-17.86 -18.27,-17.99 -18.23,-18.12 -18.20,-18.25 -18.08,-18.43 -17.95,-18.62 -17.81,-18.72 -17.66,-18.83 -17.49,-18.88 -17.32,-18.93 -17.14,-18.92 -16.96,-18.92 -16.80,-18.86 -16.63,-18.79 -16.49,-18.68 -16.35,-18.57 -16.26,-18.42 -16.16,-18.27 -16.12,-18.10 -16.08,-17.92 -16.09,-17.74 -16.11,-17.57 -16.18,-17.40 -16.25,-17.24 -16.37,-17.11 -16.49,-16.98 -16.64,-16.89 -16.80,-16.80 -16.97,-16.77 -17.15,-16.73 -17.33,-16.76 -17.50,-16.78 -17.66,-16.86 -17.82,-16.94 -17.95,-17.07 -18.07,-17.20 -18.15,-17.36 -18.23,-17.52 -18.25,-17.69 -18.28,-17.87 -18.24,-18.05 -18.21,-18.22 -18.12,-18.38 -18.03,-18.53 -17.90,-18.65 -17.77,-18.77 -17.60,-18.84 -17.44,-18.91 -17.26,-18.92 -17.08,-18.94 -16.91,-18.89 -16.74,-18.85 -16.59,-18.75 -16.44,-18.65 -16.33,-18.52 -16.21,-18.38 -16.15,-18.21 -16.09,-18.04 -16.09,-17.86 -16.08,-17.68 -16.14,-17.51 -16.19,-17.34 -16.17,-17.39 -16.15,-17.43 -16.22,-17.31 -16.28,-17.19 -16.37,-17.10 -16.46,-17.00 -16.57,-16.93 -16.68,-16.85 -16.81,-16.81 -16.93,-16.76 -17.06,-16.75 -17.20,-16.73 -17.33,-16.75 -17.46,-16.77 -17.58,-16.82 -17.71,-16.87 -17.81,-16.95 -17.92,-17.02 -18.01,-17.13 -18.09,-17.23 -18.15,-17.35 -18.21,-17.46 -18.24,-17.59 -18.27,-17.72 -18.27,-17.86 -18.27,-17.99 -18.23,-18.12 -18.20,-18.25 -18.00,-19.72 -17.80,-21.19 -17.48,-22.02 -17.16,-22.85 -16.87,-23.59 -16.58,-24.33 -16.43,-25.05 -16.28,-25.77 -16.19,-26.66 -16.10,-27.54 -15.64,-28.39 -15.19,-29.23 -14.84,-29.89 -14.50,-30.54 -14.12,-31.27 -13.73,-31.99 -12.90,-33.26 -12.07,-34.53 -11.50,-35.07 -10.94,-35.62 -10.28,-36.12 -9.63,-36.63 -8.98,-37.14 -8.33,-37.65 -7.65,-38.18 -6.97,-38.71 -6.47,-39.03 -5.97,-39.35 -5.03,-40.09 -4.09,-40.83 -3.43,-41.24 -2.77,-41.66 -1.70,-41.96 -0.63,-42.26 0.07,-42.41 0.78,-42.56 1.56,-42.27 2.33,-41.99 3.33,-41.67 4.33,-41.36 4.82,-41.02 5.31,-40.67 5.77,-40.35 6.23,-40.02 7.11,-39.55 8.00,-39.09 8.52,-38.73 9.04,-38.37 9.87,-37.74 10.69,-37.12 11.27,-36.21 11.85,-35.30 12.31,-34.73 12.77,-34.16 12.95,-33.56 13.14,-32.96 13.31,-32.22 13.49,-31.47 13.65,-30.26 13.82,-29.05 13.97,-27.77 14.12,-26.49 14.22,-25.31 14.31,-24.13 14.45,-23.36 14.58,-22.58 14.39,-22.07 14.21,-21.55 14.01,-20.90 13.82,-20.25 13.61,-19.56 13.40,-18.88 13.09,-17.85 12.79,-16.82 12.44,-15.95 12.09,-15.09 11.74,-14.44 11.38,-13.80 11.00,-13.12 10.63,-12.45 10.13,-11.62 9.64,-10.80 9.15,-9.98 8.66,-9.17 7.86,-7.65 7.05,-6.14 6.54,-5.26 6.03,-4.39 5.48,-3.69 4.93,-2.99 4.15,-2.09 3.38,-1.18 2.68,-0.53 1.99,0.12 1.15,0.44 0.30,0.76 0.21,0.79 0.11,0.82 0.01,0.82 -0.08,0.82 -0.18,0.80 -0.27,0.78 -0.36,0.73 -0.45,0.69 -0.53,0.62 -0.61,0.56 -0.66,0.47 -0.72,0.39 -0.76,0.30 -0.80,0.21 -0.81,0.11 -0.82,0.01 -0.81,-0.08 -0.80,-0.18 -0.77,-0.27 -0.74,-0.37 -0.68,-0.45 -0.63,-0.53 -0.55,-0.60 -0.48,-0.67 -0.39,-0.72 -0.30,-0.76 -0.30,-0.76 L -0.30,-0.76 Z"/></g><g transform="translate(119.3638173934416 184.87163834029656) rotate(0 5.7820436760078735 6.112446171779737)" stroke="none"><path fill="#ff0000" d="M 0.97,0.13 Q 0.97,0.13 0.76,1.28 0.55,2.43 0.39,4.09 0.23,5.74 0.20,6.83 0.17,7.92 0.15,9.41 0.12,10.89 0.52,11.43 0.93,11.97 1.72,10.96 2.52,9.95 3.51,8.37 4.51,6.80 5.23,5.94 5.95,5.09 6.43,4.29 6.91,3.49 7.86,2.87 8.82,2.25 9.38,2.00 9.94,1.75 10.43,1.54 10.92,1.33 11.57,1.25 12.22,1.17 12.36,1.18 12.49,1.20 12.62,1.25 12.75,1.30 12.86,1.38 12.98,1.45 13.07,1.56 13.16,1.66 13.22,1.78 13.29,1.90 13.32,2.04 13.35,2.17 13.35,2.31 13.35,2.45 13.32,2.58 13.29,2.71 13.22,2.83 13.16,2.96 13.07,3.06 12.98,3.16 12.86,3.24 12.75,3.32 12.62,3.37 12.49,3.41 12.36,3.43 12.22,3.45 11.63,3.23 11.04,3.02 10.22,2.65 9.40,2.28 8.87,1.65 8.34,1.02 7.31,0.70 6.28,0.37 5.62,0.39 4.95,0.42 4.04,0.53 3.13,0.65 2.05,0.56 0.96,0.48 0.86,0.62 0.75,0.76 0.61,0.86 0.47,0.96 0.30,1.01 0.14,1.06 -0.03,1.06 -0.20,1.05 -0.37,0.99 -0.53,0.93 -0.66,0.82 -0.80,0.71 -0.89,0.57 -0.99,0.42 -1.03,0.25 -1.07,0.08 -1.06,-0.08 -1.04,-0.26 -0.97,-0.42 -0.90,-0.58 -0.78,-0.71 -0.67,-0.84 -0.52,-0.92 -0.36,-1.01 -0.19,-1.04 -0.02,-1.07 0.14,-1.05 0.31,-1.02 0.47,-0.95 0.63,-0.87 0.75,-0.74 0.87,-0.62 0.95,-0.46 1.03,-0.31 1.05,-0.14 1.07,0.03 1.04,0.20 1.01,0.37 0.92,0.52 0.83,0.67 0.70,0.79 0.57,0.91 0.41,0.97 0.25,1.04 0.08,1.06 -0.09,1.07 -0.26,1.03 -0.42,0.98 -0.57,0.89 -0.72,0.80 -0.83,0.66 -0.94,0.52 -1.00,0.36 -1.05,0.19 -1.06,0.02 -1.06,-0.14 -1.01,-0.31 -0.96,-0.48 -0.96,-0.48 -0.96,-0.48 0.92,-0.89 2.80,-1.31 3.88,-1.52 4.95,-1.74 5.94,-1.71 6.93,-1.69 8.03,-1.39 9.13,-1.09 9.77,-0.36 10.41,0.35 11.32,0.76 12.22,1.17 12.36,1.18 12.49,1.20 12.62,1.25 12.75,1.30 12.86,1.38 12.98,1.45 13.07,1.56 13.16,1.66 13.22,1.78 13.29,1.90 13.32,2.04 13.35,2.17 13.35,2.31 13.35,2.45 13.32,2.58 13.29,2.71 13.22,2.83 13.16,2.96 13.07,3.06 12.98,3.16 12.86,3.24 12.75,3.32 12.62,3.37 12.49,3.41 12.36,3.43 12.22,3.45 11.88,3.36 11.54,3.28 10.60,3.48 9.67,3.69 8.98,4.06 8.28,4.42 7.77,5.28 7.26,6.14 6.66,6.93 6.06,7.73 5.07,9.46 4.08,11.19 3.34,12.16 2.61,13.13 1.83,13.46 1.05,13.79 0.47,13.61 -0.10,13.42 -0.56,13.03 -1.02,12.63 -1.23,11.77 -1.44,10.90 -1.47,9.41 -1.49,7.92 -1.52,6.71 -1.55,5.49 -1.43,4.39 -1.32,3.30 -1.27,2.74 -1.21,2.18 -1.09,1.02 -0.97,-0.13 -0.94,-0.25 -0.91,-0.36 -0.85,-0.47 -0.79,-0.57 -0.71,-0.66 -0.63,-0.75 -0.53,-0.81 -0.43,-0.88 -0.32,-0.92 -0.21,-0.96 -0.09,-0.97 0.02,-0.98 0.13,-0.96 0.25,-0.95 0.36,-0.90 0.47,-0.86 0.57,-0.79 0.66,-0.72 0.74,-0.63 0.82,-0.54 0.87,-0.43 0.92,-0.33 0.95,-0.21 0.98,-0.09 0.97,0.02 0.97,0.13 0.97,0.13 L 0.97,0.13 Z"/></g><g transform="translate(134.562332198948 106.56624684236118) rotate(0 0.8260062394297165 -14.042106070304882)" stroke="none"><path fill="#ff0000" d="M 0.33,0.84 Q 0.33,0.84 -0.49,1.18 -1.33,1.52 -2.71,1.22 -4.10,0.93 -5.35,0.24 -6.60,-0.43 -7.09,-0.73 -7.58,-1.02 -8.17,-1.58 -8.75,-2.14 -9.39,-2.83 -10.03,-3.52 -11.05,-5.30 -12.07,-7.09 -12.70,-8.28 -13.33,-9.47 -13.68,-10.91 -14.02,-12.35 -14.17,-13.55 -14.32,-14.76 -14.14,-16.50 -13.96,-18.25 -13.60,-19.31 -13.25,-20.38 -12.93,-21.25 -12.61,-22.11 -11.69,-23.05 -10.77,-23.98 -10.00,-25.09 -9.24,-26.20 -8.90,-26.63 -8.56,-27.06 -7.67,-27.73 -6.79,-28.40 -6.07,-28.81 -5.35,-29.22 -4.41,-29.44 -3.47,-29.66 -1.85,-29.46 -0.23,-29.26 0.70,-29.26 1.65,-29.25 2.56,-29.10 3.47,-28.95 4.31,-28.79 5.15,-28.64 6.42,-27.90 7.70,-27.15 8.45,-26.21 9.21,-25.28 9.96,-24.66 10.71,-24.05 11.42,-23.37 12.12,-22.69 12.80,-21.82 13.47,-20.95 14.14,-19.92 14.82,-18.89 15.08,-18.13 15.34,-17.38 15.75,-16.22 16.17,-15.06 16.01,-14.04 15.85,-13.02 15.70,-12.19 15.55,-11.36 15.41,-11.19 15.28,-11.02 15.20,-10.90 15.12,-10.78 15.01,-10.68 14.90,-10.58 14.78,-10.51 14.65,-10.44 14.51,-10.41 14.37,-10.37 14.23,-10.37 14.08,-10.36 13.94,-10.39 13.80,-10.43 13.67,-10.49 13.54,-10.56 13.43,-10.65 13.32,-10.74 13.23,-10.86 13.15,-10.98 13.09,-11.11 13.04,-11.25 13.02,-11.39 13.00,-11.54 13.01,-11.68 13.03,-11.82 13.08,-11.96 13.13,-12.10 13.07,-11.57 13.02,-11.04 12.55,-13.28 12.07,-15.52 12.10,-15.71 12.13,-15.89 12.22,-16.05 12.31,-16.21 12.44,-16.34 12.57,-16.46 12.74,-16.54 12.91,-16.62 13.09,-16.64 13.27,-16.66 13.45,-16.62 13.63,-16.58 13.79,-16.48 13.95,-16.39 14.07,-16.25 14.18,-16.11 14.25,-15.94 14.32,-15.77 14.33,-15.58 14.34,-15.40 14.29,-15.22 14.24,-15.05 14.14,-14.89 14.04,-14.74 13.89,-14.63 13.74,-14.52 13.57,-14.46 13.39,-14.40 13.21,-14.40 13.03,-14.40 12.85,-14.46 12.68,-14.52 12.53,-14.63 12.39,-14.74 12.28,-14.89 12.18,-15.05 12.13,-15.22 12.08,-15.40 12.09,-15.58 12.10,-15.77 12.17,-15.94 12.24,-16.11 12.36,-16.25 12.48,-16.39 12.63,-16.48 12.79,-16.58 12.97,-16.62 13.15,-16.66 13.33,-16.64 13.52,-16.62 13.68,-16.54 13.85,-16.46 13.98,-16.34 14.12,-16.21 14.20,-16.05 14.29,-15.89 14.32,-15.70 14.35,-15.52 14.35,-15.52 14.35,-15.52 14.53,-14.13 14.72,-12.74 15.00,-11.88 15.28,-11.02 15.20,-10.90 15.12,-10.78 15.01,-10.68 14.90,-10.58 14.78,-10.51 14.65,-10.44 14.51,-10.41 14.37,-10.37 14.23,-10.37 14.08,-10.36 13.94,-10.39 13.80,-10.43 13.67,-10.49 13.54,-10.56 13.43,-10.65 13.32,-10.74 13.23,-10.86 13.15,-10.98 13.09,-11.11 13.04,-11.25 13.02,-11.39 13.00,-11.54 13.01,-11.68 13.03,-11.82 13.08,-11.96 13.13,-12.10 13.50,-12.75 13.87,-13.41 14.05,-14.03 14.22,-14.66 14.10,-15.28 13.97,-15.89 13.85,-16.43 13.72,-16.97 13.66,-17.54 13.59,-18.11 12.94,-19.06 12.29,-20.01 11.64,-20.79 11.00,-21.57 10.38,-22.22 9.76,-22.86 8.86,-23.57 7.97,-24.27 7.40,-24.99 6.83,-25.71 5.79,-26.28 4.76,-26.85 3.94,-27.03 3.13,-27.21 2.38,-27.39 1.64,-27.57 0.61,-27.56 -0.42,-27.55 -1.77,-27.69 -3.13,-27.82 -3.84,-27.71 -4.55,-27.60 -5.15,-27.35 -5.76,-27.10 -6.84,-26.21 -7.93,-25.33 -8.82,-24.13 -9.71,-22.92 -10.44,-22.21 -11.17,-21.49 -11.51,-20.70 -11.85,-19.92 -12.16,-19.00 -12.47,-18.09 -12.61,-16.53 -12.76,-14.97 -12.58,-13.86 -12.40,-12.75 -12.08,-11.55 -11.77,-10.34 -11.07,-9.22 -10.38,-8.10 -9.42,-6.58 -8.46,-5.07 -7.78,-4.43 -7.09,-3.80 -6.69,-3.37 -6.29,-2.93 -5.79,-2.57 -5.28,-2.20 -4.77,-1.79 -4.25,-1.37 -3.71,-1.15 -3.16,-0.93 -2.56,-0.56 -1.97,-0.20 -1.15,-0.52 -0.33,-0.84 -0.23,-0.87 -0.12,-0.90 -0.01,-0.90 0.09,-0.90 0.20,-0.88 0.30,-0.85 0.40,-0.80 0.50,-0.76 0.58,-0.68 0.67,-0.61 0.73,-0.52 0.80,-0.43 0.84,-0.33 0.88,-0.23 0.89,-0.12 0.91,-0.01 0.90,0.09 0.88,0.20 0.85,0.30 0.81,0.40 0.75,0.50 0.69,0.59 0.61,0.66 0.53,0.74 0.43,0.79 0.33,0.84 0.33,0.84 L 0.33,0.84 Z"/></g><g transform="translate(143.15279708901687 93.68054950725787) rotate(0 3.3040249577188376 1.9824149746312827)" stroke="none"><path fill="#ff0000" d="M 0.73,-0.46 Q 0.73,-0.46 1.53,0.87 2.34,2.21 2.83,2.82 3.33,3.43 4.06,4.04 4.80,4.65 5.79,5.28 6.78,5.91 6.89,5.32 6.99,4.73 6.97,4.01 6.94,3.30 6.97,2.31 6.99,1.32 6.98,0.49 6.97,-0.33 7.13,-1.15 7.30,-1.96 7.36,-2.30 7.42,-2.64 7.43,-2.78 7.45,-2.92 7.50,-3.05 7.55,-3.18 7.63,-3.30 7.71,-3.41 7.82,-3.51 7.92,-3.60 8.05,-3.67 8.17,-3.73 8.31,-3.76 8.44,-3.80 8.59,-3.80 8.73,-3.80 8.86,-3.76 9.00,-3.73 9.12,-3.67 9.25,-3.60 9.35,-3.51 9.46,-3.41 9.54,-3.30 9.62,-3.18 9.67,-3.05 9.72,-2.92 9.74,-2.78 9.75,-2.64 9.11,-1.76 8.47,-0.88 6.79,-0.55 5.11,-0.21 4.20,0.03 3.29,0.29 2.40,0.47 1.52,0.66 0.78,0.96 0.04,1.25 0.20,1.09 0.37,0.93 0.25,0.96 0.13,0.99 0.01,1.00 -0.10,1.00 -0.22,0.97 -0.34,0.94 -0.44,0.89 -0.55,0.84 -0.65,0.76 -0.74,0.68 -0.81,0.58 -0.88,0.48 -0.92,0.37 -0.97,0.25 -0.99,0.13 -1.00,0.01 -0.99,-0.10 -0.98,-0.22 -0.94,-0.33 -0.90,-0.45 -0.83,-0.55 -0.76,-0.65 -0.67,-0.73 -0.58,-0.81 -0.48,-0.87 -0.37,-0.93 -0.12,-0.96 0.12,-1.00 0.28,-0.95 0.44,-0.90 0.57,-0.81 0.70,-0.71 0.80,-0.58 0.89,-0.45 0.94,-0.29 0.99,-0.14 0.99,0.01 0.99,0.18 0.93,0.33 0.88,0.48 0.78,0.61 0.67,0.74 0.54,0.83 0.40,0.92 0.24,0.96 0.08,1.00 -0.07,0.99 -0.23,0.98 -0.38,0.91 -0.53,0.85 -0.65,0.74 -0.78,0.63 -0.86,0.49 -0.94,0.35 -0.97,0.19 -1.00,0.03 -0.98,-0.12 -0.96,-0.28 -0.89,-0.43 -0.82,-0.58 -0.70,-0.69 -0.59,-0.81 -0.44,-0.88 -0.30,-0.96 -0.14,-0.98 0.01,-1.00 0.18,-0.97 0.34,-0.94 0.48,-0.86 0.62,-0.79 0.73,-0.67 0.84,-0.54 0.91,-0.40 0.97,-0.25 0.99,-0.08 1.00,0.07 0.96,0.23 0.92,0.39 0.84,0.52 0.75,0.66 0.62,0.77 0.50,0.87 0.35,0.93 0.19,0.98 0.28,0.96 0.37,0.93 0.25,0.96 0.13,0.99 0.01,1.00 -0.10,1.00 -0.22,0.97 -0.34,0.94 -0.44,0.89 -0.55,0.84 -0.65,0.76 -0.74,0.68 -0.81,0.58 -0.88,0.48 -0.92,0.37 -0.97,0.25 -0.99,0.13 -1.00,0.01 -0.99,-0.10 -0.98,-0.22 -0.94,-0.33 -0.90,-0.45 -0.83,-0.55 -0.76,-0.65 -0.67,-0.73 -0.58,-0.81 -0.48,-0.87 -0.37,-0.93 -0.53,-0.76 -0.70,-0.59 0.20,-0.96 1.11,-1.32 1.88,-1.46 2.65,-1.61 3.72,-2.02 4.79,-2.42 6.10,-2.53 7.42,-2.64 7.43,-2.78 7.45,-2.92 7.50,-3.05 7.55,-3.18 7.63,-3.30 7.71,-3.41 7.82,-3.51 7.92,-3.60 8.05,-3.67 8.17,-3.73 8.31,-3.76 8.44,-3.80 8.59,-3.80 8.73,-3.80 8.86,-3.76 9.00,-3.73 9.12,-3.67 9.25,-3.60 9.35,-3.51 9.46,-3.41 9.54,-3.30 9.62,-3.18 9.67,-3.05 9.72,-2.92 9.74,-2.78 9.75,-2.64 9.73,-2.47 9.71,-2.31 9.46,-1.82 9.21,-1.33 9.05,-0.83 8.88,-0.32 8.87,0.49 8.86,1.32 8.88,2.31 8.91,3.30 8.88,4.24 8.85,5.18 8.50,6.00 8.14,6.82 7.28,7.06 6.43,7.29 5.11,6.60 3.78,5.92 2.87,5.20 1.95,4.48 1.45,3.78 0.96,3.07 0.11,1.76 -0.73,0.46 -0.78,0.36 -0.82,0.27 -0.84,0.16 -0.86,0.06 -0.86,-0.03 -0.85,-0.14 -0.82,-0.24 -0.79,-0.34 -0.74,-0.43 -0.69,-0.52 -0.61,-0.60 -0.54,-0.67 -0.45,-0.73 -0.36,-0.78 -0.26,-0.82 -0.16,-0.85 -0.06,-0.86 0.03,-0.86 0.14,-0.85 0.24,-0.83 0.34,-0.79 0.43,-0.75 0.52,-0.68 0.60,-0.62 0.67,-0.54 0.73,-0.46 0.73,-0.46 L 0.73,-0.46 Z"/></g><g transform="translate(21.56467864496534 252.60414997353178) rotate(0 9.416471129498575 -8.260062394296966)" stroke="none"><path fill="#1c1c1c" d="M -0.00,-0.00 Q -0.00,-0.00 0.75,-1.79 1.51,-3.58 2.05,-5.13 2.59,-6.69 3.44,-8.38 4.28,-10.08 5.28,-12.06 6.27,-14.05 7.68,-15.66 9.10,-17.27 10.41,-17.89 11.72,-18.51 13.24,-17.98 14.75,-17.45 16.28,-14.94 17.82,-12.43 18.37,-10.49 18.91,-8.55 19.40,-7.08 19.89,-5.62 19.83,-4.29 19.77,-2.97 18.81,-0.98 17.85,0.99 17.84,0.99 17.84,0.99 17.83,0.98 17.83,0.98 17.86,-0.99 17.89,-2.97 17.83,-3.96 17.77,-4.95 17.26,-6.45 16.76,-7.96 16.32,-9.65 15.87,-11.34 14.76,-13.46 13.66,-15.59 12.86,-16.04 12.06,-16.50 11.39,-16.13 10.72,-15.76 9.49,-14.39 8.26,-13.03 7.27,-11.06 6.28,-9.08 5.47,-7.47 4.67,-5.86 3.89,-4.11 3.11,-2.36 1.55,-1.17 0.00,0.00 0,0 L -0.00,-0.00 Z"/></g><g transform="translate(24.53830110691223 244.34408757923484) rotate(0 7.103653659095414 1.3216099830875123)" stroke="none"><path fill="#1c1c1c" d="M 0.00,-0.00 Q 0.00,-0.00 0.55,0.70 1.10,1.42 1.96,1.32 2.82,1.22 4.27,1.38 5.72,1.54 8.24,1.22 10.76,0.91 12.48,0.94 14.20,0.98 14.20,0.98 14.20,0.99 14.20,0.99 14.20,1.00 12.62,1.69 11.04,2.38 8.27,3.06 5.50,3.74 3.98,3.57 2.46,3.40 1.33,2.97 0.21,2.54 0.10,1.27 -0.00,0.00 0,0 L 0.00,-0.00 Z"/></g><g transform="translate(138.1967596524387 341.4824213361673) rotate(0 5.782043676007902 -7.76445865063917)" stroke="none"><path fill="#1c1c1c" d="M -0.00,0.00 Q -0.00,0.00 -0.74,-1.21 -1.47,-2.43 -1.91,-3.16 -2.35,-3.89 -2.55,-6.03 -2.75,-8.16 -2.76,-9.86 -2.76,-11.56 -2.59,-13.27 -2.42,-14.98 -1.90,-16.58 -1.38,-18.19 -0.78,-19.48 -0.18,-20.76 0.93,-21.31 2.05,-21.85 3.49,-21.53 4.93,-21.22 6.03,-20.67 7.13,-20.13 8.12,-19.00 9.12,-17.88 9.70,-16.58 10.27,-15.29 10.46,-13.58 10.65,-11.87 10.09,-10.76 9.53,-9.66 8.95,-9.06 8.36,-8.45 7.56,-8.03 6.76,-7.60 6.13,-7.41 5.49,-7.21 4.69,-7.40 3.90,-7.58 3.48,-8.29 3.05,-9.01 3.19,-9.54 3.33,-10.08 3.81,-10.56 4.28,-11.05 5.35,-11.34 6.41,-11.63 7.75,-11.47 9.09,-11.31 10.29,-10.72 11.49,-10.13 12.35,-8.61 13.21,-7.09 13.74,-5.33 14.27,-3.57 13.95,-1.18 13.63,1.20 12.87,2.41 12.11,3.62 10.45,4.61 8.78,5.60 6.93,5.98 5.08,6.37 3.49,5.84 1.89,5.32 0.28,3.82 -1.31,2.33 -0.66,1.17 -0.00,0.00 -0.00,0.00 -0.00,0.00 -0.00,0.00 -0.00,0.00 -0.00,0.00 -0.00,0.00 -0.00,-0.00 -0.00,-0.00 -0.00,-0.00 -0.00,-0.00 -0.00,-0.00 -0.00,-0.00 -0.00,-0.00 -0.00,-0.00 -0.00,-0.00 -0.00,-0.00 -0.00,-0.00 -0.00,-0.00 -0.00,-0.00 0.00,-0.00 0.00,-0.00 0.00,-0.00 0.00,-0.00 0.00,-0.00 0.00,-0.00 0.00,-0.00 0.00,-0.00 0,0 -0.00,0.00 -0.00,0.00 -0.00,0.00 -0.00,0.00 -0.00,0.00 -0.00,0.00 -0.00,0.00 -0.00,0.00 -0.00,-0.00 -0.00,-0.00 -0.00,-0.00 -0.00,-0.00 -0.00,-0.00 -0.00,-0.00 -0.00,-0.00 -0.00,-0.00 -0.00,-0.00 -0.00,-0.00 -0.00,-0.00 -0.00,-0.00 -0.00,-0.00 0.00,-0.00 0.00,-0.00 0.00,-0.00 0.00,-0.00 0.00,-0.00 0.00,-0.00 0.00,-0.00 0.00,0.48 -0.00,0.96 1.36,2.11 2.72,3.26 3.77,3.73 4.82,4.20 6.28,3.92 7.73,3.64 9.04,2.98 10.35,2.31 10.91,1.54 11.47,0.78 11.81,-1.12 12.15,-3.03 11.69,-4.57 11.23,-6.11 10.77,-7.24 10.31,-8.36 9.53,-8.76 8.74,-9.16 7.77,-9.33 6.79,-9.50 5.93,-9.40 5.07,-9.30 5.43,-9.43 5.78,-9.57 6.30,-9.81 6.83,-10.04 7.23,-10.43 7.64,-10.82 8.07,-11.36 8.50,-11.91 8.36,-13.17 8.22,-14.44 7.81,-15.46 7.39,-16.47 6.73,-17.33 6.08,-18.19 5.19,-18.63 4.31,-19.08 3.44,-19.43 2.57,-19.77 2.04,-19.65 1.50,-19.54 1.11,-18.51 0.72,-17.48 0.25,-16.12 -0.21,-14.75 -0.37,-13.15 -0.53,-11.56 -0.54,-9.95 -0.54,-8.35 -0.41,-6.52 -0.28,-4.69 -0.06,-3.77 0.15,-2.84 0.08,-1.42 0.00,-0.00 0,0 L -0.00,0.00 Z"/></g><g transform="translate(248.88159573601826 321.9886740856264) rotate(0 -0.99120748731562 7.929659898525102)" stroke="none"><path fill="#1c1c1c" d="M -0.00,0.00 Q -0.00,0.00 -0.65,0.07 -1.31,0.14 -1.59,0.56 -1.87,0.97 -2.52,1.86 -3.17,2.74 -3.73,3.93 -4.29,5.12 -5.12,6.61 -5.96,8.11 -6.24,10.01 -6.53,11.90 -5.96,12.74 -5.39,13.58 -3.62,14.38 -1.86,15.18 -0.44,15.15 0.98,15.13 1.74,15.16 2.51,15.19 4.06,15.19 5.61,15.18 5.61,15.19 5.61,15.19 5.61,15.20 5.61,15.20 4.19,15.86 2.77,16.52 1.88,16.88 0.99,17.24 -0.88,17.22 -2.75,17.19 -4.96,16.01 -7.16,14.83 -7.91,13.35 -8.66,11.88 -8.29,9.48 -7.91,7.08 -7.09,5.60 -6.27,4.13 -5.51,2.67 -4.75,1.21 -3.75,0.45 -2.74,-0.31 -2.03,-0.56 -1.33,-0.81 -0.66,-0.40 0.00,-0.00 0,0 L -0.00,0.00 Z"/></g><g transform="translate(273.00097792736545 138.94569142800535) rotate(0 4.956037436578157 -8.590464890068873)" stroke="none"><path fill="#1c1c1c" d="M -0.00,0.00 Q -0.00,0.00 -0.60,-0.59 -1.20,-1.18 -1.16,-1.84 -1.11,-2.50 -1.41,-2.96 -1.71,-3.42 -1.39,-5.13 -1.07,-6.84 -1.08,-7.71 -1.09,-8.59 -0.92,-9.67 -0.75,-10.75 -0.76,-11.48 -0.76,-12.22 -0.76,-13.22 -0.76,-14.22 -0.56,-14.90 -0.35,-15.59 -0.00,-16.43 0.33,-17.28 0.83,-17.77 1.32,-18.26 2.44,-18.24 3.57,-18.22 4.00,-18.01 4.44,-17.81 5.00,-17.44 5.55,-17.08 6.29,-16.35 7.03,-15.63 7.45,-15.36 7.87,-15.10 8.44,-14.54 9.02,-13.97 9.52,-13.48 10.01,-12.98 10.59,-12.05 11.17,-11.12 11.38,-10.51 11.60,-9.90 11.62,-8.91 11.65,-7.92 11.65,-7.41 11.64,-6.90 11.28,-5.89 10.91,-4.87 10.53,-4.29 10.15,-3.70 10.03,-3.31 9.91,-2.91 9.64,-2.58 9.37,-2.25 9.25,-1.85 9.12,-1.46 8.59,-1.07 8.07,-0.69 7.50,-0.49 6.92,-0.30 5.94,-0.27 4.95,-0.25 4.46,-0.27 3.96,-0.29 3.23,-0.33 2.50,-0.36 1.25,-0.17 0,0.01 0,0.00 0,0 0,-0.00 0,-0.01 1.06,-0.81 2.12,-1.61 3.04,-1.98 3.96,-2.34 4.45,-2.36 4.95,-2.39 5.62,-2.36 6.28,-2.34 6.84,-2.42 7.39,-2.50 7.66,-3.09 7.92,-3.69 8.13,-4.28 8.34,-4.88 8.62,-5.29 8.90,-5.69 9.20,-6.33 9.49,-6.96 9.49,-7.44 9.48,-7.92 9.51,-8.59 9.54,-9.25 9.42,-9.63 9.30,-10.01 8.89,-10.74 8.48,-11.46 7.99,-11.96 7.49,-12.45 7.08,-12.88 6.66,-13.31 6.09,-13.70 5.51,-14.10 4.93,-14.70 4.35,-15.29 3.69,-15.71 3.03,-16.13 2.64,-16.37 2.24,-16.61 1.78,-16.35 1.32,-16.09 1.69,-16.11 2.06,-16.13 1.96,-15.56 1.85,-14.98 1.64,-14.58 1.42,-14.18 1.43,-13.20 1.43,-12.22 1.42,-11.30 1.41,-10.39 1.25,-9.49 1.09,-8.58 1.08,-7.48 1.07,-6.37 0.73,-5.11 0.39,-3.84 0.42,-2.98 0.45,-2.12 0.17,-1.78 -0.11,-1.45 -0.05,-0.73 0.00,-0.00 0,0 L -0.00,0.00 Z"/></g><g stroke-linecap="round"><g transform="translate(336.7686596113381 197.0965306838561) rotate(0 66.41090165014774 0)"><path d="M0 0 C22.14 0, 110.68 0, 132.82 0 M0 0 C22.14 0, 110.68 0, 132.82 0" stroke="#0400ff" stroke-width="0.5" fill="none"/></g><g transform="translate(336.7686596113381 197.0965306838561) rotate(0 66.41090165014774 0)"><path d="M104.63 10.26 C112.74 7.31, 120.86 4.35, 132.82 0 M104.63 10.26 C113.84 6.91, 123.05 3.56, 132.82 0" stroke="#0400ff" stroke-width="0.5" fill="none"/></g><g transform="translate(336.7686596113381 197.0965306838561) rotate(0 66.41090165014774 0)"><path d="M104.63 -10.26 C112.74 -7.31, 120.86 -4.35, 132.82 0 M104.63 -10.26 C113.84 -6.91, 123.05 -3.56, 132.82 0" stroke="#0400ff" stroke-width="0.5" fill="none"/></g></g><mask/><g stroke-linecap="round" transform="translate(659.6926569214136 10) rotate(0 30.185435037994722 30.185435037994736)"><path d="M60.37 30.19 C60.37 31.93, 60.22 33.71, 59.91 35.43 C59.61 37.15, 59.15 38.87, 58.55 40.51 C57.95 42.15, 57.2 43.77, 56.33 45.28 C55.45 46.79, 54.43 48.25, 53.31 49.59 C52.19 50.93, 50.93 52.19, 49.59 53.31 C48.25 54.43, 46.79 55.45, 45.28 56.33 C43.77 57.2, 42.15 57.95, 40.51 58.55 C38.87 59.15, 37.15 59.61, 35.43 59.91 C33.71 60.22, 31.93 60.37, 30.19 60.37 C28.44 60.37, 26.66 60.22, 24.94 59.91 C23.22 59.61, 21.5 59.15, 19.86 58.55 C18.22 57.95, 16.61 57.2, 15.09 56.33 C13.58 55.45, 12.12 54.43, 10.78 53.31 C9.44 52.19, 8.19 50.93, 7.06 49.59 C5.94 48.25, 4.92 46.79, 4.04 45.28 C3.17 43.77, 2.42 42.15, 1.82 40.51 C1.22 38.87, 0.76 37.15, 0.46 35.43 C0.16 33.71, 0 31.93, 0 30.19 C0 28.44, 0.16 26.66, 0.46 24.94 C0.76 23.22, 1.22 21.5, 1.82 19.86 C2.42 18.22, 3.17 16.61, 4.04 15.09 C4.92 13.58, 5.94 12.12, 7.06 10.78 C8.19 9.44, 9.44 8.19, 10.78 7.06 C12.12 5.94, 13.58 4.92, 15.09 4.04 C16.61 3.17, 18.22 2.42, 19.86 1.82 C21.5 1.22, 23.22 0.76, 24.94 0.46 C26.66 0.16, 28.44 0, 30.19 0 C31.93 0, 33.71 0.16, 35.43 0.46 C37.15 0.76, 38.87 1.22, 40.51 1.82 C42.15 2.42, 43.77 3.17, 45.28 4.04 C46.79 4.92, 48.25 5.94, 49.59 7.06 C50.93 8.19, 52.19 9.44, 53.31 10.78 C54.43 12.12, 55.45 13.58, 56.33 15.09 C57.2 16.61, 57.95 18.22, 58.55 19.86 C59.15 21.5, 59.61 23.22, 59.91 24.94 C60.22 26.66, 60.29 29.31, 60.37 30.19 C60.45 31.06, 60.45 29.31, 60.37 30.19" stroke="#1c1c1c" stroke-width="0.5" fill="none"/></g><g transform="translate(677.0130895087411 33.78080124345729) rotate(0 12.555294839331395 13.05089858298922)" stroke="none"><path fill="#1c1c1c" d="M -0.00,-0.00 Q -0.00,-0.00 0.85,-0.79 1.71,-1.58 2.67,-1.80 3.63,-2.01 4.62,-2.05 5.61,-2.09 6.74,-1.90 7.86,-1.71 9.59,-0.26 11.32,1.17 12.10,2.65 12.88,4.12 13.73,6.32 14.58,8.53 14.78,10.15 14.98,11.77 14.98,13.47 14.98,15.18 15.45,16.50 15.92,17.81 16.26,19.18 16.61,20.54 17.05,21.75 17.49,22.97 18.97,23.91 20.46,24.85 21.18,25.44 21.89,26.02 23.50,26.22 25.10,26.42 25.10,26.42 25.11,26.43 25.11,26.43 25.11,26.43 23.08,26.97 21.05,27.50 20.11,27.09 19.18,26.68 17.36,25.31 15.54,23.94 14.99,22.51 14.44,21.08 14.12,19.80 13.81,18.52 13.28,16.87 12.76,15.21 12.76,13.61 12.76,12.01 12.63,10.66 12.50,9.31 11.70,7.21 10.89,5.12 10.35,3.95 9.81,2.78 8.57,1.59 7.33,0.39 6.47,0.25 5.61,0.11 4.62,0.07 3.63,0.03 2.94,-0.18 2.24,-0.39 1.12,-0.19 0.00,0.00 0,0 L -0.00,-0.00 Z"/></g><g transform="translate(680.3171144664599 58.89139092212014) rotate(0 12.224892343559532 -13.381301078761112)" stroke="none"><path fill="#1c1c1c" d="M -0.00,-0.00 Q -0.00,-0.00 0.64,-1.01 1.28,-2.01 2.56,-3.71 3.84,-5.40 6.32,-7.88 8.79,-10.36 11.60,-13.17 14.41,-15.98 16.68,-18.75 18.96,-21.52 21.70,-24.14 24.44,-26.76 24.44,-26.76 24.44,-26.76 24.45,-26.75 24.45,-26.75 22.56,-23.43 20.68,-20.10 18.33,-17.26 15.98,-14.41 13.17,-11.60 10.36,-8.79 7.88,-6.32 5.40,-3.84 3.71,-2.56 2.01,-1.28 1.01,-0.64 0.00,0.00 0,0 L -0.00,-0.00 Z"/></g><g stroke-linecap="round" transform="translate(551.6376733425545 119.00700986589743) rotate(0 30.185435037994736 30.185435037994736)"><path d="M60.37 30.19 C60.37 31.93, 60.22 33.71, 59.91 35.43 C59.61 37.15, 59.15 38.87, 58.55 40.51 C57.95 42.15, 57.2 43.77, 56.33 45.28 C55.45 46.79, 54.43 48.25, 53.31 49.59 C52.19 50.93, 50.93 52.19, 49.59 53.31 C48.25 54.43, 46.79 55.45, 45.28 56.33 C43.77 57.2, 42.15 57.95, 40.51 58.55 C38.87 59.15, 37.15 59.61, 35.43 59.91 C33.71 60.22, 31.93 60.37, 30.19 60.37 C28.44 60.37, 26.66 60.22, 24.94 59.91 C23.22 59.61, 21.5 59.15, 19.86 58.55 C18.22 57.95, 16.61 57.2, 15.09 56.33 C13.58 55.45, 12.12 54.43, 10.78 53.31 C9.44 52.19, 8.19 50.93, 7.06 49.59 C5.94 48.25, 4.92 46.79, 4.04 45.28 C3.17 43.77, 2.42 42.15, 1.82 40.51 C1.22 38.87, 0.76 37.15, 0.46 35.43 C0.16 33.71, 0 31.93, 0 30.19 C0 28.44, 0.16 26.66, 0.46 24.94 C0.76 23.22, 1.22 21.5, 1.82 19.86 C2.42 18.22, 3.17 16.61, 4.04 15.09 C4.92 13.58, 5.94 12.12, 7.06 10.78 C8.19 9.44, 9.44 8.19, 10.78 7.06 C12.12 5.94, 13.58 4.92, 15.09 4.04 C16.61 3.17, 18.22 2.42, 19.86 1.82 C21.5 1.22, 23.22 0.76, 24.94 0.46 C26.66 0.16, 28.44 0, 30.19 0 C31.93 0, 33.71 0.16, 35.43 0.46 C37.15 0.76, 38.87 1.22, 40.51 1.82 C42.15 2.42, 43.77 3.17, 45.28 4.04 C46.79 4.92, 48.25 5.94, 49.59 7.06 C50.93 8.19, 52.19 9.44, 53.31 10.78 C54.43 12.12, 55.45 13.58, 56.33 15.09 C57.2 16.61, 57.95 18.22, 58.55 19.86 C59.15 21.5, 59.61 23.22, 59.91 24.94 C60.22 26.66, 60.29 29.31, 60.37 30.19 C60.45 31.06, 60.45 29.31, 60.37 30.19" stroke="#1c1c1c" stroke-width="0.5" fill="none"/></g><g stroke-linecap="round" transform="translate(773.4597982225032 117.57897043533984) rotate(0 30.18543503799475 30.185435037994736)"><path d="M60.37 30.19 C60.37 31.93, 60.22 33.71, 59.91 35.43 C59.61 37.15, 59.15 38.87, 58.55 40.51 C57.95 42.15, 57.2 43.77, 56.33 45.28 C55.45 46.79, 54.43 48.25, 53.31 49.59 C52.19 50.93, 50.93 52.19, 49.59 53.31 C48.25 54.43, 46.79 55.45, 45.28 56.33 C43.77 57.2, 42.15 57.95, 40.51 58.55 C38.87 59.15, 37.15 59.61, 35.43 59.91 C33.71 60.22, 31.93 60.37, 30.19 60.37 C28.44 60.37, 26.66 60.22, 24.94 59.91 C23.22 59.61, 21.5 59.15, 19.86 58.55 C18.22 57.95, 16.61 57.2, 15.09 56.33 C13.58 55.45, 12.12 54.43, 10.78 53.31 C9.44 52.19, 8.19 50.93, 7.06 49.59 C5.94 48.25, 4.92 46.79, 4.04 45.28 C3.17 43.77, 2.42 42.15, 1.82 40.51 C1.22 38.87, 0.76 37.15, 0.46 35.43 C0.16 33.71, 0 31.93, 0 30.19 C0 28.44, 0.16 26.66, 0.46 24.94 C0.76 23.22, 1.22 21.5, 1.82 19.86 C2.42 18.22, 3.17 16.61, 4.04 15.09 C4.92 13.58, 5.94 12.12, 7.06 10.78 C8.19 9.44, 9.44 8.19, 10.78 7.06 C12.12 5.94, 13.58 4.92, 15.09 4.04 C16.61 3.17, 18.22 2.42, 19.86 1.82 C21.5 1.22, 23.22 0.76, 24.94 0.46 C26.66 0.16, 28.44 0, 30.19 0 C31.93 0, 33.71 0.16, 35.43 0.46 C37.15 0.76, 38.87 1.22, 40.51 1.82 C42.15 2.42, 43.77 3.17, 45.28 4.04 C46.79 4.92, 48.25 5.94, 49.59 7.06 C50.93 8.19, 52.19 9.44, 53.31 10.78 C54.43 12.12, 55.45 13.58, 56.33 15.09 C57.2 16.61, 57.95 18.22, 58.55 19.86 C59.15 21.5, 59.61 23.22, 59.91 24.94 C60.22 26.66, 60.29 29.31, 60.37 30.19 C60.45 31.06, 60.45 29.31, 60.37 30.19" stroke="#1c1c1c" stroke-width="0.5" fill="none"/></g><g stroke-linecap="round"><g transform="translate(511.85866780171693 251.2172883368408) rotate(0 2.3707675446581575 21.971765968829956)"><path d="M0 0 C5.08 6.55, 30.39 31.99, 30.46 39.32 C30.52 46.64, 9.73 43.94, 0.36 43.94 C-9 43.94, -25.59 46.53, -25.71 39.32 C-25.84 32.1, -4.59 7.1, -0.36 0.66 M0 0 C5.08 6.55, 30.39 31.99, 30.46 39.32 C30.52 46.64, 9.73 43.94, 0.36 43.94 C-9 43.94, -25.59 46.53, -25.71 39.32 C-25.84 32.1, -4.59 7.1, -0.36 0.66" stroke="#1c1c1c" stroke-width="0.5" fill="none"/></g></g><mask/><g stroke-linecap="round"><g transform="translate(631.8139799685562 250.7412751933216) rotate(0 2.3707675446581504 21.971765968829956)"><path d="M0 0 C5.08 6.55, 30.39 31.99, 30.46 39.32 C30.52 46.64, 9.73 43.94, 0.36 43.94 C-9 43.94, -25.59 46.53, -25.71 39.32 C-25.84 32.1, -4.59 7.1, -0.36 0.66 M0 0 C5.08 6.55, 30.39 31.99, 30.46 39.32 C30.52 46.64, 9.73 43.94, 0.36 43.94 C-9 43.94, -25.59 46.53, -25.71 39.32 C-25.84 32.1, -4.59 7.1, -0.36 0.66" stroke="#1c1c1c" stroke-width="0.5" fill="none"/></g></g><mask/><g stroke-linecap="round"><g transform="translate(742.2490292650114 257.1674526308309) rotate(0 2.3707675446581504 21.971765968829956)"><path d="M0 0 C5.08 6.55, 30.39 31.99, 30.46 39.32 C30.52 46.64, 9.73 43.94, 0.36 43.94 C-9 43.94, -25.59 46.53, -25.71 39.32 C-25.84 32.1, -4.59 7.1, -0.36 0.66 M0 0 C5.08 6.55, 30.39 31.99, 30.46 39.32 C30.52 46.64, 9.73 43.94, 0.36 43.94 C-9 43.94, -25.59 46.53, -25.71 39.32 C-25.84 32.1, -4.59 7.1, -0.36 0.66" stroke="#1c1c1c" stroke-width="0.5" fill="none"/></g></g><mask/><g stroke-linecap="round"><g transform="translate(862.2043414318505 256.69143948731164) rotate(0 2.3707675446581504 21.971765968829956)"><path d="M0 0 C5.08 6.55, 30.39 31.99, 30.46 39.32 C30.52 46.64, 9.73 43.94, 0.36 43.94 C-9 43.94, -25.59 46.53, -25.71 39.32 C-25.84 32.1, -4.59 7.1, -0.36 0.66 M0 0 C5.08 6.55, 30.39 31.99, 30.46 39.32 C30.52 46.64, 9.73 43.94, 0.36 43.94 C-9 43.94, -25.59 46.53, -25.71 39.32 C-25.84 32.1, -4.59 7.1, -0.36 0.66" stroke="#1c1c1c" stroke-width="0.5" fill="none"/></g></g><mask/><g stroke-linecap="round"><g transform="translate(664.6493953528905 60.177987065801176) rotate(0 -31.892880615786623 32.13088718754622)"><path d="M0 0 C-10.63 10.71, -53.15 53.55, -63.79 64.26 M0 0 C-10.63 10.71, -53.15 53.55, -63.79 64.26" stroke="#1c1c1c" stroke-width="0.5" fill="none"/></g></g><mask/><g stroke-linecap="round"><g transform="translate(707.9665914131381 63.03406592691641) rotate(0 39.033077768574685 29.512814898190612)"><path d="M0 0 C13.01 9.84, 65.06 49.19, 78.07 59.03 M0 0 C13.01 9.84, 65.06 49.19, 78.07 59.03" stroke="#1c1c1c" stroke-width="0.5" fill="none"/></g></g><mask/><g stroke-linecap="round"><g transform="translate(565.1626483573771 175.3731677974484) rotate(0 -26.418729465315778 38.79507119681506)"><path d="M0 0 C-8.81 12.93, -44.03 64.66, -52.84 77.59 M0 0 C-8.81 12.93, -44.03 64.66, -52.84 77.59" stroke="#1c1c1c" stroke-width="0.5" fill="none"/></g></g><mask/><g stroke-linecap="round"><g transform="translate(592.2953975379717 178.22924665856362) rotate(0 21.18258488660456 35.93899233569985)"><path d="M0 0 C7.06 11.98, 35.3 59.9, 42.37 71.88 M0 0 C7.06 11.98, 35.3 59.9, 42.37 71.88" stroke="#1c1c1c" stroke-width="0.5" fill="none"/></g></g><mask/><g stroke-linecap="round"><g transform="translate(784.6047075197298 175.84918094096759) rotate(0 -20.706571743085362 41.1751369144111)"><path d="M0 0 C-6.9 13.73, -34.51 68.63, -41.41 82.35 M0 0 C-6.9 13.73, -34.51 68.63, -41.41 82.35" stroke="#1c1c1c" stroke-width="0.5" fill="none"/></g></g><mask/><g stroke-linecap="round"><g transform="translate(810.7854304132859 172.99310207985235) rotate(0 26.418729465315778 43.07918948848791)"><path d="M0 0 C8.81 14.36, 44.03 71.8, 52.84 86.16 M0 0 C8.81 14.36, 44.03 71.8, 52.84 86.16" stroke="#1c1c1c" stroke-width="0.5" fill="none"/></g></g><mask/><g transform="translate(574.682911227761 161.56878663539152) rotate(0 4.522124863432509 -13.804381162056899)" stroke="none"><path fill="#1c1c1c" d="M -0.00,0.00 Q -0.00,0.00 -0.80,-0.80 -1.59,-1.62 -1.82,-3.42 -2.06,-5.23 -2.29,-6.57 -2.52,-7.91 -2.29,-10.44 -2.05,-12.96 -1.82,-15.57 -1.58,-18.19 -0.84,-20.46 -0.10,-22.72 0.63,-24.44 1.37,-26.16 2.20,-27.04 3.03,-27.93 3.80,-28.27 4.56,-28.61 6.09,-28.12 7.62,-27.63 8.53,-26.53 9.44,-25.43 10.07,-25.01 10.70,-24.60 11.11,-23.65 11.52,-22.70 11.54,-21.58 11.57,-20.46 11.56,-19.48 11.55,-18.49 10.53,-16.58 9.52,-14.67 8.47,-13.59 7.41,-12.52 5.69,-12.00 3.97,-11.49 3.16,-12.40 2.36,-13.31 2.12,-14.98 1.89,-16.66 1.89,-16.66 1.90,-16.66 1.90,-16.66 1.91,-16.66 2.63,-15.47 3.35,-14.29 3.97,-13.77 4.59,-13.25 5.25,-13.69 5.90,-14.13 6.76,-14.96 7.61,-15.78 8.50,-17.21 9.38,-18.63 9.37,-19.55 9.36,-20.46 9.39,-21.25 9.42,-22.04 9.35,-22.52 9.29,-22.99 8.49,-23.53 7.69,-24.07 7.17,-24.87 6.65,-25.68 5.61,-26.00 4.58,-26.33 3.98,-25.78 3.38,-25.24 2.69,-23.63 2.00,-22.01 1.32,-20.00 0.63,-17.98 0.39,-15.36 0.15,-12.74 -0.08,-10.50 -0.33,-8.26 -0.08,-6.75 0.15,-5.23 -0.07,-3.71 -0.31,-2.18 -0.15,-1.09 0.00,-0.00 0,0 L -0.00,0.00 Z"/></g><g transform="translate(791.7449046725178 149.19244490389218) rotate(0 2.6180722893556663 3.0940854328748344)" stroke="none"><path fill="#1c1c1c" d="M -0.00,0.00 Q -0.00,0.00 -0.67,-1.10 -1.33,-2.21 -1.44,-2.77 -1.55,-3.33 -1.07,-5.38 -0.59,-7.42 0.18,-8.76 0.95,-10.09 1.99,-11.15 3.03,-12.22 4.32,-12.79 5.61,-13.37 7.36,-12.64 9.10,-11.90 10.00,-10.80 10.89,-9.69 11.45,-8.11 12.00,-6.53 12.26,-5.26 12.51,-3.99 12.27,-2.60 12.04,-1.20 11.40,0.42 10.77,2.06 9.83,2.51 8.90,2.95 7.72,2.96 6.54,2.97 4.61,1.69 2.68,0.42 1.38,-1.10 0.08,-2.63 -0.47,-3.98 -1.03,-5.32 -1.07,-6.71 -1.11,-8.10 -0.44,-9.50 0.21,-10.90 2.26,-11.00 4.31,-11.10 6.25,-10.28 8.18,-9.46 9.35,-7.36 10.51,-5.25 11.01,-4.01 11.51,-2.77 11.78,1.91 12.06,6.60 11.81,9.31 11.57,12.01 10.56,14.34 9.55,16.67 7.90,18.08 6.26,19.48 3.57,19.57 0.88,19.66 -1.52,18.38 -3.92,17.11 -5.29,15.01 -6.67,12.92 -6.98,10.54 -7.28,8.15 -6.52,5.99 -5.75,3.82 -2.26,0.99 1.22,-1.83 5.84,-3.06 10.46,-4.29 10.47,-4.28 10.47,-4.28 10.47,-4.27 10.47,-4.27 6.52,-2.17 2.58,-0.06 -0.59,2.33 -3.76,4.74 -4.42,6.38 -5.08,8.02 -4.91,9.92 -4.75,11.83 -3.74,13.54 -2.73,15.25 -0.85,16.36 1.02,17.46 3.09,17.55 5.16,17.64 6.37,16.66 7.58,15.68 8.47,13.73 9.36,11.78 9.60,9.25 9.83,6.72 9.63,2.36 9.43,-1.98 8.97,-3.12 8.52,-4.26 7.78,-5.96 7.04,-7.66 5.64,-8.27 4.24,-8.89 2.49,-8.98 0.73,-9.08 0.92,-8.58 1.11,-8.08 1.07,-7.09 1.03,-6.09 1.42,-5.06 1.81,-4.02 2.89,-2.70 3.98,-1.37 5.38,-0.26 6.78,0.83 7.50,0.84 8.23,0.84 8.72,0.82 9.22,0.79 9.53,-0.42 9.85,-1.64 10.09,-2.63 10.33,-3.62 10.11,-4.72 9.89,-5.83 9.49,-7.11 9.09,-8.39 8.56,-9.18 8.02,-9.98 6.92,-10.68 5.81,-11.38 5.19,-11.00 4.57,-10.62 3.71,-9.78 2.85,-8.94 2.19,-7.90 1.54,-6.85 1.07,-5.09 0.60,-3.32 0.49,-2.93 0.38,-2.54 0.19,-1.27 0.00,-0.00 0,0 L -0.00,0.00 Z"/></g><g transform="translate(165.31160780124623 163.4728392094683) rotate(0 4.998138006951649 6.18817086574964)" stroke="none"><path fill="#ff0000" d="M -0.68,-0.34 Q -0.68,-0.34 0.04,-1.76 0.77,-3.18 1.77,-4.43 2.77,-5.68 3.50,-6.63 4.22,-7.58 5.24,-7.84 6.26,-8.10 6.83,-7.36 7.40,-6.61 7.67,-3.57 7.94,-0.54 8.16,4.94 8.38,10.43 8.36,13.53 8.34,16.63 10.00,17.60 11.66,18.56 11.65,18.65 11.64,18.73 11.61,18.81 11.58,18.89 11.53,18.96 11.48,19.03 11.41,19.09 11.35,19.15 11.27,19.19 11.20,19.23 11.11,19.25 11.03,19.27 10.94,19.27 10.86,19.27 10.77,19.25 10.69,19.23 10.61,19.19 10.54,19.15 10.47,19.09 10.41,19.03 10.36,18.96 10.31,18.89 10.28,18.81 10.25,18.73 10.24,18.64 10.23,18.56 10.47,18.22 10.72,17.88 10.83,17.86 10.95,17.84 11.06,17.86 11.18,17.88 11.28,17.94 11.38,17.99 11.46,18.08 11.54,18.16 11.59,18.27 11.63,18.37 11.64,18.49 11.66,18.60 11.63,18.72 11.61,18.83 11.55,18.93 11.48,19.03 11.40,19.10 11.31,19.17 11.20,19.22 11.09,19.26 10.98,19.26 10.86,19.27 10.75,19.24 10.64,19.21 10.54,19.14 10.45,19.08 10.38,18.98 10.31,18.89 10.27,18.78 10.24,18.67 10.24,18.55 10.24,18.44 10.28,18.33 10.31,18.22 10.38,18.13 10.46,18.04 10.55,17.97 10.65,17.91 10.76,17.88 10.87,17.85 10.99,17.86 11.10,17.86 11.21,17.91 11.32,17.95 11.40,18.03 11.49,18.10 11.55,18.20 11.61,18.30 11.63,18.41 11.66,18.53 11.64,18.64 11.63,18.76 11.58,18.86 11.53,18.96 11.45,19.05 11.37,19.13 11.51,18.85 11.66,18.56 11.65,18.64 11.64,18.73 11.61,18.81 11.58,18.89 11.53,18.96 11.48,19.03 11.41,19.09 11.35,19.15 11.27,19.19 11.20,19.23 11.11,19.25 11.03,19.27 10.94,19.27 10.86,19.27 10.77,19.25 10.69,19.23 10.61,19.19 10.54,19.15 10.47,19.09 10.41,19.03 10.36,18.96 10.31,18.89 10.28,18.81 10.25,18.73 10.24,18.65 10.23,18.56 8.55,17.62 6.88,16.68 6.86,13.59 6.85,10.50 6.59,5.04 6.33,-0.40 6.13,-3.08 5.92,-5.75 5.61,-6.22 5.29,-6.69 4.59,-5.74 3.88,-4.79 2.98,-3.65 2.08,-2.52 1.38,-1.09 0.68,0.34 0.63,0.41 0.58,0.49 0.51,0.55 0.44,0.62 0.36,0.66 0.28,0.70 0.19,0.73 0.10,0.75 0.01,0.75 -0.07,0.76 -0.16,0.74 -0.25,0.72 -0.33,0.67 -0.42,0.63 -0.49,0.57 -0.56,0.51 -0.61,0.44 -0.67,0.36 -0.70,0.28 -0.73,0.19 -0.75,0.10 -0.76,0.01 -0.75,-0.07 -0.74,-0.16 -0.71,-0.25 -0.68,-0.34 -0.68,-0.34 L -0.68,-0.34 Z"/></g><g transform="translate(160.5514763660542 94.92694654270304) rotate(0 10.472289157422466 7.854216868066857)" stroke="none"><path fill="#ff0000" d="M -0.23,-0.81 Q -0.23,-0.81 1.44,-1.26 3.12,-1.71 4.41,-1.71 5.71,-1.70 7.93,-1.21 10.15,-0.71 11.18,-0.19 12.21,0.31 12.72,0.50 13.23,0.69 13.66,1.33 14.10,1.98 13.92,2.64 13.75,3.30 12.98,4.50 12.21,5.70 11.46,6.88 10.72,8.05 9.73,9.48 8.75,10.91 8.29,11.91 7.83,12.92 8.47,14.10 9.12,15.29 10.15,15.64 11.19,15.99 13.44,15.98 15.70,15.96 18.26,15.50 20.82,15.03 20.93,15.03 21.04,15.03 21.14,15.06 21.25,15.09 21.34,15.16 21.43,15.22 21.49,15.31 21.56,15.41 21.59,15.51 21.62,15.62 21.61,15.73 21.61,15.84 21.57,15.94 21.53,16.05 21.46,16.13 21.39,16.22 21.30,16.28 21.20,16.34 21.10,16.36 20.99,16.39 20.88,16.38 20.77,16.37 20.67,16.32 20.57,16.28 20.48,16.20 20.40,16.13 20.35,16.03 20.29,15.93 20.27,15.82 20.25,15.72 20.27,15.61 20.29,15.50 20.34,15.40 20.39,15.30 20.47,15.22 20.55,15.14 20.65,15.10 20.75,15.05 20.86,15.03 20.96,15.02 21.07,15.04 21.18,15.06 21.28,15.12 21.37,15.17 21.45,15.26 21.52,15.34 21.56,15.44 21.61,15.54 21.61,15.66 21.62,15.77 21.59,15.87 21.57,15.98 21.51,16.07 21.44,16.17 21.36,16.23 21.27,16.30 21.17,16.34 21.06,16.38 21.06,16.38 21.06,16.38 18.38,16.86 15.71,17.35 13.20,17.33 10.70,17.32 9.35,16.72 8.01,16.12 7.22,14.45 6.44,12.77 6.93,11.40 7.42,10.03 8.34,8.60 9.27,7.18 9.95,5.97 10.63,4.76 11.11,3.17 11.58,1.58 10.70,1.14 9.83,0.71 7.77,0.25 5.70,-0.19 4.62,-0.18 3.54,-0.18 1.88,0.31 0.23,0.81 0.13,0.83 0.03,0.84 -0.07,0.83 -0.17,0.83 -0.26,0.79 -0.36,0.76 -0.45,0.70 -0.53,0.65 -0.60,0.58 -0.67,0.50 -0.73,0.41 -0.78,0.32 -0.80,0.23 -0.83,0.13 -0.84,0.03 -0.84,-0.07 -0.82,-0.17 -0.80,-0.27 -0.75,-0.36 -0.71,-0.45 -0.65,-0.53 -0.58,-0.61 -0.50,-0.67 -0.42,-0.73 -0.32,-0.77 -0.23,-0.81 -0.23,-0.81 L -0.23,-0.81 Z"/></g><g transform="translate(505.6610054174766 288.66429595501876) rotate(0 7.140197152788062 -6.902190581028435)" stroke="none"><path fill="#1c1c1c" d="M -0.00,-0.00 Q -0.00,-0.00 -0.13,-1.26 -0.25,-2.52 -0.18,-3.54 -0.12,-4.55 0.62,-6.30 1.36,-8.05 1.83,-9.23 2.30,-10.40 2.52,-11.29 2.74,-12.18 3.29,-13.06 3.84,-13.94 4.50,-14.54 5.16,-15.15 5.78,-15.21 6.41,-15.28 6.93,-14.90 7.46,-14.53 8.06,-12.91 8.65,-11.29 9.14,-9.60 9.62,-7.91 10.56,-5.59 11.49,-3.26 11.82,-2.29 12.15,-1.31 13.21,-0.66 14.27,-0.00 14.27,-0.00 14.28,0 14.28,0.00 14.28,0.00 12.49,-0.28 10.69,-0.58 10.07,-1.51 9.44,-2.44 8.47,-4.87 7.50,-7.31 7.04,-8.95 6.57,-10.60 6.41,-12.00 6.26,-13.40 5.97,-13.05 5.67,-12.71 5.27,-12.16 4.87,-11.61 4.61,-10.59 4.36,-9.58 3.88,-8.38 3.39,-7.17 2.71,-5.59 2.02,-4.01 1.61,-3.12 1.20,-2.23 0.60,-1.11 0.00,0.00 0,0 L -0.00,-0.00 Z"/></g><g transform="translate(505.6610054174766 285.8082170939036) rotate(0 4.760131435192022 0.23800657175956985)" stroke="none"><path fill="#1c1c1c" d="M 0.00,-0.00 Q 0.00,-0.00 1.58,0.20 3.16,0.42 3.82,0.15 4.48,-0.11 7.00,-0.53 9.51,-0.96 9.51,-0.95 9.52,-0.95 9.52,-0.94 9.52,-0.94 7.27,0.53 5.03,2.02 3.78,2.22 2.54,2.43 1.27,1.22 -0.00,0.00 0,0 L 0.00,-0.00 Z"/></g><g transform="translate(625.6163175843158 284.85619080686513) rotate(0 5.236144578711276 -3.808105148153601)" stroke="none"><path fill="#1c1c1c" d="M -0.00,-0.00 Q -0.00,-0.00 -0.04,-1.02 -0.08,-2.04 -0.05,-3.04 -0.03,-4.04 -0.08,-4.64 -0.14,-5.23 -0.14,-5.95 -0.14,-6.66 -0.14,-7.60 -0.14,-8.55 -0.35,-9.10 -0.56,-9.66 -0.58,-10.33 -0.60,-10.99 -0.07,-12.17 0.44,-13.34 0.69,-13.82 0.93,-14.30 1.38,-14.72 1.83,-15.14 2.83,-15.25 3.82,-15.36 4.70,-15.09 5.58,-14.83 6.60,-14.33 7.63,-13.83 8.40,-13.31 9.17,-12.80 9.74,-12.24 10.31,-11.67 10.67,-10.77 11.02,-9.86 11.23,-9.26 11.44,-8.66 11.19,-7.89 10.95,-7.11 10.35,-6.49 9.76,-5.87 8.86,-5.51 7.95,-5.16 7.23,-4.92 6.51,-4.68 5.86,-4.65 5.21,-4.63 4.35,-4.89 3.48,-5.16 3.16,-5.13 2.85,-5.11 2.72,-5.12 2.59,-5.14 2.47,-5.19 2.35,-5.23 2.24,-5.30 2.14,-5.38 2.05,-5.48 1.97,-5.57 1.91,-5.69 1.85,-5.80 1.81,-5.93 1.78,-6.05 1.78,-6.18 1.78,-6.31 1.81,-6.44 1.85,-6.56 1.91,-6.68 1.97,-6.79 2.05,-6.89 2.14,-6.99 2.24,-7.06 2.35,-7.14 2.47,-7.18 2.59,-7.23 2.72,-7.24 2.85,-7.26 3.91,-7.48 4.97,-7.71 5.95,-7.95 6.93,-8.19 8.13,-7.95 9.32,-7.71 10.25,-7.09 11.18,-6.47 11.83,-4.57 12.48,-2.67 12.50,-1.09 12.52,0.47 12.28,1.99 12.03,3.51 11.46,4.89 10.89,6.27 9.64,6.97 8.40,7.67 7.15,7.47 5.91,7.26 3.89,6.27 1.88,5.27 0.91,4.43 -0.05,3.58 -0.03,1.79 -0.00,-0.00 -0.00,-0.00 0,0 0.00,0.00 0.00,0.00 0.50,1.06 1.00,2.12 1.94,2.70 2.88,3.29 4.67,4.20 6.46,5.11 7.12,5.38 7.77,5.64 8.44,5.40 9.10,5.15 9.47,4.14 9.85,3.14 10.08,1.80 10.32,0.47 10.34,-0.80 10.36,-2.08 10.06,-3.51 9.75,-4.94 9.25,-5.27 8.75,-5.61 8.05,-5.84 7.34,-6.08 6.42,-5.84 5.49,-5.61 4.17,-5.36 2.85,-5.11 2.72,-5.12 2.59,-5.14 2.47,-5.19 2.35,-5.23 2.24,-5.30 2.14,-5.38 2.05,-5.48 1.97,-5.57 1.91,-5.69 1.85,-5.80 1.81,-5.93 1.78,-6.05 1.78,-6.18 1.78,-6.31 1.81,-6.44 1.85,-6.56 1.91,-6.68 1.97,-6.79 2.05,-6.89 2.14,-6.99 2.24,-7.06 2.35,-7.14 2.47,-7.18 2.59,-7.23 2.72,-7.24 2.85,-7.26 3.09,-7.26 3.33,-7.26 3.73,-7.24 4.13,-7.21 4.99,-6.97 5.86,-6.74 6.56,-6.97 7.27,-7.21 7.79,-7.33 8.32,-7.45 8.91,-7.96 9.50,-8.47 9.23,-8.82 8.96,-9.17 8.84,-9.69 8.72,-10.22 8.33,-10.60 7.95,-10.99 7.30,-11.43 6.64,-11.87 5.77,-12.32 4.89,-12.77 4.34,-12.98 3.79,-13.19 3.33,-13.24 2.87,-13.30 2.64,-12.83 2.40,-12.36 1.96,-11.34 1.51,-10.32 1.78,-9.45 2.04,-8.58 2.04,-7.62 2.04,-6.66 2.04,-5.95 2.05,-5.23 1.99,-4.40 1.93,-3.56 1.48,-2.66 1.03,-1.76 0.52,-0.88 0.00,0.00 0,0 L -0.00,-0.00 Z"/></g><g transform="translate(746.0476428946743 277.7159936540771) rotate(0 -4.284118291672826 5.950164293990042)" stroke="none"><path fill="#1c1c1c" d="M 0.00,0.00 Q 0.00,0.00 -1.08,0.66 -2.17,1.32 -2.89,2.05 -3.61,2.79 -4.55,3.48 -5.48,4.18 -6.05,5.43 -6.62,6.68 -7.07,7.74 -7.52,8.80 -7.29,9.20 -7.06,9.60 -5.93,10.32 -4.81,11.05 -2.87,11.71 -0.94,12.36 -0.95,12.37 -0.95,12.37 -0.95,12.38 -0.95,12.38 -3.30,12.56 -5.66,12.74 -7.02,12.00 -8.38,11.25 -8.75,10.82 -9.11,10.39 -9.36,9.36 -9.60,8.33 -9.10,7.01 -8.61,5.69 -7.75,4.08 -6.89,2.48 -5.92,1.74 -4.95,1.01 -3.76,0.32 -2.58,-0.37 -1.29,-0.19 -0.00,-0.00 0,0 L 0.00,0.00 Z"/></g><g transform="translate(857.9107316216871 292.4724011031724) rotate(0 2.142059145836413 -7.378203724547632)" stroke="none"><path fill="#1c1c1c" d="M -0.00,0.00 Q -0.00,0.00 -0.78,-0.54 -1.56,-1.09 -1.81,-2.68 -2.05,-4.27 -2.28,-5.36 -2.51,-6.45 -2.52,-8.46 -2.53,-10.48 -2.28,-11.56 -2.02,-12.64 -1.79,-13.82 -1.55,-15.00 -0.99,-15.90 -0.44,-16.80 0.21,-17.40 0.87,-18.01 1.39,-18.12 1.90,-18.23 2.43,-18.21 2.95,-18.19 3.93,-17.63 4.90,-17.07 5.74,-16.00 6.59,-14.93 7.36,-13.42 8.12,-11.91 8.82,-10.75 9.52,-9.59 9.82,-8.23 10.13,-6.88 10.36,-5.95 10.59,-5.02 10.60,-3.91 10.61,-2.80 10.08,-1.62 9.56,-0.45 9.00,0.35 8.44,1.16 7.04,1.81 5.64,2.45 3.36,2.95 1.07,3.45 -0.38,2.95 -1.84,2.46 -3.06,1.95 -4.29,1.45 -4.97,0.53 -5.64,-0.39 -5.76,-0.45 -5.88,-0.52 -5.98,-0.61 -6.08,-0.70 -6.15,-0.81 -6.23,-0.92 -6.27,-1.05 -6.32,-1.18 -6.33,-1.31 -6.34,-1.44 -6.33,-1.58 -6.31,-1.71 -6.26,-1.83 -6.21,-1.96 -6.13,-2.07 -6.05,-2.18 -5.95,-2.26 -5.85,-2.35 -5.73,-2.41 -5.61,-2.47 -5.48,-2.50 -5.35,-2.53 -5.21,-2.53 -5.08,-2.53 -4.95,-2.49 -4.82,-2.46 -2.40,-1.23 0.00,-0.00 0.00,-0.00 0,0 -0.00,0.00 -0.00,0.00 -2.82,-0.19 -5.64,-0.39 -5.76,-0.45 -5.88,-0.52 -5.98,-0.61 -6.08,-0.70 -6.15,-0.81 -6.23,-0.92 -6.27,-1.05 -6.32,-1.18 -6.33,-1.31 -6.34,-1.44 -6.33,-1.58 -6.31,-1.71 -6.26,-1.83 -6.21,-1.96 -6.13,-2.07 -6.05,-2.18 -5.95,-2.26 -5.85,-2.35 -5.73,-2.41 -5.61,-2.47 -5.48,-2.50 -5.35,-2.53 -5.21,-2.53 -5.08,-2.53 -4.95,-2.49 -4.82,-2.46 -4.07,-1.48 -3.32,-0.50 -2.17,-0.05 -1.01,0.39 -0.09,0.85 0.82,1.30 2.82,0.85 4.82,0.39 5.80,0.09 6.78,-0.21 7.18,-0.83 7.57,-1.44 8.00,-2.17 8.42,-2.90 8.43,-3.70 8.44,-4.49 8.19,-5.47 7.95,-6.44 7.78,-7.47 7.61,-8.49 6.88,-9.71 6.15,-10.93 5.49,-12.27 4.83,-13.62 4.24,-14.45 3.66,-15.28 3.20,-15.68 2.75,-16.07 2.36,-16.16 1.97,-16.26 1.68,-15.91 1.39,-15.56 0.99,-15.03 0.60,-14.50 0.36,-13.30 0.12,-12.10 -0.09,-11.28 -0.31,-10.46 -0.33,-8.67 -0.34,-6.87 -0.09,-5.58 0.15,-4.28 -0.09,-3.02 -0.33,-1.75 -0.16,-0.88 0.00,-0.00 0,0 L -0.00,0.00 Z"/></g></svg>