<svg version="1.1" xmlns="http://www.w3.org/2000/svg" viewBox="0 0 1521.5776839224768 684.0118077684393" width="1521.5776839224768" height="684.0118077684393" filter="invert(93%) hue-rotate(180deg)" class="excalidraw-svg">
  <!-- svg-source:excalidraw -->
  
  <defs>
    <style class="style-fonts">
      @font-face {
        font-family: "Virgil";
        src: url("https://excalidraw.com/Virgil.woff2");
      }
      @font-face {
        font-family: "Cascadia";
        src: url("https://excalidraw.com/Cascadia.woff2");
      }
      @font-face {
        font-family: "Assistant";
        src: url("https://excalidraw.com/Assistant-Regular.woff2");
      }
    </style>
    
  </defs>
  <g stroke-linecap="round" transform="translate(473.09340281530467 10) rotate(0 41.25 41.25)"><path d="M82.5 41.25 C82.5 43.21, 82.36 45.18, 82.08 47.12 C81.8 49.06, 81.38 50.99, 80.83 52.87 C80.28 54.75, 79.59 56.61, 78.77 58.39 C77.96 60.17, 77.01 61.91, 75.95 63.55 C74.89 65.2, 73.71 66.78, 72.42 68.26 C71.14 69.74, 69.74 71.14, 68.26 72.42 C66.78 73.71, 65.2 74.89, 63.55 75.95 C61.91 77.01, 60.17 77.96, 58.39 78.77 C56.61 79.59, 54.75 80.28, 52.87 80.83 C50.99 81.38, 49.06 81.8, 47.12 82.08 C45.18 82.36, 43.21 82.5, 41.25 82.5 C39.29 82.5, 37.32 82.36, 35.38 82.08 C33.44 81.8, 31.51 81.38, 29.63 80.83 C27.75 80.28, 25.89 79.59, 24.11 78.77 C22.33 77.96, 20.59 77.01, 18.95 75.95 C17.3 74.89, 15.72 73.71, 14.24 72.42 C12.76 71.14, 11.36 69.74, 10.08 68.26 C8.79 66.78, 7.61 65.2, 6.55 63.55 C5.49 61.91, 4.54 60.17, 3.73 58.39 C2.91 56.61, 2.22 54.75, 1.67 52.87 C1.12 50.99, 0.7 49.06, 0.42 47.12 C0.14 45.18, 0 43.21, 0 41.25 C0 39.29, 0.14 37.32, 0.42 35.38 C0.7 33.44, 1.12 31.51, 1.67 29.63 C2.22 27.75, 2.91 25.89, 3.73 24.11 C4.54 22.33, 5.49 20.59, 6.55 18.95 C7.61 17.3, 8.79 15.72, 10.08 14.24 C11.36 12.76, 12.76 11.36, 14.24 10.08 C15.72 8.79, 17.3 7.61, 18.95 6.55 C20.59 5.49, 22.33 4.54, 24.11 3.73 C25.89 2.91, 27.75 2.22, 29.63 1.67 C31.51 1.12, 33.44 0.7, 35.38 0.42 C37.32 0.14, 39.29 0, 41.25 0 C43.21 0, 45.18 0.14, 47.12 0.42 C49.06 0.7, 50.99 1.12, 52.87 1.67 C54.75 2.22, 56.61 2.91, 58.39 3.73 C60.17 4.54, 61.91 5.49, 63.55 6.55 C65.2 7.61, 66.78 8.79, 68.26 10.08 C69.74 11.36, 71.14 12.76, 72.42 14.24 C73.71 15.72, 74.89 17.3, 75.95 18.95 C77.01 20.59, 77.96 22.33, 78.77 24.11 C79.59 25.89, 80.28 27.75, 80.83 29.63 C81.38 31.51, 81.8 33.44, 82.08 35.38 C82.36 37.32, 82.43 40.27, 82.5 41.25 C82.57 42.23, 82.57 40.27, 82.5 41.25" stroke="#1c1c1c" stroke-width="0.5" fill="none"/></g><g stroke-linecap="round" transform="translate(303.34340281530467 177.25) rotate(0 41.25 41.25)"><path d="M82.5 41.25 C82.5 43.21, 82.36 45.18, 82.08 47.12 C81.8 49.06, 81.38 50.99, 80.83 52.87 C80.28 54.75, 79.59 56.61, 78.77 58.39 C77.96 60.17, 77.01 61.91, 75.95 63.55 C74.89 65.2, 73.71 66.78, 72.42 68.26 C71.14 69.74, 69.74 71.14, 68.26 72.42 C66.78 73.71, 65.2 74.89, 63.55 75.95 C61.91 77.01, 60.17 77.96, 58.39 78.77 C56.61 79.59, 54.75 80.28, 52.87 80.83 C50.99 81.38, 49.06 81.8, 47.12 82.08 C45.18 82.36, 43.21 82.5, 41.25 82.5 C39.29 82.5, 37.32 82.36, 35.38 82.08 C33.44 81.8, 31.51 81.38, 29.63 80.83 C27.75 80.28, 25.89 79.59, 24.11 78.77 C22.33 77.96, 20.59 77.01, 18.95 75.95 C17.3 74.89, 15.72 73.71, 14.24 72.42 C12.76 71.14, 11.36 69.74, 10.08 68.26 C8.79 66.78, 7.61 65.2, 6.55 63.55 C5.49 61.91, 4.54 60.17, 3.73 58.39 C2.91 56.61, 2.22 54.75, 1.67 52.87 C1.12 50.99, 0.7 49.06, 0.42 47.12 C0.14 45.18, 0 43.21, 0 41.25 C0 39.29, 0.14 37.32, 0.42 35.38 C0.7 33.44, 1.12 31.51, 1.67 29.63 C2.22 27.75, 2.91 25.89, 3.73 24.11 C4.54 22.33, 5.49 20.59, 6.55 18.95 C7.61 17.3, 8.79 15.72, 10.08 14.24 C11.36 12.76, 12.76 11.36, 14.24 10.08 C15.72 8.79, 17.3 7.61, 18.95 6.55 C20.59 5.49, 22.33 4.54, 24.11 3.73 C25.89 2.91, 27.75 2.22, 29.63 1.67 C31.51 1.12, 33.44 0.7, 35.38 0.42 C37.32 0.14, 39.29 0, 41.25 0 C43.21 0, 45.18 0.14, 47.12 0.42 C49.06 0.7, 50.99 1.12, 52.87 1.67 C54.75 2.22, 56.61 2.91, 58.39 3.73 C60.17 4.54, 61.91 5.49, 63.55 6.55 C65.2 7.61, 66.78 8.79, 68.26 10.08 C69.74 11.36, 71.14 12.76, 72.42 14.24 C73.71 15.72, 74.89 17.3, 75.95 18.95 C77.01 20.59, 77.96 22.33, 78.77 24.11 C79.59 25.89, 80.28 27.75, 80.83 29.63 C81.38 31.51, 81.8 33.44, 82.08 35.38 C82.36 37.32, 82.43 40.27, 82.5 41.25 C82.57 42.23, 82.57 40.27, 82.5 41.25" stroke="#1c1c1c" stroke-width="0.5" fill="none"/></g><g stroke-linecap="round" transform="translate(130.84340281530467 338.25) rotate(0 41.25 41.25)"><path d="M82.5 41.25 C82.5 43.21, 82.36 45.18, 82.08 47.12 C81.8 49.06, 81.38 50.99, 80.83 52.87 C80.28 54.75, 79.59 56.61, 78.77 58.39 C77.96 60.17, 77.01 61.91, 75.95 63.55 C74.89 65.2, 73.71 66.78, 72.42 68.26 C71.14 69.74, 69.74 71.14, 68.26 72.42 C66.78 73.71, 65.2 74.89, 63.55 75.95 C61.91 77.01, 60.17 77.96, 58.39 78.77 C56.61 79.59, 54.75 80.28, 52.87 80.83 C50.99 81.38, 49.06 81.8, 47.12 82.08 C45.18 82.36, 43.21 82.5, 41.25 82.5 C39.29 82.5, 37.32 82.36, 35.38 82.08 C33.44 81.8, 31.51 81.38, 29.63 80.83 C27.75 80.28, 25.89 79.59, 24.11 78.77 C22.33 77.96, 20.59 77.01, 18.95 75.95 C17.3 74.89, 15.72 73.71, 14.24 72.42 C12.76 71.14, 11.36 69.74, 10.08 68.26 C8.79 66.78, 7.61 65.2, 6.55 63.55 C5.49 61.91, 4.54 60.17, 3.73 58.39 C2.91 56.61, 2.22 54.75, 1.67 52.87 C1.12 50.99, 0.7 49.06, 0.42 47.12 C0.14 45.18, 0 43.21, 0 41.25 C0 39.29, 0.14 37.32, 0.42 35.38 C0.7 33.44, 1.12 31.51, 1.67 29.63 C2.22 27.75, 2.91 25.89, 3.73 24.11 C4.54 22.33, 5.49 20.59, 6.55 18.95 C7.61 17.3, 8.79 15.72, 10.08 14.24 C11.36 12.76, 12.76 11.36, 14.24 10.08 C15.72 8.79, 17.3 7.61, 18.95 6.55 C20.59 5.49, 22.33 4.54, 24.11 3.73 C25.89 2.91, 27.75 2.22, 29.63 1.67 C31.51 1.12, 33.44 0.7, 35.38 0.42 C37.32 0.14, 39.29 0, 41.25 0 C43.21 0, 45.18 0.14, 47.12 0.42 C49.06 0.7, 50.99 1.12, 52.87 1.67 C54.75 2.22, 56.61 2.91, 58.39 3.73 C60.17 4.54, 61.91 5.49, 63.55 6.55 C65.2 7.61, 66.78 8.79, 68.26 10.08 C69.74 11.36, 71.14 12.76, 72.42 14.24 C73.71 15.72, 74.89 17.3, 75.95 18.95 C77.01 20.59, 77.96 22.33, 78.77 24.11 C79.59 25.89, 80.28 27.75, 80.83 29.63 C81.38 31.51, 81.8 33.44, 82.08 35.38 C82.36 37.32, 82.43 40.27, 82.5 41.25 C82.57 42.23, 82.57 40.27, 82.5 41.25" stroke="#1c1c1c" stroke-width="0.5" fill="none"/></g><g stroke-linecap="round"><g transform="translate(200.09340281530467 352.5) rotate(0 54.75 -52.25)"><path d="M0 0 C18.25 -17.42, 91.25 -87.08, 109.5 -104.5 M0 0 C18.25 -17.42, 91.25 -87.08, 109.5 -104.5" stroke="#1c1c1c" stroke-width="0.5" fill="none"/></g></g><mask/><g stroke-linecap="round"><g transform="translate(377.34340281530467 190) rotate(0 54.75 -52.25)"><path d="M0 0 C18.25 -17.42, 91.25 -87.08, 109.5 -104.5 M0 0 C18.25 -17.42, 91.25 -87.08, 109.5 -104.5" stroke="#1c1c1c" stroke-width="0.5" fill="none"/></g></g><mask/><g stroke-linecap="round"><g transform="translate(143.09340281530467 412.75) rotate(0 -44 44)"><path d="M0 0 C-14.67 14.67, -73.33 73.33, -88 88 M0 0 C-14.67 14.67, -73.33 73.33, -88 88" stroke="#1c1c1c" stroke-width="0.5" fill="none"/></g></g><mask/><g stroke-linecap="round"><g transform="translate(198.59340281530467 410.25) rotate(0 47.5 47.5)"><path d="M0 0 C15.83 15.83, 79.17 79.17, 95 95 M0 0 C15.83 15.83, 79.17 79.17, 95 95" stroke="#1c1c1c" stroke-width="0.5" fill="none"/></g></g><mask/><g stroke-linecap="round"><g transform="translate(53.228266463059356 503.75) rotate(0 2.660214004205301 40.625)"><path d="M0 0 C7.93 13.04, 54.62 64.71, 47.58 78.25 C40.54 91.79, -34.33 94.29, -42.26 81.25 C-50.19 68.21, -7.04 13.54, 0 0 M0 0 C7.93 13.04, 54.62 64.71, 47.58 78.25 C40.54 91.79, -34.33 94.29, -42.26 81.25 C-50.19 68.21, -7.04 13.54, 0 0" stroke="#1c1c1c" stroke-width="0.5" fill="none"/></g></g><mask/><g stroke-linecap="round"><g transform="translate(295.0571754485145 503.8375918232588) rotate(0 2.660214004205301 40.625)"><path d="M0 0 C7.93 13.04, 54.62 64.71, 47.58 78.25 C40.54 91.79, -34.33 94.29, -42.26 81.25 C-50.19 68.21, -7.04 13.54, 0 0 M0 0 C7.93 13.04, 54.62 64.71, 47.58 78.25 C40.54 91.79, -34.33 94.29, -42.26 81.25 C-50.19 68.21, -7.04 13.54, 0 0" stroke="#1c1c1c" stroke-width="0.5" fill="none"/></g></g><mask/><g stroke-linecap="round"><g transform="translate(461.5571754485145 347.3375918232588) rotate(0 2.660214004205322 40.625)"><path d="M0 0 C7.93 13.04, 54.62 64.71, 47.58 78.25 C40.54 91.79, -34.33 94.29, -42.26 81.25 C-50.19 68.21, -7.04 13.54, 0 0 M0 0 C7.93 13.04, 54.62 64.71, 47.58 78.25 C40.54 91.79, -34.33 94.29, -42.26 81.25 C-50.19 68.21, -7.04 13.54, 0 0" stroke="#1c1c1c" stroke-width="0.5" fill="none"/></g></g><mask/><g stroke-linecap="round"><g transform="translate(639.5999293420613 173.83759182325878) rotate(0 2.660214004205308 40.625)"><path d="M0 0 C7.93 13.04, 54.62 64.71, 47.58 78.25 C40.54 91.79, -34.33 94.29, -42.26 81.25 C-50.19 68.21, -7.04 13.54, 0 0 M0 0 C7.93 13.04, 54.62 64.71, 47.58 78.25 C40.54 91.79, -34.33 94.29, -42.26 81.25 C-50.19 68.21, -7.04 13.54, 0 0" stroke="#1c1c1c" stroke-width="0.5" fill="none"/></g></g><mask/><g stroke-linecap="round"><g transform="translate(363.59340281530467 252.75) rotate(0 47.5 47.5)"><path d="M0 0 C15.83 15.83, 79.17 79.17, 95 95 M0 0 C15.83 15.83, 79.17 79.17, 95 95" stroke="#1c1c1c" stroke-width="0.5" fill="none"/></g></g><mask/><g stroke-linecap="round"><g transform="translate(542.0934028153047 79.25) rotate(0 47.5 47.5)"><path d="M0 0 C15.83 15.83, 79.17 79.17, 95 95 M0 0 C15.83 15.83, 79.17 79.17, 95 95" stroke="#1c1c1c" stroke-width="0.5" fill="none"/></g></g><mask/><g transform="translate(149.09340281530467 365.75) rotate(0 19 15.75)" stroke="none"><path fill="#1c1c1c" d="M -0.00,-0.00 Q -0.00,-0.00 0.95,-1.22 1.92,-2.45 2.60,-3.14 3.28,-3.83 4.50,-4.20 5.72,-4.58 6.76,-4.83 7.80,-5.07 9.80,-4.57 11.80,-4.07 13.02,-3.82 14.23,-3.58 15.67,-2.75 17.10,-1.92 18.26,-0.26 19.43,1.38 20.48,3.98 21.53,6.58 22.06,8.92 22.58,11.25 23.09,14.02 23.59,16.80 24.09,19.28 24.59,21.77 25.54,23.90 26.50,26.02 27.89,27.36 29.28,28.71 30.32,30.00 31.37,31.30 32.30,32.24 33.24,33.18 33.77,33.38 34.30,33.59 36.15,34.29 37.99,34.99 37.99,34.99 38,35 38.00,35.00 38.00,35.00 35.84,35.20 33.69,35.40 32.72,35.11 31.75,34.81 30.69,33.75 29.62,32.69 28.67,31.49 27.71,30.28 26.10,28.63 24.49,26.97 23.45,24.59 22.40,22.22 21.90,19.71 21.40,17.19 20.90,14.47 20.41,11.74 19.93,9.57 19.46,7.41 18.51,5.01 17.56,2.61 16.73,1.26 15.89,-0.07 14.82,-0.74 13.76,-1.41 12.47,-1.67 11.19,-1.92 9.69,-2.42 8.19,-2.92 7.23,-2.66 6.27,-2.41 5.49,-2.29 4.71,-2.16 3.89,-1.35 3.07,-0.54 1.54,-0.27 0.00,0.00 0,0 L -0.00,-0.00 Z"/></g><g transform="translate(157.59340281530467 395.75) rotate(0 16 -22.5)" stroke="none"><path fill="#1c1c1c" d="M -0.00,0.00 Q -0.00,0.00 -0.49,-0.70 -0.97,-1.40 -0.89,-2.33 -0.80,-3.26 0.58,-7.09 1.98,-10.91 4.54,-14.52 7.10,-18.14 10.11,-21.91 13.13,-25.69 16.41,-29.22 19.68,-32.75 21.17,-34.48 22.65,-36.22 27.57,-40.61 32.49,-45.00 32.49,-45.00 32.5,-45 32.50,-44.99 32.50,-44.99 28.42,-39.88 24.34,-34.77 22.82,-33.01 21.31,-31.24 18.08,-27.77 14.86,-24.30 11.88,-20.58 8.89,-16.85 6.45,-13.47 4.01,-10.08 2.41,-6.40 0.80,-2.73 0.39,-2.16 -0.02,-1.59 -0.00,-0.79 0.00,-0.00 0,0 L -0.00,0.00 Z"/></g><g transform="translate(338.59340281530467 237.75) rotate(0 5 -18)" stroke="none"><path fill="#1c1c1c" d="M -0.00,0.00 Q -0.00,0.00 -0.77,-0.86 -1.54,-1.73 -2.06,-3.00 -2.59,-4.28 -3.09,-7.81 -3.60,-11.34 -3.85,-16.39 -4.11,-21.44 -4.11,-24.22 -4.11,-27.00 -3.59,-29.13 -3.08,-31.27 -2.55,-32.83 -2.02,-34.39 -0.79,-35.64 0.44,-36.88 1.97,-36.99 3.50,-37.11 5.66,-36.58 7.81,-36.05 9.52,-34.69 11.23,-33.32 12.62,-30.63 14.01,-27.94 14.06,-25.96 14.11,-23.98 13.57,-22.29 13.02,-20.60 11.84,-19.37 10.65,-18.14 8.37,-17.76 6.10,-17.39 4.13,-17.92 2.15,-18.44 0.60,-19.94 -0.95,-21.45 -1.98,-22.72 -3.00,-23.99 -3.00,-23.99 -3,-24 -2.99,-24.00 -2.99,-24.00 -1.51,-23.27 -0.04,-22.54 1.39,-21.55 2.84,-20.55 4.36,-20.07 5.89,-19.60 7.62,-19.73 9.34,-19.85 10.15,-20.62 10.97,-21.39 11.42,-22.70 11.88,-24.01 11.93,-25.53 11.98,-27.05 10.87,-29.36 9.76,-31.67 8.47,-32.80 7.18,-33.94 5.33,-34.41 3.49,-34.88 2.52,-35.00 1.55,-35.11 0.79,-34.35 0.02,-33.60 -0.44,-32.16 -0.91,-30.72 -1.40,-28.86 -1.88,-26.99 -1.88,-24.27 -1.88,-21.55 -1.64,-16.60 -1.39,-11.65 -0.90,-8.18 -0.40,-4.71 -0.43,-3.49 -0.45,-2.26 -0.22,-1.13 0.00,-0.00 0,0 L -0.00,0.00 Z"/></g><g transform="translate(505.59340281530467 61.25) rotate(0 9.75 7.75)" stroke="none"><path fill="#1c1c1c" d="M -0.00,0.00 Q -0.00,0.00 -1.04,-0.49 -2.08,-0.99 -2.58,-2.12 -3.08,-3.25 -2.80,-5.76 -2.53,-8.26 -1.66,-9.27 -0.78,-10.28 0.14,-11.09 1.06,-11.91 3.39,-11.74 5.72,-11.57 7.23,-10.42 8.75,-9.28 9.40,-7.54 10.06,-5.80 9.83,-3.57 9.60,-1.34 8.80,0.55 8.00,2.46 6.44,3.94 4.88,5.41 2.93,5.13 0.98,4.85 0.49,4.17 0.00,3.49 -0.24,2.98 -0.49,2.47 -0.79,0.30 -1.09,-1.86 -1.08,-3.48 -1.07,-5.10 -0.43,-6.15 0.19,-7.20 1.24,-7.62 2.29,-8.04 4.86,-7.26 7.44,-6.48 9.17,-4.30 10.90,-2.13 11.73,1.04 12.57,4.23 12.84,7.83 13.10,11.42 12.60,14.80 12.09,18.18 10.51,21.62 8.92,25.05 6.89,26.27 4.86,27.49 3.17,27.18 1.48,26.86 0.23,24.66 -1.00,22.47 -1.30,19.52 -1.60,16.57 -0.07,11.36 1.44,6.14 3.80,3.21 6.16,0.27 9.56,-1.60 12.97,-3.48 17.23,-4.24 21.5,-5.01 21.5,-5.00 21.5,-5 21.5,-4.99 21.5,-4.99 17.76,-3.25 14.02,-1.51 10.93,0.10 7.83,1.72 5.69,4.28 3.55,6.85 2.07,11.63 0.60,16.42 0.80,18.97 1.00,21.52 1.76,23.33 2.51,25.13 3.32,25.31 4.13,25.50 5.60,24.72 7.07,23.94 8.48,20.87 9.90,17.81 10.39,14.69 10.89,11.57 10.65,8.16 10.42,4.76 9.76,1.95 9.09,-0.86 7.82,-2.69 6.55,-4.51 4.63,-5.23 2.70,-5.95 2.25,-5.87 1.80,-5.79 1.43,-5.34 1.07,-4.89 1.08,-3.51 1.09,-2.13 1.29,-0.30 1.49,1.52 1.75,2.33 2.01,3.14 3.06,3.36 4.11,3.58 5.05,2.55 5.99,1.53 6.69,-0.05 7.39,-1.65 7.66,-3.42 7.93,-5.19 7.59,-6.45 7.24,-7.71 6.26,-8.57 5.27,-9.42 3.60,-9.75 1.93,-10.08 1.35,-9.40 0.78,-8.71 0.16,-8.22 -0.46,-7.73 -0.69,-5.73 -0.91,-3.74 -0.91,-2.87 -0.91,-2.00 -0.45,-1.00 0.00,-0.00 0,0 L -0.00,0.00 Z"/></g><g transform="translate(37.09340281530467 583.75) rotate(0 11.25 -13.75)" stroke="none"><path fill="#1c1c1c" d="M -0.01,0 Q -0.01,0 -0.44,-1.25 -0.88,-2.50 -0.74,-4.09 -0.59,-5.68 -0.60,-8.84 -0.61,-12.00 -0.36,-15.04 -0.10,-18.09 0.65,-20.94 1.42,-23.79 2.22,-26.12 3.02,-28.45 5.24,-29.95 7.46,-31.45 9.24,-30.71 11.02,-29.97 12.44,-28.34 13.85,-26.71 15.16,-24.37 16.47,-22.04 18.24,-17.99 20.02,-13.94 21.02,-11.42 22.03,-8.90 22.56,-6.05 23.09,-3.19 22.55,-0.10 22.00,2.99 22.00,2.99 22.00,3.00 22.00,3.00 22.00,3.00 22.00,3.00 22.00,3.00 22.00,3.00 22.00,3.00 22.00,3.00 22.00,3.00 22.00,3.00 22.00,3.00 22.00,3.00 22.00,3.00 21.99,3.00 21.99,3.00 21.99,3.00 21.99,3.00 21.99,3.00 21.99,3.00 21.99,3.00 21.99,3.00 21.99,3.00 21.99,3.00 21.99,3.00 21.99,3.00 21.99,3.00 22,3 22.00,2.99 22.00,2.99 22.00,2.99 22.00,3.00 22.00,3.00 22.00,3.00 22.00,3.00 22.00,3.00 22.00,3.00 22.00,3.00 22.00,3.00 22.00,3.00 22.00,3.00 22.00,3.00 22.00,3.00 22.00,3.00 21.99,3.00 21.99,3.00 21.99,3.00 21.99,3.00 21.99,3.00 21.99,3.00 21.99,3.00 21.99,3.00 21.99,3.00 21.99,3.00 21.99,3.00 21.99,3.00 21.44,0.10 20.90,-2.80 20.43,-5.44 19.96,-8.09 18.97,-10.57 17.97,-13.05 16.25,-17.00 14.52,-20.95 13.33,-23.12 12.14,-25.28 11.05,-26.65 9.97,-28.02 8.75,-28.78 7.53,-29.54 6.25,-28.54 4.97,-27.54 4.27,-25.37 3.57,-23.20 2.84,-20.55 2.10,-17.90 1.86,-14.95 1.61,-11.99 1.60,-8.65 1.59,-5.31 1.24,-3.90 0.88,-2.49 0.44,-1.24 0.01,0 0,0 L -0.01,0 Z"/></g><g transform="translate(37.59340281530467 569.75) rotate(0 9.5 3.5)" stroke="none"><path fill="#1c1c1c" d="M 0.01,0 Q 0.01,0 0.50,3.13 1.00,6.27 3.40,5.59 5.79,4.91 7.92,3.95 10.05,2.98 12.61,2.10 15.18,1.21 17.09,0.85 18.99,0.49 18.99,0.49 19,0.5 19.00,0.50 19.00,0.50 17.40,1.64 15.81,2.78 13.38,3.89 10.94,5.01 8.57,6.04 6.20,7.08 3.17,7.49 0.14,7.90 -0.43,7.31 -1.00,6.72 -0.50,3.36 -0.01,0 0,0 L 0.01,0 Z"/></g><g transform="translate(283.59340281530467 586.25) rotate(0 0.25 -14.75)" stroke="none"><path fill="#1c1c1c" d="M -0.00,0.00 Q -0.00,0.00 -1.42,-0.28 -2.84,-0.57 -3.36,-1.38 -3.89,-2.19 -4.90,-3.53 -5.92,-4.88 -7.44,-7.41 -8.96,-9.94 -9.77,-13.60 -10.58,-17.27 -10.60,-22.38 -10.61,-27.50 -10.07,-29.91 -9.54,-32.32 -7.90,-34.06 -6.26,-35.80 -4.35,-36.66 -2.43,-37.52 -0.59,-38.04 1.24,-38.57 4.27,-38.05 7.30,-37.54 8.54,-36.41 9.79,-35.28 10.88,-33.40 11.97,-31.52 12.28,-29.29 12.59,-27.06 11.29,-23.79 9.99,-20.52 8.34,-19.07 6.69,-17.63 4.53,-16.79 2.38,-15.95 -0.25,-15.67 -2.89,-15.39 -4.59,-15.67 -6.29,-15.95 -6.83,-16.45 -7.37,-16.94 -7.17,-17.87 -6.97,-18.81 -5.85,-19.19 -4.73,-19.57 -2.78,-19.33 -0.84,-19.09 2.21,-18.33 5.27,-17.57 7.61,-16.54 9.96,-15.51 11.61,-14.13 13.27,-12.75 13.92,-10.76 14.57,-8.77 14.31,-6.52 14.06,-4.27 11.44,-1.01 8.82,2.23 5.66,3.86 2.49,5.49 -0.27,6.75 -3.04,8.01 -5.99,8.54 -8.94,9.07 -10.30,8.43 -11.67,7.79 -12.34,4.14 -13.00,0.50 -13.00,0.50 -13,0.5 -12.99,0.49 -12.99,0.49 -11.65,3.35 -10.32,6.20 -9.69,6.56 -9.05,6.92 -6.50,6.45 -3.95,5.98 -1.22,4.74 1.50,3.50 4.33,2.13 7.17,0.76 9.55,-1.98 11.93,-4.72 12.18,-6.47 12.42,-8.22 12.07,-9.73 11.72,-11.24 10.38,-12.36 9.03,-13.48 6.88,-14.45 4.72,-15.42 1.78,-16.16 -1.15,-16.90 -2.71,-17.16 -4.26,-17.42 -5.14,-17.30 -6.02,-17.18 -5.86,-17.61 -5.70,-18.04 -4.40,-17.82 -3.10,-17.60 -0.74,-17.82 1.61,-18.04 3.46,-18.70 5.30,-19.36 6.65,-20.42 8.00,-21.47 9.20,-24.20 10.40,-26.93 10.21,-28.70 10.02,-30.47 9.11,-32.09 8.20,-33.71 7.45,-34.58 6.69,-35.45 4.22,-35.94 1.75,-36.42 0.09,-35.95 -1.56,-35.47 -3.14,-34.83 -4.73,-34.19 -6.09,-32.93 -7.45,-31.67 -7.92,-29.58 -8.38,-27.49 -8.39,-22.61 -8.41,-17.72 -7.72,-14.39 -7.03,-11.05 -5.55,-8.58 -4.07,-6.11 -3.09,-4.46 -2.10,-2.80 -2.13,-2.11 -2.15,-1.42 -1.07,-0.71 0.00,-0.00 0,0 L -0.00,0.00 Z"/></g><g transform="translate(461.59340281530467 393.25) rotate(0 -4 15.25)" stroke="none"><path fill="#1c1c1c" d="M 0.00,0.00 Q 0.00,0.00 -1.30,1.01 -2.60,2.02 -2.91,2.40 -3.22,2.78 -6.52,5.32 -9.82,7.87 -11.76,9.82 -13.71,11.78 -14.41,12.72 -15.11,13.66 -16.31,15.85 -17.52,18.03 -18.23,20.10 -18.94,22.17 -18.00,24.32 -17.05,26.47 -15.99,27.00 -14.93,27.54 -12.05,28.49 -9.17,29.43 -3.87,29.16 1.43,28.88 6.71,27.44 11.99,25.99 11.99,25.99 12,26 12.00,26.00 12.00,26.00 6.78,28.55 1.56,31.11 -4.12,31.33 -9.82,31.56 -12.94,30.50 -16.06,29.45 -17.50,28.49 -18.94,27.52 -19.99,24.67 -21.05,21.82 -20.26,19.39 -19.47,16.96 -18.18,14.64 -16.88,12.33 -16.08,11.27 -15.28,10.21 -13.23,8.17 -11.17,6.12 -7.97,3.67 -4.77,1.21 -4.08,0.59 -3.39,-0.02 -1.69,-0.01 -0.00,-0.00 0,0 L 0.00,0.00 Z"/></g><g transform="translate(625.0934028153047 245.25) rotate(0 6.5 -16)" stroke="none"><path fill="#1c1c1c" d="M 0.00,0.00 Q 0.00,0.00 -0.50,0.86 -1.01,1.72 -1.11,1.76 -1.20,1.81 -1.30,1.83 -1.40,1.86 -1.51,1.85 -1.61,1.85 -1.71,1.83 -1.82,1.80 -1.91,1.75 -2.00,1.70 -2.08,1.63 -2.15,1.56 -2.21,1.47 -2.27,1.38 -2.30,1.29 -2.34,1.19 -2.35,1.08 -2.36,0.98 -2.35,0.88 -2.33,0.77 -2.29,0.68 -2.25,0.58 -2.19,0.50 -2.13,0.41 -2.05,0.34 -1.98,0.27 -2.03,-1.18 -2.09,-2.65 -1.84,-3.93 -1.58,-5.21 -0.84,-9.94 -0.09,-14.67 0.90,-18.96 1.91,-23.25 2.91,-27.74 3.91,-32.24 5.19,-35.33 6.47,-38.43 7.72,-40.18 8.97,-41.92 9.03,-42.04 9.10,-42.16 9.19,-42.25 9.28,-42.35 9.40,-42.43 9.51,-42.50 9.64,-42.54 9.76,-42.59 9.90,-42.60 10.03,-42.61 10.16,-42.59 10.30,-42.57 10.42,-42.52 10.54,-42.46 10.65,-42.38 10.76,-42.30 10.85,-42.20 10.93,-42.10 10.99,-41.98 11.05,-41.86 11.08,-41.72 11.11,-41.59 11.10,-41.46 11.10,-41.32 11.06,-41.20 11.02,-41.07 11.85,-40.97 12.67,-40.88 14.79,-38.01 16.90,-35.14 17.73,-32.74 18.55,-30.34 19.08,-24.46 19.61,-18.58 18.60,-13.67 17.59,-8.76 15.81,-3.93 14.04,0.88 11.92,4.29 9.81,7.69 5.62,9.09 1.44,10.49 -0.60,9.19 -2.65,7.89 -3.77,6.51 -4.89,5.13 -5.63,0.91 -6.37,-3.30 -6.44,-3.41 -6.51,-3.53 -6.55,-3.65 -6.59,-3.78 -6.60,-3.92 -6.61,-4.05 -6.59,-4.18 -6.56,-4.32 -6.51,-4.44 -6.46,-4.56 -6.37,-4.67 -6.29,-4.78 -6.19,-4.86 -6.08,-4.94 -5.96,-5.00 -5.84,-5.06 -5.71,-5.08 -5.57,-5.11 -5.44,-5.10 -5.31,-5.09 -5.18,-5.06 -5.05,-5.02 -4.93,-4.95 -4.82,-4.88 -4.72,-4.79 -4.62,-4.69 -2.31,-2.35 0.00,-0.00 0.00,-0.00 0,0 -0.00,0.00 -0.00,0.00 -3.18,-1.64 -6.37,-3.30 -6.44,-3.41 -6.51,-3.53 -6.55,-3.65 -6.59,-3.78 -6.60,-3.92 -6.61,-4.05 -6.59,-4.18 -6.56,-4.32 -6.51,-4.44 -6.46,-4.56 -6.37,-4.67 -6.29,-4.78 -6.19,-4.86 -6.08,-4.94 -5.96,-5.00 -5.84,-5.06 -5.71,-5.08 -5.57,-5.11 -5.44,-5.10 -5.31,-5.09 -5.18,-5.06 -5.05,-5.02 -4.93,-4.95 -4.82,-4.88 -4.72,-4.79 -4.62,-4.69 -3.86,-0.41 -3.10,3.86 -2.22,4.98 -1.34,6.10 0.10,7.30 1.55,8.50 4.87,7.40 8.18,6.30 10.07,3.20 11.95,0.11 13.68,-4.56 15.40,-9.23 16.39,-13.82 17.38,-18.41 16.91,-24.03 16.44,-29.65 15.76,-31.75 15.09,-33.85 13.20,-36.48 11.32,-39.11 10.14,-40.52 8.97,-41.92 9.03,-42.04 9.10,-42.16 9.19,-42.25 9.28,-42.35 9.40,-42.43 9.51,-42.50 9.64,-42.54 9.76,-42.59 9.90,-42.60 10.03,-42.61 10.16,-42.59 10.30,-42.57 10.42,-42.52 10.54,-42.46 10.65,-42.38 10.76,-42.30 10.85,-42.20 10.93,-42.10 10.99,-41.98 11.05,-41.86 11.08,-41.72 11.11,-41.59 11.10,-41.46 11.10,-41.33 11.06,-41.20 11.02,-41.07 9.77,-39.31 8.52,-37.56 7.30,-34.66 6.08,-31.75 5.08,-27.25 4.08,-22.74 3.09,-18.53 2.09,-14.32 1.34,-9.55 0.58,-4.78 0.34,-3.56 0.09,-2.34 -0.46,-0.31 -1.01,1.72 -1.11,1.76 -1.20,1.81 -1.30,1.83 -1.40,1.86 -1.51,1.85 -1.61,1.85 -1.71,1.83 -1.81,1.80 -1.91,1.75 -2.00,1.70 -2.08,1.63 -2.15,1.56 -2.21,1.47 -2.27,1.38 -2.30,1.29 -2.34,1.19 -2.35,1.08 -2.36,0.98 -2.35,0.88 -2.33,0.77 -2.29,0.68 -2.25,0.58 -2.19,0.50 -2.13,0.41 -2.05,0.34 -1.98,0.27 -0.99,0.13 -0.00,-0.00 0,0 L 0.00,0.00 Z"/></g><g transform="translate(425.59340281530467 163.25) rotate(0 6 -23)" stroke="none"><path fill="#ff0000" d="M 0.30,0.60 Q 0.30,0.60 -0.77,1.11 -1.84,1.61 -2.79,1.42 -3.74,1.22 -4.79,0.69 -5.84,0.15 -7.92,-1.92 -10.00,-3.99 -11.04,-5.55 -12.08,-7.11 -12.85,-8.92 -13.63,-10.73 -14.39,-14.55 -15.16,-18.38 -14.66,-21.49 -14.16,-24.61 -13.14,-27.66 -12.12,-30.72 -8.31,-35.32 -4.51,-39.92 -3.48,-40.95 -2.45,-41.97 0.12,-43.28 2.70,-44.59 3.70,-45.09 4.70,-45.59 8.28,-46.61 11.86,-47.63 14.02,-47.13 16.18,-46.62 19.05,-44.31 21.92,-42.00 23.22,-40.19 24.53,-38.38 25.56,-36.33 26.59,-34.28 26.87,-32.43 27.15,-30.58 26.90,-28.74 26.65,-26.90 26.40,-25.15 26.15,-23.40 25.62,-21.50 25.10,-19.59 25.02,-19.51 24.94,-19.42 24.83,-19.37 24.73,-19.31 24.62,-19.29 24.50,-19.27 24.38,-19.29 24.27,-19.31 24.17,-19.36 24.06,-19.42 23.98,-19.50 23.90,-19.58 23.85,-19.69 23.80,-19.80 23.79,-19.91 23.77,-20.03 23.80,-20.14 23.82,-20.26 23.88,-20.36 23.94,-20.46 24.03,-20.54 24.12,-20.61 24.23,-20.66 24.33,-20.70 24.45,-20.71 24.57,-20.72 24.68,-20.68 24.79,-20.65 24.89,-20.59 24.99,-20.52 25.06,-20.43 25.13,-20.34 25.17,-20.23 25.21,-20.12 25.21,-20.00 25.21,-19.88 25.17,-19.77 25.14,-19.66 25.07,-19.57 25.00,-19.47 24.90,-19.41 24.80,-19.34 24.69,-19.31 24.58,-19.28 24.46,-19.28 24.34,-19.29 24.24,-19.33 24.13,-19.37 24.04,-19.45 23.95,-19.52 23.89,-19.62 23.82,-19.72 23.80,-19.84 23.77,-19.95 23.78,-20.07 23.80,-20.18 23.84,-20.29 23.89,-20.40 23.89,-20.40 23.89,-20.40 24.37,-21.99 24.84,-23.59 25.09,-25.34 25.34,-27.09 25.59,-28.75 25.84,-30.41 25.62,-32.06 25.40,-33.71 24.43,-35.66 23.46,-37.61 22.27,-39.30 21.07,-40.99 18.44,-43.18 15.81,-45.37 13.97,-45.86 12.13,-46.36 8.71,-45.38 5.29,-44.40 4.29,-43.90 3.29,-43.40 0.87,-42.21 -1.54,-41.02 -2.51,-40.04 -3.48,-39.07 -7.18,-34.67 -10.87,-30.27 -11.85,-27.33 -12.83,-24.38 -13.33,-21.50 -13.83,-18.61 -13.10,-14.94 -12.36,-11.26 -11.64,-9.57 -10.91,-7.88 -9.95,-6.44 -8.99,-5.00 -7.07,-3.07 -5.15,-1.15 -4.20,-0.69 -3.25,-0.22 -2.70,0.07 -2.15,0.38 -1.22,-0.11 -0.30,-0.60 -0.22,-0.63 -0.15,-0.66 -0.06,-0.67 0.01,-0.68 0.09,-0.66 0.17,-0.65 0.25,-0.62 0.32,-0.59 0.39,-0.54 0.46,-0.50 0.51,-0.43 0.56,-0.37 0.60,-0.30 0.64,-0.22 0.65,-0.14 0.67,-0.06 0.67,0.01 0.67,0.09 0.65,0.17 0.63,0.25 0.59,0.32 0.55,0.39 0.49,0.45 0.44,0.51 0.37,0.56 0.30,0.60 0.30,0.60 L 0.30,0.60 Z"/></g><g transform="translate(440.59340281530467 143.25) rotate(0 7.75 5.75)" stroke="none"><path fill="#ff0000" d="M 0.76,-0.19 Q 0.76,-0.19 1.00,0.81 1.24,1.81 1.72,3.28 2.20,4.76 2.92,6.22 3.64,7.67 4.34,8.88 5.05,10.09 6.30,10.74 7.56,11.38 8.37,10.88 9.19,10.39 9.86,9.91 10.54,9.44 10.93,8.33 11.33,7.23 11.82,5.28 12.32,3.32 12.83,2.04 13.35,0.76 13.67,-0.26 14,-1.28 14.59,-1.30 15.18,-1.32 15.34,-1.15 15.5,-0.98 15.61,-0.97 15.73,-0.95 15.84,-0.91 15.95,-0.87 16.05,-0.80 16.15,-0.73 16.23,-0.64 16.31,-0.56 16.36,-0.45 16.42,-0.35 16.45,-0.23 16.48,-0.11 16.47,0.00 16.47,0.11 16.45,0.23 16.42,0.35 16.36,0.45 16.31,0.56 16.23,0.64 16.15,0.73 16.05,0.80 15.95,0.87 15.84,0.91 15.73,0.95 15.61,0.97 15.49,0.98 14.49,1.00 13.5,1.01 12.25,0.96 11.00,0.91 8.79,1.13 6.59,1.34 5.37,1.56 4.15,1.78 2.16,1.33 0.17,0.88 0.06,0.89 -0.04,0.90 -0.14,0.88 -0.25,0.86 -0.35,0.82 -0.45,0.78 -0.54,0.71 -0.62,0.64 -0.69,0.56 -0.76,0.48 -0.81,0.38 -0.85,0.28 -0.88,0.17 -0.90,0.06 -0.89,-0.03 -0.89,-0.14 -0.86,-0.25 -0.83,-0.35 -0.77,-0.45 -0.72,-0.54 -0.64,-0.62 -0.56,-0.70 -0.47,-0.76 -0.38,-0.81 -0.28,-0.85 -0.17,-0.88 -0.51,-0.58 -0.85,-0.28 -0.78,-0.41 -0.72,-0.54 -0.61,-0.64 -0.50,-0.74 -0.37,-0.81 -0.24,-0.87 -0.09,-0.88 0.04,-0.90 0.19,-0.87 0.33,-0.84 0.46,-0.76 0.58,-0.68 0.68,-0.57 0.77,-0.46 0.82,-0.33 0.88,-0.19 0.89,-0.04 0.89,0.09 0.86,0.23 0.82,0.37 0.73,0.50 0.65,0.62 0.54,0.71 0.42,0.79 0.28,0.84 0.14,0.89 -0.00,0.89 -0.14,0.89 -0.28,0.84 -0.42,0.79 -0.54,0.71 -0.65,0.62 -0.73,0.50 -0.82,0.37 -0.86,0.23 -0.89,0.09 -0.89,-0.04 -0.88,-0.19 -0.82,-0.33 -0.77,-0.46 -0.68,-0.57 -0.58,-0.68 -0.46,-0.76 -0.33,-0.84 -0.19,-0.87 -0.04,-0.90 0.09,-0.88 0.24,-0.87 0.37,-0.81 0.50,-0.74 0.61,-0.64 0.72,-0.54 0.78,-0.41 0.85,-0.28 0.88,-0.14 0.90,0.00 0.54,0.44 0.17,0.88 0.06,0.89 -0.03,0.90 -0.14,0.88 -0.25,0.86 -0.35,0.82 -0.45,0.78 -0.54,0.71 -0.62,0.64 -0.69,0.56 -0.76,0.48 -0.81,0.38 -0.85,0.28 -0.88,0.17 -0.90,0.06 -0.89,-0.03 -0.89,-0.14 -0.86,-0.25 -0.83,-0.35 -0.77,-0.45 -0.72,-0.54 -0.64,-0.62 -0.56,-0.70 -0.47,-0.76 -0.38,-0.81 -0.28,-0.85 -0.17,-0.88 1.83,-0.33 3.84,0.21 5.12,-0.06 6.40,-0.34 8.70,-0.63 10.99,-0.91 12.24,-0.96 13.5,-1.01 14.49,-1.00 15.49,-0.98 15.61,-0.97 15.73,-0.95 15.84,-0.91 15.95,-0.87 16.05,-0.80 16.15,-0.73 16.23,-0.64 16.31,-0.56 16.36,-0.45 16.42,-0.35 16.45,-0.23 16.47,-0.11 16.47,-0.00 16.48,0.11 16.45,0.23 16.42,0.35 16.36,0.45 16.31,0.56 16.23,0.64 16.15,0.73 16.05,0.80 15.95,0.87 15.84,0.91 15.73,0.95 15.61,0.97 15.5,0.98 14.75,0.63 14,0.28 14.32,0.76 14.64,1.23 14.16,2.45 13.67,3.67 13.17,5.71 12.66,7.76 12.06,9.16 11.45,10.55 10.63,11.08 9.80,11.60 8.62,12.11 7.43,12.61 5.69,11.75 3.94,10.90 3.15,9.61 2.35,8.32 1.57,6.77 0.79,5.23 0.27,3.71 -0.24,2.18 -0.50,1.18 -0.76,0.19 -0.77,0.09 -0.79,0.00 -0.77,-0.09 -0.76,-0.18 -0.73,-0.27 -0.70,-0.36 -0.64,-0.44 -0.59,-0.52 -0.52,-0.58 -0.45,-0.64 -0.36,-0.69 -0.28,-0.73 -0.19,-0.76 -0.09,-0.78 -0.00,-0.78 0.09,-0.78 0.18,-0.76 0.27,-0.74 0.36,-0.69 0.44,-0.65 0.51,-0.58 0.59,-0.52 0.64,-0.44 0.69,-0.36 0.73,-0.28 0.76,-0.19 0.76,-0.19 L 0.76,-0.19 Z"/></g><g transform="translate(470.09340281530467 130.75) rotate(0 4.5 7.25)" stroke="none"><path fill="#ff0000" d="M -0.48,-0.48 Q -0.48,-0.48 0.26,-1.23 1.01,-1.97 1.98,-3.42 2.94,-4.87 4.26,-6.18 5.58,-7.50 7.28,-7.66 8.98,-7.82 9.54,-6.52 10.11,-5.22 10.13,-2.36 10.16,0.50 9.65,4.54 9.15,8.58 8.40,12.84 7.64,17.11 6.71,19.12 5.77,21.13 5.74,21.22 5.72,21.31 5.67,21.40 5.62,21.48 5.55,21.54 5.48,21.61 5.40,21.66 5.32,21.71 5.23,21.74 5.14,21.77 5.05,21.78 4.95,21.78 4.86,21.77 4.77,21.75 4.68,21.71 4.59,21.67 4.52,21.61 4.44,21.56 4.38,21.48 4.32,21.41 4.28,21.32 4.24,21.23 4.23,21.14 4.21,21.05 4.21,20.95 4.22,20.86 4.22,20.98 4.21,21.10 4.22,20.98 4.22,20.85 4.26,20.73 4.31,20.61 4.39,20.51 4.47,20.41 4.57,20.34 4.68,20.27 4.81,20.24 4.93,20.21 5.06,20.22 5.18,20.23 5.30,20.28 5.42,20.33 5.51,20.41 5.61,20.50 5.67,20.61 5.73,20.72 5.76,20.85 5.78,20.97 5.77,21.10 5.75,21.22 5.69,21.34 5.64,21.45 5.55,21.54 5.46,21.63 5.34,21.69 5.23,21.75 5.10,21.76 4.98,21.78 4.85,21.76 4.73,21.74 4.61,21.67 4.50,21.61 4.42,21.52 4.33,21.42 4.28,21.30 4.23,21.19 4.22,21.06 4.21,20.93 4.24,20.81 4.27,20.69 4.34,20.58 4.41,20.47 4.51,20.39 4.61,20.31 4.72,20.27 4.84,20.22 4.97,20.22 5.10,20.21 5.22,20.25 5.34,20.29 5.45,20.36 5.55,20.44 5.62,20.54 5.70,20.64 5.74,20.89 5.77,21.13 5.74,21.22 5.72,21.31 5.67,21.40 5.62,21.48 5.55,21.54 5.48,21.61 5.40,21.66 5.32,21.71 5.23,21.74 5.14,21.77 5.05,21.78 4.95,21.78 4.86,21.77 4.77,21.75 4.68,21.71 4.59,21.67 4.52,21.61 4.44,21.56 4.38,21.48 4.32,21.41 4.28,21.32 4.24,21.23 4.23,21.14 4.21,21.05 4.21,20.95 4.22,20.86 5.28,18.87 6.35,16.88 7.09,12.65 7.84,8.41 8.34,4.45 8.83,0.49 8.86,-2.13 8.88,-4.77 8.45,-5.97 8.01,-7.17 7.21,-6.83 6.41,-6.49 5.23,-5.31 4.05,-4.12 3.01,-2.57 1.98,-1.02 1.23,-0.26 0.48,0.48 0.41,0.53 0.35,0.58 0.27,0.61 0.20,0.65 0.12,0.66 0.04,0.68 -0.04,0.67 -0.12,0.67 -0.20,0.64 -0.28,0.62 -0.35,0.58 -0.42,0.53 -0.48,0.48 -0.53,0.42 -0.58,0.35 -0.62,0.28 -0.64,0.20 -0.67,0.12 -0.67,0.04 -0.68,-0.04 -0.66,-0.12 -0.65,-0.20 -0.61,-0.27 -0.58,-0.35 -0.53,-0.41 -0.48,-0.48 -0.48,-0.48 L -0.48,-0.48 Z"/></g><g transform="translate(256.59340281530467 318.25) rotate(0 -4 -19.75)" stroke="none"><path fill="#ff0000" d="M -0.25,0.64 Q -0.25,0.64 -1.50,0.14 -2.75,-0.36 -3.71,-0.59 -4.67,-0.82 -6.73,-1.85 -8.80,-2.88 -11.03,-3.88 -13.27,-4.88 -16.29,-6.39 -19.30,-7.90 -20.89,-9.47 -22.48,-11.05 -23.30,-13.16 -24.12,-15.27 -24.39,-18.61 -24.65,-21.96 -23.64,-25.82 -22.62,-29.69 -20.56,-32.30 -18.51,-34.91 -16.44,-36.47 -14.38,-38.03 -12.04,-38.82 -9.70,-39.62 -6.87,-39.88 -4.04,-40.15 -1.70,-39.64 0.64,-39.14 3.46,-37.86 6.28,-36.58 8.12,-34.77 9.97,-32.95 11.03,-30.60 12.10,-28.26 13.35,-24.99 14.61,-21.73 14.88,-19.91 15.15,-18.09 15.16,-17.05 15.18,-16.01 15.89,-14.40 16.60,-12.80 16.63,-12.69 16.67,-12.59 16.66,-12.48 16.66,-12.37 16.62,-12.27 16.59,-12.16 16.52,-12.08 16.45,-11.99 16.36,-11.93 16.26,-11.87 16.16,-11.85 16.05,-11.82 15.94,-11.83 15.83,-11.84 15.73,-11.88 15.63,-11.92 15.55,-12.00 15.47,-12.07 15.41,-12.16 15.36,-12.26 15.34,-12.37 15.32,-12.47 15.33,-12.58 15.35,-12.69 15.39,-12.79 15.44,-12.89 15.52,-12.97 15.60,-13.04 15.70,-13.09 15.79,-13.14 15.90,-13.16 16.01,-13.17 16.12,-13.15 16.23,-13.13 16.32,-13.08 16.42,-13.02 16.49,-12.94 16.56,-12.86 16.61,-12.76 16.65,-12.66 16.66,-12.55 16.67,-12.44 16.64,-12.34 16.62,-12.23 16.56,-12.14 16.50,-12.04 16.42,-11.97 16.33,-11.91 16.23,-11.87 16.12,-11.83 16.02,-11.83 15.91,-11.82 15.80,-11.86 15.70,-11.89 15.61,-11.95 15.52,-12.01 15.45,-12.10 15.39,-12.19 15.39,-12.19 15.39,-12.19 14.60,-14.09 13.81,-15.98 13.83,-16.94 13.84,-17.90 13.61,-19.58 13.38,-21.26 12.14,-24.50 10.89,-27.73 9.96,-29.89 9.02,-32.04 7.37,-33.72 5.71,-35.41 3.03,-36.63 0.35,-37.85 -1.79,-38.35 -3.95,-38.84 -6.62,-38.61 -9.29,-38.37 -11.45,-37.67 -13.61,-36.96 -15.55,-35.52 -17.48,-34.08 -19.43,-31.69 -21.37,-29.30 -22.35,-25.67 -23.34,-22.03 -23.10,-18.88 -22.87,-15.72 -22.19,-13.83 -21.51,-11.94 -20.10,-10.52 -18.69,-9.09 -15.70,-7.60 -12.72,-6.11 -10.46,-5.11 -8.19,-4.11 -6.26,-3.14 -4.32,-2.17 -3.28,-1.90 -2.24,-1.63 -0.99,-1.14 0.25,-0.64 0.33,-0.60 0.40,-0.56 0.46,-0.50 0.52,-0.45 0.57,-0.38 0.62,-0.31 0.64,-0.23 0.67,-0.15 0.68,-0.07 0.69,0.01 0.68,0.09 0.67,0.17 0.64,0.25 0.60,0.33 0.56,0.40 0.51,0.47 0.44,0.52 0.38,0.57 0.30,0.61 0.23,0.65 0.15,0.67 0.07,0.69 -0.01,0.68 -0.09,0.68 -0.17,0.66 -0.25,0.64 -0.25,0.64 L -0.25,0.64 Z"/></g><g transform="translate(263.59340281530467 305.75) rotate(0 7 5.25)" stroke="none"><path fill="#ff0000" d="M 0.69,-0.34 Q 0.69,-0.34 1.93,2.15 3.16,4.66 4.37,6.37 5.58,8.08 6.51,9.54 7.43,11.01 8.57,11.25 9.70,11.49 10.03,10.79 10.37,10.09 10.83,8.44 11.30,6.79 12.33,4.74 13.36,2.68 13.59,1.75 13.81,0.82 14.03,0.22 14.25,-0.36 14.48,-1.13 14.70,-1.89 14.76,-1.98 14.82,-2.07 14.90,-2.14 14.98,-2.22 15.07,-2.27 15.16,-2.32 15.27,-2.35 15.37,-2.38 15.48,-2.38 15.58,-2.38 15.69,-2.36 15.79,-2.33 15.89,-2.29 15.99,-2.24 16.07,-2.17 16.15,-2.10 16.21,-2.01 16.27,-1.92 16.31,-1.82 16.35,-1.72 16.37,-1.62 16.38,-1.51 16.37,-1.41 16.36,-1.30 16.33,-1.20 16.29,-1.10 15.60,-0.63 14.91,-0.16 14.11,0.12 13.30,0.41 12.26,0.64 11.21,0.87 9.67,1.10 8.13,1.32 6.63,1.55 5.12,1.77 3.56,1.76 2,1.75 1,1.29 0,0.84 -0.10,0.83 -0.20,0.82 -0.29,0.78 -0.39,0.75 -0.47,0.69 -0.56,0.63 -0.63,0.55 -0.69,0.48 -0.74,0.39 -0.79,0.30 -0.81,0.20 -0.84,0.10 -0.84,-0.00 -0.84,-0.10 -0.81,-0.20 -0.79,-0.30 -0.74,-0.39 -0.69,-0.48 -0.63,-0.55 -0.56,-0.63 -0.47,-0.69 -0.39,-0.75 -0.29,-0.78 -0.20,-0.82 -0.10,-0.83 0.00,-0.84 -0.18,-0.80 -0.37,-0.75 -0.24,-0.80 -0.11,-0.84 0.02,-0.83 0.15,-0.83 0.28,-0.78 0.41,-0.73 0.52,-0.65 0.63,-0.56 0.70,-0.45 0.77,-0.33 0.81,-0.20 0.84,-0.06 0.83,0.06 0.82,0.20 0.76,0.33 0.71,0.45 0.62,0.55 0.53,0.66 0.41,0.72 0.29,0.79 0.15,0.82 0.02,0.84 -0.11,0.82 -0.24,0.81 -0.37,0.74 -0.49,0.68 -0.59,0.59 -0.68,0.49 -0.74,0.37 -0.81,0.24 -0.82,0.11 -0.84,-0.02 -0.82,-0.15 -0.79,-0.29 -0.72,-0.41 -0.66,-0.53 -0.55,-0.62 -0.45,-0.71 -0.33,-0.76 -0.20,-0.82 -0.06,-0.83 0.06,-0.84 0.20,-0.81 0.33,-0.77 0.45,-0.70 0.56,-0.63 0.65,-0.52 0.73,-0.41 0.78,-0.28 0.83,-0.15 0.83,-0.02 0.84,0.11 0.80,0.24 0.75,0.37 0.67,0.48 0.59,0.59 0.29,0.72 0.00,0.84 -0.10,0.83 -0.20,0.82 -0.29,0.78 -0.39,0.75 -0.47,0.69 -0.56,0.63 -0.63,0.55 -0.69,0.48 -0.74,0.39 -0.79,0.30 -0.81,0.20 -0.84,0.10 -0.84,0.00 -0.84,-0.10 -0.81,-0.20 -0.79,-0.30 -0.74,-0.39 -0.69,-0.48 -0.63,-0.55 -0.56,-0.63 -0.47,-0.69 -0.39,-0.75 -0.29,-0.78 -0.20,-0.82 -0.10,-0.83 0,-0.84 1,-0.29 2,0.24 3.43,0.23 4.87,0.22 6.36,-0.05 7.86,-0.32 9.32,-0.60 10.78,-0.87 11.73,-1.14 12.69,-1.41 13.69,-1.65 14.70,-1.89 14.76,-1.98 14.82,-2.07 14.90,-2.14 14.98,-2.22 15.07,-2.27 15.16,-2.32 15.27,-2.35 15.37,-2.38 15.48,-2.38 15.58,-2.38 15.69,-2.36 15.79,-2.33 15.89,-2.29 15.99,-2.24 16.07,-2.17 16.15,-2.10 16.21,-2.01 16.27,-1.92 16.31,-1.82 16.35,-1.72 16.37,-1.62 16.38,-1.51 16.37,-1.41 16.36,-1.30 16.33,-1.20 16.29,-1.10 15.74,0.03 15.18,1.17 14.90,2.24 14.63,3.31 13.66,5.25 12.69,7.20 12.16,9.05 11.62,10.90 10.96,11.70 10.29,12.50 8.42,12.24 6.56,11.98 5.48,10.45 4.41,8.91 3.12,7.12 1.83,5.33 0.56,2.84 -0.69,0.34 -0.72,0.25 -0.75,0.17 -0.76,0.07 -0.77,-0.01 -0.76,-0.10 -0.75,-0.20 -0.71,-0.28 -0.68,-0.37 -0.62,-0.45 -0.57,-0.52 -0.50,-0.58 -0.42,-0.64 -0.34,-0.69 -0.26,-0.73 -0.17,-0.75 -0.07,-0.77 0.01,-0.77 0.10,-0.77 0.19,-0.74 0.29,-0.72 0.37,-0.67 0.45,-0.63 0.52,-0.56 0.59,-0.50 0.64,-0.42 0.69,-0.34 0.69,-0.34 L 0.69,-0.34 Z"/></g><g transform="translate(291.59340281530467 302.25) rotate(0 12.5 8)" stroke="none"><path fill="#ff0000" d="M -0.75,0 Q -0.75,0 -0.37,-1.37 0,-2.75 0.75,-2.80 1.50,-2.84 3.07,-2.56 4.64,-2.27 6.23,-1.47 7.83,-0.67 8.98,-0.44 10.14,-0.21 12.69,0.56 15.23,1.34 16.14,2.24 17.05,3.15 17.10,4.40 17.15,5.64 16.31,6.57 15.47,7.50 13.36,8.32 11.24,9.14 10.33,9.82 9.42,10.51 9.01,11.40 8.60,12.30 8.04,13.51 7.49,14.73 8.68,15.59 9.88,16.46 12.49,16.90 15.11,17.34 17.26,17.09 19.42,16.84 20.09,16.56 20.75,16.27 22.75,15.54 24.74,14.81 24.85,14.79 24.97,14.76 25.09,14.78 25.20,14.79 25.31,14.85 25.42,14.90 25.50,14.98 25.59,15.06 25.64,15.17 25.69,15.28 25.71,15.39 25.73,15.51 25.70,15.63 25.68,15.74 25.63,15.85 25.57,15.95 25.48,16.03 25.39,16.11 25.28,16.16 25.18,16.20 25.06,16.21 24.94,16.22 24.83,16.20 24.71,16.17 24.61,16.11 24.51,16.04 24.44,15.95 24.36,15.86 24.32,15.75 24.28,15.64 24.27,15.52 24.27,15.40 24.30,15.29 24.34,15.17 24.41,15.08 24.47,14.98 24.57,14.91 24.67,14.84 24.78,14.81 24.89,14.77 25.01,14.77 25.13,14.78 25.24,14.82 25.35,14.86 25.44,14.93 25.54,15.00 25.60,15.10 25.66,15.20 25.69,15.32 25.72,15.43 25.71,15.55 25.71,15.67 25.66,15.78 25.61,15.88 25.54,15.97 25.46,16.06 25.35,16.12 25.25,16.18 25.25,16.18 25.25,16.18 23.24,16.95 21.24,17.72 20.40,17.93 19.57,18.15 17.23,18.40 14.88,18.65 12.00,18.09 9.11,17.53 7.81,16.40 6.50,15.26 6.95,13.48 7.39,11.69 7.98,10.59 8.57,9.48 9.66,8.67 10.75,7.85 12.63,7.17 14.52,6.49 15.18,5.92 15.84,5.35 15.89,4.59 15.94,3.84 15.35,3.25 14.76,2.65 12.30,1.93 9.85,1.21 8.51,0.94 7.16,0.67 5.76,-0.02 4.35,-0.72 2.92,-0.93 1.49,-1.15 0.74,-1.19 0,-1.24 0.37,-0.62 0.75,0 0.74,0.09 0.73,0.18 0.70,0.26 0.66,0.35 0.61,0.42 0.56,0.50 0.49,0.56 0.42,0.62 0.34,0.66 0.26,0.70 0.17,0.72 0.09,0.74 -0.00,0.74 -0.09,0.74 -0.17,0.72 -0.26,0.70 -0.34,0.66 -0.42,0.62 -0.49,0.56 -0.56,0.50 -0.61,0.42 -0.66,0.35 -0.70,0.26 -0.73,0.18 -0.74,0.09 -0.75,-0.00 -0.75,-0.00 L -0.75,0 Z"/></g><g stroke-linecap="round" transform="translate(1289.694350068462 400.83505412201555) rotate(90.5757971607225 41.33014866611114 41.33014866611114)"><path d="M82.66 41.33 C82.66 43.29, 82.52 45.27, 82.24 47.21 C81.96 49.15, 81.54 51.09, 80.99 52.97 C80.43 54.86, 79.74 56.72, 78.93 58.5 C78.11 60.28, 77.16 62.03, 76.1 63.67 C75.04 65.32, 73.85 66.91, 72.57 68.4 C71.28 69.88, 69.88 71.28, 68.4 72.57 C66.91 73.85, 65.32 75.04, 63.67 76.1 C62.03 77.16, 60.28 78.11, 58.5 78.93 C56.72 79.74, 54.86 80.43, 52.97 80.99 C51.09 81.54, 49.15 81.96, 47.21 82.24 C45.27 82.52, 43.29 82.66, 41.33 82.66 C39.37 82.66, 37.39 82.52, 35.45 82.24 C33.51 81.96, 31.57 81.54, 29.69 80.99 C27.8 80.43, 25.94 79.74, 24.16 78.93 C22.38 78.11, 20.63 77.16, 18.99 76.1 C17.34 75.04, 15.75 73.85, 14.26 72.57 C12.78 71.28, 11.38 69.88, 10.09 68.4 C8.81 66.91, 7.62 65.32, 6.56 63.67 C5.5 62.03, 4.55 60.28, 3.73 58.5 C2.92 56.72, 2.23 54.86, 1.67 52.97 C1.12 51.09, 0.7 49.15, 0.42 47.21 C0.14 45.27, 0 43.29, 0 41.33 C0 39.37, 0.14 37.39, 0.42 35.45 C0.7 33.51, 1.12 31.57, 1.67 29.69 C2.23 27.8, 2.92 25.94, 3.73 24.16 C4.55 22.38, 5.5 20.63, 6.56 18.99 C7.62 17.34, 8.81 15.75, 10.09 14.26 C11.38 12.78, 12.78 11.38, 14.26 10.09 C15.75 8.81, 17.34 7.62, 18.99 6.56 C20.63 5.5, 22.38 4.55, 24.16 3.73 C25.94 2.92, 27.8 2.23, 29.69 1.67 C31.57 1.12, 33.51 0.7, 35.45 0.42 C37.39 0.14, 39.37 0, 41.33 0 C43.29 0, 45.27 0.14, 47.21 0.42 C49.15 0.7, 51.09 1.12, 52.97 1.67 C54.86 2.23, 56.72 2.92, 58.5 3.73 C60.28 4.55, 62.03 5.5, 63.67 6.56 C65.32 7.62, 66.91 8.81, 68.4 10.09 C69.88 11.38, 71.28 12.78, 72.57 14.26 C73.85 15.75, 75.04 17.34, 76.1 18.99 C77.16 20.63, 78.11 22.38, 78.93 24.16 C79.74 25.94, 80.43 27.8, 80.99 29.69 C81.54 31.57, 81.96 33.51, 82.24 35.45 C82.52 37.39, 82.59 40.35, 82.66 41.33 C82.73 42.31, 82.73 40.35, 82.66 41.33" stroke="#1c1c1c" stroke-width="0.5" fill="none"/></g><g stroke-linecap="round" transform="translate(1121.9189283728454 229.06051606511465) rotate(90.5757971607225 41.33014866611114 41.33014866611114)"><path d="M82.66 41.33 C82.66 43.29, 82.52 45.27, 82.24 47.21 C81.96 49.15, 81.54 51.09, 80.99 52.97 C80.43 54.86, 79.74 56.72, 78.93 58.5 C78.11 60.28, 77.16 62.03, 76.1 63.67 C75.04 65.32, 73.85 66.91, 72.57 68.4 C71.28 69.88, 69.88 71.28, 68.4 72.57 C66.91 73.85, 65.32 75.04, 63.67 76.1 C62.03 77.16, 60.28 78.11, 58.5 78.93 C56.72 79.74, 54.86 80.43, 52.97 80.99 C51.09 81.54, 49.15 81.96, 47.21 82.24 C45.27 82.52, 43.29 82.66, 41.33 82.66 C39.37 82.66, 37.39 82.52, 35.45 82.24 C33.51 81.96, 31.57 81.54, 29.69 80.99 C27.8 80.43, 25.94 79.74, 24.16 78.93 C22.38 78.11, 20.63 77.16, 18.99 76.1 C17.34 75.04, 15.75 73.85, 14.26 72.57 C12.78 71.28, 11.38 69.88, 10.09 68.4 C8.81 66.91, 7.62 65.32, 6.56 63.67 C5.5 62.03, 4.55 60.28, 3.73 58.5 C2.92 56.72, 2.23 54.86, 1.67 52.97 C1.12 51.09, 0.7 49.15, 0.42 47.21 C0.14 45.27, 0 43.29, 0 41.33 C0 39.37, 0.14 37.39, 0.42 35.45 C0.7 33.51, 1.12 31.57, 1.67 29.69 C2.23 27.8, 2.92 25.94, 3.73 24.16 C4.55 22.38, 5.5 20.63, 6.56 18.99 C7.62 17.34, 8.81 15.75, 10.09 14.26 C11.38 12.78, 12.78 11.38, 14.26 10.09 C15.75 8.81, 17.34 7.62, 18.99 6.56 C20.63 5.5, 22.38 4.55, 24.16 3.73 C25.94 2.92, 27.8 2.23, 29.69 1.67 C31.57 1.12, 33.51 0.7, 35.45 0.42 C37.39 0.14, 39.37 0, 41.33 0 C43.29 0, 45.27 0.14, 47.21 0.42 C49.15 0.7, 51.09 1.12, 52.97 1.67 C54.86 2.23, 56.72 2.92, 58.5 3.73 C60.28 4.55, 62.03 5.5, 63.67 6.56 C65.32 7.62, 66.91 8.81, 68.4 10.09 C69.88 11.38, 71.28 12.78, 72.57 14.26 C73.85 15.75, 75.04 17.34, 76.1 18.99 C77.16 20.63, 78.11 22.38, 78.93 24.16 C79.74 25.94, 80.43 27.8, 80.99 29.69 C81.54 31.57, 81.96 33.51, 82.24 35.45 C82.52 37.39, 82.59 40.35, 82.66 41.33 C82.73 42.31, 82.73 40.35, 82.66 41.33" stroke="#1c1c1c" stroke-width="0.5" fill="none"/></g><g stroke-linecap="round" transform="translate(962.3511389145802 54.61298146090496) rotate(90.5757971607225 41.33014866611114 41.33014866611114)"><path d="M82.66 41.33 C82.66 43.29, 82.52 45.27, 82.24 47.21 C81.96 49.15, 81.54 51.09, 80.99 52.97 C80.43 54.86, 79.74 56.72, 78.93 58.5 C78.11 60.28, 77.16 62.03, 76.1 63.67 C75.04 65.32, 73.85 66.91, 72.57 68.4 C71.28 69.88, 69.88 71.28, 68.4 72.57 C66.91 73.85, 65.32 75.04, 63.67 76.1 C62.03 77.16, 60.28 78.11, 58.5 78.93 C56.72 79.74, 54.86 80.43, 52.97 80.99 C51.09 81.54, 49.15 81.96, 47.21 82.24 C45.27 82.52, 43.29 82.66, 41.33 82.66 C39.37 82.66, 37.39 82.52, 35.45 82.24 C33.51 81.96, 31.57 81.54, 29.69 80.99 C27.8 80.43, 25.94 79.74, 24.16 78.93 C22.38 78.11, 20.63 77.16, 18.99 76.1 C17.34 75.04, 15.75 73.85, 14.26 72.57 C12.78 71.28, 11.38 69.88, 10.09 68.4 C8.81 66.91, 7.62 65.32, 6.56 63.67 C5.5 62.03, 4.55 60.28, 3.73 58.5 C2.92 56.72, 2.23 54.86, 1.67 52.97 C1.12 51.09, 0.7 49.15, 0.42 47.21 C0.14 45.27, 0 43.29, 0 41.33 C0 39.37, 0.14 37.39, 0.42 35.45 C0.7 33.51, 1.12 31.57, 1.67 29.69 C2.23 27.8, 2.92 25.94, 3.73 24.16 C4.55 22.38, 5.5 20.63, 6.56 18.99 C7.62 17.34, 8.81 15.75, 10.09 14.26 C11.38 12.78, 12.78 11.38, 14.26 10.09 C15.75 8.81, 17.34 7.62, 18.99 6.56 C20.63 5.5, 22.38 4.55, 24.16 3.73 C25.94 2.92, 27.8 2.23, 29.69 1.67 C31.57 1.12, 33.51 0.7, 35.45 0.42 C37.39 0.14, 39.37 0, 41.33 0 C43.29 0, 45.27 0.14, 47.21 0.42 C49.15 0.7, 51.09 1.12, 52.97 1.67 C54.86 2.23, 56.72 2.92, 58.5 3.73 C60.28 4.55, 62.03 5.5, 63.67 6.56 C65.32 7.62, 66.91 8.81, 68.4 10.09 C69.88 11.38, 71.28 12.78, 72.57 14.26 C73.85 15.75, 75.04 17.34, 76.1 18.99 C77.16 20.63, 78.11 22.38, 78.93 24.16 C79.74 25.94, 80.43 27.8, 80.99 29.69 C81.54 31.57, 81.96 33.51, 82.24 35.45 C82.52 37.39, 82.59 40.35, 82.66 41.33 C82.73 42.31, 82.73 40.35, 82.66 41.33" stroke="#1c1c1c" stroke-width="0.5" fill="none"/></g><g stroke-linecap="round"><g transform="translate(1027.391678862523 231.99920951933345) rotate(90.5757971607225 54.85637913865662 -52.35152164374078)"><path d="M0 0 C18.29 -17.45, 91.43 -87.25, 109.71 -104.7 M0 0 C18.29 -17.45, 91.43 -87.25, 109.71 -104.7" stroke="#1c1c1c" stroke-width="0.5" fill="none"/></g></g><mask/><g stroke-linecap="round"><g transform="translate(1188.4144795889777 411.22083640969447) rotate(90.5757971607225 54.85637913865662 -52.35152164374078)"><path d="M0 0 C18.29 -17.45, 91.43 -87.25, 109.71 -104.7 M0 0 C18.29 -17.45, 91.43 -87.25, 109.71 -104.7" stroke="#1c1c1c" stroke-width="0.5" fill="none"/></g></g><mask/><g stroke-linecap="round"><g transform="translate(727.776442017282 319.90890720734467) rotate(0 68.92171966462365 -0.9572461064531126)"><path d="M0 0 C22.97 -0.32, 114.87 -1.6, 137.84 -1.91 M0 0 C22.97 -0.32, 114.87 -1.6, 137.84 -1.91" stroke="#0400ff" stroke-width="0.5" fill="none"/></g><g transform="translate(727.776442017282 319.90890720734467) rotate(0 68.92171966462365 -0.9572461064531126)"><path d="M109.8 8.74 C119.04 5.23, 128.28 1.72, 137.84 -1.91 M109.8 8.74 C117.98 5.63, 126.17 2.52, 137.84 -1.91" stroke="#0400ff" stroke-width="0.5" fill="none"/></g><g transform="translate(727.776442017282 319.90890720734467) rotate(0 68.92171966462365 -0.9572461064531126)"><path d="M109.51 -11.78 C118.85 -8.53, 128.19 -5.28, 137.84 -1.91 M109.51 -11.78 C117.78 -8.9, 126.05 -6.02, 137.84 -1.91" stroke="#0400ff" stroke-width="0.5" fill="none"/></g></g><mask/><g transform="translate(989.1046290789801 73.89665784889644) rotate(0 16.2731838097028 19.144922129062138)" stroke="none"><path fill="#1c1c1c" d="M 0.01,0 Q 0.01,0 0.32,1.43 0.63,2.87 0.87,4.78 1.11,6.69 1.56,8.46 2.02,10.23 4.33,13.40 6.64,16.57 9.42,18.86 12.20,21.16 14.66,24.10 17.12,27.04 19.92,29.36 22.73,31.68 25.10,33.59 27.47,35.49 30.01,36.88 32.54,38.28 32.54,38.28 32.54,38.28 32.54,38.29 32.54,38.29 29.33,37.77 26.12,37.25 23.71,35.33 21.30,33.40 18.36,30.93 15.41,28.47 13.09,25.67 10.77,22.87 7.80,20.37 4.84,17.88 2.36,14.35 -0.11,10.82 -0.61,8.76 -1.11,6.70 -0.87,4.79 -0.63,2.87 -0.32,1.43 -0.01,0 0,0 L 0.01,0 Z"/></g><g transform="translate(982.4039063338083 112.18650210702071) rotate(0 18.666299075835582 -13.40144549034352)" stroke="none"><path fill="#1c1c1c" d="M -0.00,-0.00 Q -0.00,-0.00 0.86,-0.69 1.72,-1.38 2.29,-1.51 2.87,-1.63 3.30,-1.72 3.74,-1.81 6.35,-3.76 8.96,-5.70 14.15,-10.43 19.35,-15.17 23.19,-18.53 27.03,-21.89 32.18,-24.35 37.32,-26.81 37.33,-26.80 37.33,-26.80 37.33,-26.79 37.33,-26.79 32.91,-23.50 28.48,-20.22 24.66,-16.88 20.84,-13.54 15.51,-8.70 10.18,-3.87 7.04,-1.98 3.91,-0.09 3.39,-0.18 2.87,-0.27 2.48,-0.40 2.10,-0.52 1.05,-0.25 0.00,0.00 0,0 L -0.00,-0.00 Z"/></g><g transform="translate(1139.3922677921178 298.84949286537653) rotate(0 13.401445490343576 -16.751806862929413)" stroke="none"><path fill="#1c1c1c" d="M -0.00,-0.00 Q -0.00,-0.00 0.99,-1.71 1.98,-3.42 1.87,-4.58 1.75,-5.74 2.24,-8.24 2.73,-10.74 3.21,-13.14 3.69,-15.53 4.66,-20.34 5.63,-25.16 7.64,-27.76 9.65,-30.37 11.73,-32.37 13.80,-34.38 17.00,-34.48 20.20,-34.58 21.91,-33.53 23.62,-32.48 25.21,-29.92 26.80,-27.36 27.34,-25.23 27.87,-23.11 26.86,-20.39 25.85,-17.68 24.22,-16.50 22.60,-15.33 20.02,-14.77 17.44,-14.22 16.37,-14.21 15.29,-14.20 12.43,-15.71 9.56,-17.22 9.57,-17.22 9.57,-17.23 9.57,-17.23 9.57,-17.23 12.45,-16.83 15.33,-16.42 16.17,-16.41 17.01,-16.41 19.22,-16.81 21.42,-17.21 22.67,-17.95 23.92,-18.69 24.82,-20.76 25.72,-22.83 25.30,-24.53 24.88,-26.24 23.60,-28.46 22.32,-30.69 21.16,-31.55 19.99,-32.41 17.45,-32.51 14.91,-32.61 13.15,-30.79 11.40,-28.97 9.58,-26.79 7.76,-24.61 6.82,-19.85 5.87,-15.09 5.40,-12.70 4.92,-10.31 4.45,-8.02 3.98,-5.73 3.87,-4.02 3.75,-2.31 1.88,-1.15 0.00,0.00 0,0 L -0.00,-0.00 Z"/></g><g transform="translate(1316.4827974859427 447.22263936560796) rotate(0 16.2731838097028 12.444199383890407)" stroke="none"><path fill="#1c1c1c" d="M -0.00,0.00 Q -0.00,0.00 -2.12,-0.12 -4.24,-0.26 -5.01,-1.34 -5.79,-2.42 -5.84,-5.04 -5.89,-7.65 -5.85,-8.73 -5.80,-9.80 -4.19,-11.54 -2.59,-13.28 2.94,-14.36 8.48,-15.44 10.16,-14.95 11.84,-14.45 12.89,-13.93 13.94,-13.40 15.58,-11.12 17.23,-8.84 16.80,-7.11 16.37,-5.38 14.88,-2.88 13.39,-0.38 10.41,3.07 7.44,6.53 5.28,7.15 3.13,7.78 0.67,7.47 -1.77,7.17 -2.38,5.11 -2.99,3.04 -2.50,1.34 -2.01,-0.36 -0.78,-2.03 0.44,-3.71 3.15,-3.83 5.86,-3.94 9.48,-1.46 13.10,1.01 16.09,4.96 19.08,8.91 20.60,13.38 22.11,17.84 22.62,24.21 23.12,30.58 22.08,33.72 21.04,36.87 18.39,38.55 15.73,40.23 11.59,39.80 7.44,39.36 3.37,36.38 -0.70,33.39 -3.23,28.20 -5.77,23.00 -3.83,19.34 -1.90,15.69 2.06,12.66 6.03,9.63 12.29,5.77 18.56,1.92 27.94,-1.43 37.32,-4.79 37.33,-4.79 37.33,-4.78 37.33,-4.78 37.33,-4.77 28.53,-0.47 19.72,3.82 13.54,7.62 7.36,11.42 3.67,14.13 -0.01,16.85 -1.90,19.89 -3.80,22.94 -1.54,27.31 0.70,31.69 4.28,34.45 7.86,37.21 11.37,37.73 14.89,38.25 17.02,37.06 19.16,35.87 20.03,33.28 20.90,30.68 20.45,24.60 19.99,18.53 18.64,14.37 17.28,10.22 14.53,6.51 11.78,2.81 8.70,0.50 5.62,-1.79 3.54,-1.91 1.47,-2.03 0.78,-0.83 0.09,0.36 -0.36,1.53 -0.83,2.69 -0.48,4.46 -0.13,6.22 1.23,5.92 2.60,5.61 4.28,5.28 5.96,4.95 8.72,1.70 11.48,-1.53 12.87,-3.81 14.26,-6.10 14.78,-7.24 15.31,-8.38 14.08,-9.93 12.86,-11.48 11.99,-11.91 11.13,-12.34 9.93,-12.80 8.74,-13.26 3.75,-12.43 -1.23,-11.60 -2.50,-10.47 -3.77,-9.34 -3.72,-8.50 -3.67,-7.65 -3.72,-5.48 -3.77,-3.31 -3.59,-2.48 -3.41,-1.64 -1.70,-0.82 0.00,-0.00 0,0 L -0.00,0.00 Z"/></g><g stroke-linecap="round"><g transform="translate(971.8741991628241 132.28867034253597) rotate(0 -28.47807166697993 28.47807166697993)"><path d="M0 0 C-9.49 9.49, -47.46 47.46, -56.96 56.96 M0 0 C-9.49 9.49, -47.46 47.46, -56.96 56.96" stroke="#1c1c1c" stroke-width="0.5" fill="none"/></g></g><mask/><g stroke-linecap="round"><g transform="translate(1132.691545046946 305.5502156105482) rotate(0 -32.54636761940566 32.54636761940564)"><path d="M0 0 C-10.85 10.85, -54.24 54.24, -65.09 65.09 M0 0 C-10.85 10.85, -54.24 54.24, -65.09 65.09" stroke="#1c1c1c" stroke-width="0.5" fill="none"/></g></g><mask/><g stroke-linecap="round"><g transform="translate(1296.3806292504273 479.7690069850137) rotate(0 -45.708501583135785 45.708501583135785)"><path d="M0 0 C-15.24 15.24, -76.18 76.18, -91.42 91.42 M0 0 C-15.24 15.24, -76.18 76.18, -91.42 91.42" stroke="#1c1c1c" stroke-width="0.5" fill="none"/></g></g><mask/><g stroke-linecap="round"><g transform="translate(1354.7726417440667 480.7262530914668) rotate(0 50.97335516862796 50.97335516862793)"><path d="M0 0 C16.99 16.99, 84.96 84.96, 101.95 101.95 M0 0 C16.99 16.99, 84.96 84.96, 101.95 101.95" stroke="#1c1c1c" stroke-width="0.5" fill="none"/></g></g><mask/><g stroke-linecap="round"><g transform="translate(908.0742209830348 187.8871033433709) rotate(0 2.660214004205301 40.625)"><path d="M0 0 C7.93 13.04, 54.62 64.71, 47.58 78.25 C40.54 91.79, -34.33 94.29, -42.26 81.25 C-50.19 68.21, -7.04 13.54, 0 0 M0 0 C7.93 13.04, 54.62 64.71, 47.58 78.25 C40.54 91.79, -34.33 94.29, -42.26 81.25 C-50.19 68.21, -7.04 13.54, 0 0" stroke="#1c1c1c" stroke-width="0.5" fill="none"/></g></g><mask/><g stroke-linecap="round"><g transform="translate(1058.3618596961728 361.14864861138324) rotate(0 2.660214004205301 40.625)"><path d="M0 0 C7.93 13.04, 54.62 64.71, 47.58 78.25 C40.54 91.79, -34.33 94.29, -42.26 81.25 C-50.19 68.21, -7.04 13.54, 0 0 M0 0 C7.93 13.04, 54.62 64.71, 47.58 78.25 C40.54 91.79, -34.33 94.29, -42.26 81.25 C-50.19 68.21, -7.04 13.54, 0 0" stroke="#1c1c1c" stroke-width="0.5" fill="none"/></g></g><mask/><g stroke-linecap="round"><g transform="translate(1205.7777600899512 565.9993153923481) rotate(0 2.6602140042053293 40.625)"><path d="M0 0 C7.93 13.04, 54.62 64.71, 47.58 78.25 C40.54 91.79, -34.33 94.29, -42.26 81.25 C-50.19 68.21, -7.04 13.54, 0 0 M0 0 C7.93 13.04, 54.62 64.71, 47.58 78.25 C40.54 91.79, -34.33 94.29, -42.26 81.25 C-50.19 68.21, -7.04 13.54, 0 0" stroke="#1c1c1c" stroke-width="0.5" fill="none"/></g></g><mask/><g stroke-linecap="round"><g transform="translate(1463.276962725837 584.186991414957) rotate(0 2.6602140042053293 40.625)"><path d="M0 0 C7.93 13.04, 54.62 64.71, 47.58 78.25 C40.54 91.79, -34.33 94.29, -42.26 81.25 C-50.19 68.21, -7.04 13.54, 0 0 M0 0 C7.93 13.04, 54.62 64.71, 47.58 78.25 C40.54 91.79, -34.33 94.29, -42.26 81.25 C-50.19 68.21, -7.04 13.54, 0 0" stroke="#1c1c1c" stroke-width="0.5" fill="none"/></g></g><mask/><g transform="translate(894.3372645401224 248.1154492233618) rotate(0 14.358691596796575 -14.358691596796575)" stroke="none"><path fill="#1c1c1c" d="M -0.00,-0.00 Q -0.00,-0.00 0.63,-1.65 1.27,-3.29 2.03,-5.67 2.79,-8.06 3.23,-11.75 3.68,-15.45 4.64,-19.81 5.61,-24.17 7.56,-28.58 9.51,-32.99 10.49,-35.41 11.48,-37.83 13.51,-38.99 15.55,-40.15 17.72,-38.64 19.89,-37.14 21.01,-33.56 22.13,-29.98 24.05,-19.88 25.98,-9.78 26.94,-4.02 27.90,1.73 28.16,4.63 28.42,7.54 28.57,9.03 28.72,10.52 28.72,10.52 28.71,10.52 28.71,10.53 28.70,10.53 27.90,9.15 27.09,7.77 26.39,4.93 25.70,2.09 24.74,-3.63 23.79,-9.36 21.88,-19.36 19.98,-29.36 19.19,-32.48 18.39,-35.60 16.73,-36.97 15.07,-38.34 14.24,-37.58 13.40,-36.82 12.47,-34.46 11.54,-32.09 9.66,-27.88 7.78,-23.68 6.84,-19.43 5.89,-15.17 5.37,-11.21 4.86,-7.25 3.71,-4.85 2.55,-2.44 1.28,-1.22 0.00,0.00 0,0 L -0.00,-0.00 Z"/></g><g transform="translate(888.5937879014037 236.62849594592456) rotate(0 14.837314650023245 -1.9144922129062252)" stroke="none"><path fill="#1c1c1c" d="M -0.00,-0.00 Q -0.00,-0.00 2.28,-2.39 4.56,-4.78 6.28,-4.35 7.99,-3.92 15.99,-3.47 23.99,-3.02 26.83,-2.47 29.67,-1.92 29.67,-1.91 29.67,-1.91 29.67,-1.90 29.67,-1.90 26.77,-1.35 23.86,-0.80 15.59,-1.30 7.31,-1.81 6.15,-2.34 5.00,-2.87 2.50,-1.43 0.00,0.00 0,0 L -0.00,-0.00 Z"/></g><g transform="translate(1056.1118565306974 428.0777172365458) rotate(0 6.222099691945118 -17.709052969382412)" stroke="none"><path fill="#1c1c1c" d="M -0.00,0.00 Q -0.00,0.00 -0.91,-1.80 -1.81,-3.62 -1.94,-6.11 -2.07,-8.61 -2.07,-11.00 -2.07,-13.39 -2.54,-16.67 -3.01,-19.94 -3.02,-23.37 -3.02,-26.80 -2.06,-32.16 -1.09,-37.53 -0.44,-39.66 0.21,-41.79 2.00,-42.46 3.79,-43.14 6.50,-41.66 9.21,-40.18 10.79,-38.13 12.37,-36.08 13.35,-34.62 14.33,-33.15 14.87,-31.58 15.41,-30.00 15.39,-27.81 15.37,-25.61 14.30,-24.37 13.23,-23.14 12.16,-22.13 11.08,-21.13 9.37,-21.01 7.65,-20.90 7.17,-20.90 6.68,-20.91 5.25,-21.38 3.82,-21.86 3.69,-21.87 3.56,-21.89 3.43,-21.94 3.31,-21.99 3.20,-22.06 3.09,-22.14 3.00,-22.24 2.91,-22.34 2.85,-22.46 2.79,-22.58 2.75,-22.71 2.72,-22.84 2.72,-22.97 2.72,-23.10 2.75,-23.23 2.79,-23.36 2.85,-23.48 2.91,-23.60 3.00,-23.70 3.09,-23.80 3.20,-23.88 3.31,-23.95 3.43,-24.00 3.56,-24.05 3.69,-24.06 3.82,-24.08 4.79,-22.82 5.76,-21.57 8.06,-19.31 10.36,-17.05 12.34,-14.09 14.33,-11.13 14.87,-9.56 15.41,-7.99 15.44,-3.50 15.46,0.98 14.28,3.72 13.10,6.46 10.45,7.12 7.80,7.78 4.56,6.70 1.32,5.61 0.65,2.80 -0.00,0.00 -0.00,0.00 0,0 0.00,-0.00 0.00,-0.00 1.25,1.97 2.50,3.95 5.01,4.78 7.51,5.61 9.64,5.31 11.77,5.02 12.51,2.97 13.25,0.92 13.27,-3.19 13.29,-7.32 12.88,-8.62 12.47,-9.92 10.62,-12.70 8.78,-15.49 6.29,-18.01 3.80,-20.54 3.81,-21.20 3.82,-21.86 3.69,-21.87 3.56,-21.89 3.43,-21.94 3.31,-21.99 3.20,-22.06 3.09,-22.14 3.00,-22.24 2.91,-22.34 2.85,-22.46 2.79,-22.58 2.75,-22.71 2.72,-22.84 2.72,-22.97 2.72,-23.10 2.75,-23.23 2.79,-23.36 2.85,-23.48 2.91,-23.60 3.00,-23.70 3.09,-23.80 3.20,-23.88 3.31,-23.95 3.43,-24.00 3.56,-24.05 3.69,-24.06 3.82,-24.08 5.27,-23.60 6.71,-23.12 7.18,-23.12 7.65,-23.13 8.81,-23.01 9.97,-22.90 10.81,-23.81 11.65,-24.72 12.49,-25.39 13.33,-26.07 13.31,-27.70 13.29,-29.33 12.88,-30.63 12.46,-31.93 11.53,-33.34 10.59,-34.74 9.30,-36.53 8.01,-38.31 5.93,-39.70 3.85,-41.09 2.77,-40.81 1.70,-40.52 1.39,-38.82 1.09,-37.13 0.14,-31.96 -0.79,-26.79 -0.80,-23.52 -0.81,-20.25 -0.32,-16.83 0.15,-13.40 0.15,-11.00 0.15,-8.61 0.02,-6.32 -0.10,-4.03 -0.04,-2.01 0.00,-0.00 0,0 L -0.00,0.00 Z"/></g><g transform="translate(1203.5277569244759 609.9544774626361) rotate(0 -6.700722745171788 17.70905296938247)" stroke="none"><path fill="#1c1c1c" d="M 0.00,0.00 Q 0.00,0.00 -1.65,1.34 -3.31,2.67 -3.58,3.53 -3.84,4.38 -5.33,5.31 -6.82,6.25 -8.28,8.30 -9.74,10.35 -11.12,12.21 -12.51,14.06 -14.86,17.81 -17.21,21.55 -17.19,23.58 -17.17,25.61 -15.38,27.24 -13.59,28.87 -10.40,30.19 -7.22,31.52 -2.58,32.66 2.04,33.79 3.41,34.60 4.78,35.40 4.78,35.41 4.78,35.41 4.78,35.42 4.78,35.42 3.28,35.27 1.78,35.12 -3.15,34.34 -8.09,33.57 -11.60,32.02 -15.12,30.47 -17.16,28.27 -19.20,26.07 -19.18,23.31 -19.15,20.55 -16.72,16.64 -14.28,12.73 -12.80,10.76 -11.31,8.78 -9.99,7.63 -8.66,6.47 -8.58,5.85 -8.49,5.23 -7.11,4.25 -5.73,3.27 -5.03,2.21 -4.33,1.14 -2.17,0.57 -0.00,-0.00 0,0 L 0.00,0.00 Z"/></g><g transform="translate(1456.2407290280962 661.6457672111039) rotate(0 2.871738319359224 -14.837314650023131)" stroke="none"><path fill="#1c1c1c" d="M 0.00,0.00 Q 0.00,0.00 -1.16,0.58 -2.34,1.17 -3.02,0.32 -3.71,-0.51 -4.67,-1.34 -5.62,-2.17 -6.23,-4.81 -6.83,-7.44 -6.84,-10.42 -6.85,-13.40 -6.37,-17.30 -5.89,-21.19 -4.92,-26.50 -3.95,-31.81 -1.78,-34.57 0.38,-37.34 1.45,-36.82 2.51,-36.31 3.66,-34.20 4.82,-32.08 6.76,-27.25 8.69,-22.43 9.66,-19.02 10.64,-15.62 11.60,-11.77 12.57,-7.92 12.58,-4.42 12.59,-0.93 11.53,2.19 10.46,5.32 8.24,6.52 6.01,7.71 1.34,6.27 -3.33,4.82 -3.45,4.87 -3.58,4.91 -3.71,4.93 -3.85,4.94 -3.98,4.92 -4.11,4.90 -4.24,4.85 -4.36,4.80 -4.47,4.72 -4.58,4.64 -4.67,4.54 -4.75,4.44 -4.81,4.32 -4.87,4.20 -4.90,4.07 -4.93,3.94 -4.93,3.80 -4.93,3.67 -4.89,3.54 -4.86,3.41 -4.79,3.29 -4.73,3.17 -4.64,3.07 -4.55,2.97 -4.43,2.90 -4.32,2.83 -2.16,1.41 -0.00,-0.00 -0.00,-0.00 0,0 0.00,0.00 0.00,0.00 -1.66,2.41 -3.32,4.82 -3.45,4.87 -3.58,4.91 -3.71,4.93 -3.85,4.94 -3.98,4.92 -4.11,4.90 -4.24,4.85 -4.36,4.80 -4.47,4.72 -4.58,4.64 -4.67,4.54 -4.75,4.44 -4.81,4.32 -4.87,4.20 -4.90,4.07 -4.93,3.94 -4.93,3.80 -4.93,3.67 -4.89,3.54 -4.86,3.41 -4.79,3.29 -4.73,3.17 -4.64,3.07 -4.55,2.97 -4.44,2.90 -4.32,2.83 0.56,4.25 5.46,5.68 7.07,4.96 8.67,4.24 9.52,1.63 10.37,-0.97 10.38,-4.18 10.40,-7.39 9.45,-11.20 8.49,-15.00 7.56,-18.30 6.62,-21.60 4.72,-26.34 2.83,-31.09 2.07,-32.80 1.31,-34.52 0.46,-34.96 -0.38,-35.41 -1.08,-33.38 -1.78,-31.36 -2.73,-26.14 -3.67,-20.92 -4.15,-17.16 -4.62,-13.40 -4.63,-10.63 -4.65,-7.87 -4.29,-5.71 -3.94,-3.56 -2.98,-2.48 -2.02,-1.39 -1.75,-0.32 -1.48,0.74 -0.74,0.36 -0.00,-0.00 0,0 L 0.00,0.00 Z"/></g><g stroke-linecap="round"><g transform="translate(1351.8432211676104 483.2405809421542) rotate(0 50.97335516862796 50.97335516862793)"><path d="M0 0 C16.99 16.99, 84.96 84.96, 101.95 101.95 M0 0 C16.99 16.99, 84.96 84.96, 101.95 101.95" stroke="#1c1c1c" stroke-width="0.5" fill="none"/></g></g><mask/></svg>